<svg width="129" height="35" viewBox="0 0 129 35" fill="none" xmlns="http://www.w3.org/2000/svg">
<g clip-path="url(#clip0_1907_8648)">
<path d="M8.02479 3.06995C7.95102 3.02029 7.85483 3.0021 7.66964 2.99873C7.48429 2.99648 7.36793 2.98369 7.09711 3.05746C6.82531 3.12995 6.64498 3.20398 6.31275 3.36261C5.97924 3.52222 5.79438 3.63119 5.43114 3.85225C5.0679 4.07332 4.86865 4.1873 4.49556 4.46668C4.1212 4.74703 3.90978 4.90184 3.56414 5.25238C3.21722 5.6039 3.04759 5.80765 2.76383 6.22007C2.47894 6.63234 2.35146 6.86447 2.1421 7.31289C1.93161 7.76115 1.8451 8.00433 1.71463 8.46296C1.58401 8.92272 1.54159 9.17046 1.48832 9.60816C1.43617 10.046 1.42689 10.2591 1.4526 10.6532C1.47718 11.0471 1.50762 11.2367 1.61462 11.5782C1.72034 11.9208 1.79936 12.0892 1.98248 12.365C2.16546 12.642 2.28599 12.7641 2.5295 12.963C2.77302 13.1618 2.91531 13.2399 3.19908 13.358C3.48397 13.4763 3.63642 13.5201 3.95158 13.5552C4.26673 13.5903 4.4448 13.5778 4.77228 13.5355C5.09962 13.4943 5.2808 13.449 5.58854 13.3468C5.89642 13.2434 6.07385 13.1564 6.3111 13.0233C6.54724 12.89 6.63545 12.8018 6.77032 12.6806C6.90504 12.5605 6.95721 12.494 6.98616 12.4209C7.0151 12.3479 6.99043 12.3172 6.91375 12.3165C6.83835 12.3147 6.76671 12.3547 6.60758 12.4154C6.44719 12.4772 6.34802 12.5262 6.1143 12.6231C5.88059 12.72 5.72149 12.8071 5.44016 12.9001C5.15882 12.9932 4.99875 13.0435 4.70861 13.0895C4.41959 13.1357 4.2639 13.1522 3.99394 13.131C3.72299 13.1085 3.59671 13.0749 3.35484 12.9783C3.11298 12.8816 2.99319 12.8157 2.78463 12.6477C2.5772 12.4799 2.47815 12.3777 2.31515 12.1411C2.15229 11.9034 2.07511 11.7651 1.96991 11.4627C1.86599 11.1593 1.82601 10.9903 1.79283 10.6273C1.75867 10.2631 1.76085 10.0606 1.80234 9.64312C1.84368 9.2268 1.88086 8.9841 2.00111 8.54248C2.12135 8.10086 2.20332 7.86626 2.40372 7.43387C2.60398 7.00262 2.72691 6.77906 3.00241 6.3862C3.27693 5.99206 3.43962 5.79772 3.77699 5.46674C4.11325 5.13561 4.31801 4.98796 4.68607 4.72971C5.05398 4.47258 5.25221 4.36649 5.61475 4.17741C5.97728 3.98834 6.1727 3.91282 6.49776 3.78306C6.82183 3.65202 6.99145 3.60754 7.23708 3.52478C7.48271 3.44202 7.56608 3.42647 7.72561 3.37151C7.88626 3.3167 7.97762 3.3102 8.03808 3.25043C8.09741 3.19051 8.09842 3.12074 8.02479 3.06995Z" fill="#656661" stroke="#656661" stroke-width="0.6"/>
<path d="M9.36523 8.17362C9.29282 8.2284 9.25075 8.30545 9.1707 8.48988C9.09193 8.67333 9.03795 8.79811 8.96868 9.09394C8.90053 9.38991 8.87813 9.60701 8.82886 9.9696C8.77846 10.332 8.75388 10.5305 8.72005 10.9066C8.68509 11.2825 8.64789 11.4988 8.65632 11.8494C8.66348 12.201 8.68454 12.3744 8.75979 12.6603C8.83504 12.9463 8.89409 13.0742 9.03144 13.2788C9.16752 13.4843 9.25069 13.5765 9.44176 13.6849C9.63395 13.7934 9.75583 13.8344 9.99015 13.8213C10.2246 13.807 10.3608 13.7639 10.6149 13.6158C10.8678 13.4686 11.0051 13.3546 11.2568 13.0836C11.5075 12.8113 11.6328 12.6224 11.8727 12.257C12.1114 11.8915 12.2433 11.6427 12.455 11.2565C12.6666 10.8702 12.7796 10.6523 12.9309 10.3247C13.0824 9.99595 13.1261 9.83546 13.2107 9.6161C13.2943 9.39546 13.3162 9.34101 13.3528 9.22658C13.3883 9.11201 13.3832 9.08957 13.3916 9.04253C13.4011 8.99564 13.4014 9.01059 13.3959 8.99153C13.3916 8.9715 13.392 8.95092 13.3678 8.9432C13.3424 8.93533 13.3237 8.92031 13.2727 8.95151C13.2217 8.98271 13.1913 8.99597 13.1126 9.09921C13.0339 9.20246 12.988 9.25609 12.8792 9.46774C12.7716 9.67952 12.7193 9.83546 12.5699 10.1576C12.4203 10.4808 12.3352 10.7035 12.1317 11.0805C11.9293 11.4576 11.7933 11.7024 11.5546 12.0416C11.3157 12.3819 11.1726 12.5398 10.9375 12.7798C10.7025 13.0198 10.5776 13.1079 10.3802 13.2427C10.1827 13.3787 10.103 13.428 9.94908 13.4573C9.79629 13.4868 9.73494 13.4651 9.61279 13.3908C9.49176 13.3167 9.43257 13.2517 9.34042 13.0874C9.24715 12.9229 9.20253 12.8163 9.14994 12.5677C9.09736 12.3191 9.0793 12.1666 9.07653 11.8431C9.07488 11.5198 9.09514 11.3104 9.13721 10.9503C9.17914 10.5914 9.22047 10.3962 9.28999 10.0454C9.35824 9.69558 9.42935 9.49166 9.48113 9.19815C9.53291 8.90464 9.53731 8.77344 9.54665 8.57756C9.55711 8.38182 9.56792 8.29843 9.53135 8.21806C9.49493 8.13657 9.43637 8.11981 9.36523 8.17362Z" fill="#656661" stroke="#656661" stroke-width="0.6"/>
<path d="M15.2356 9.42912C15.1841 9.50838 15.1867 9.61186 15.1582 9.81442C15.1296 10.017 15.1083 10.1552 15.0921 10.4395C15.0759 10.7239 15.0833 10.9231 15.0768 11.2385C15.0703 11.5539 15.0717 11.7111 15.0597 12.0155C15.0477 12.321 15.0216 12.5044 15.018 12.7618C15.0134 13.019 15.0078 13.1592 15.0406 13.3044C15.0723 13.4483 15.1195 13.4911 15.1774 13.486C15.2341 13.4819 15.27 13.435 15.3276 13.282C15.3851 13.1302 15.4193 12.9994 15.4631 12.7232C15.507 12.4459 15.4966 12.2348 15.547 11.8987C15.5985 11.5628 15.6303 11.3618 15.7176 11.0419C15.8047 10.7232 15.8644 10.5637 15.982 10.3016C16.0996 10.0395 16.1659 9.91635 16.3067 9.73177C16.4466 9.54592 16.5221 9.47551 16.6831 9.37376C16.844 9.27314 16.9263 9.24828 17.1105 9.22402C17.2958 9.19991 17.3987 9.21898 17.6075 9.2529C17.8161 9.28795 17.926 9.33313 18.1525 9.398C18.3801 9.46301 18.5215 9.52144 18.7422 9.57755C18.9619 9.63351 19.0789 9.65898 19.2551 9.67838C19.4304 9.69651 19.5396 9.70264 19.6202 9.67298C19.7021 9.64234 19.714 9.59461 19.6622 9.52602C19.6092 9.45728 19.5144 9.41061 19.3573 9.33182C19.2015 9.25204 19.0966 9.20407 18.8797 9.1267C18.6629 9.04933 18.5176 9.003 18.2733 8.9427C18.0302 8.88255 17.9055 8.84576 17.6595 8.82534C17.4136 8.8038 17.281 8.79235 17.0457 8.83978C16.8116 8.88622 16.696 8.92968 16.4868 9.05842C16.2775 9.18828 16.1781 9.27395 16.0006 9.48585C15.8219 9.6976 15.738 9.83225 15.5956 10.1175C15.4531 10.4038 15.3987 10.5755 15.2874 10.9129C15.1772 11.2504 15.1222 11.4541 15.0436 11.8037C14.9651 12.1533 14.9121 12.3676 14.8957 12.6623C14.8782 12.9568 14.9068 13.1072 14.9593 13.2767C15.0119 13.4462 15.0772 13.4994 15.1569 13.512C15.2366 13.5246 15.2925 13.4826 15.3557 13.3395C15.4202 13.1955 15.4417 13.0562 15.4764 12.7971C15.5124 12.5371 15.5103 12.35 15.5329 12.0424C15.5556 11.7348 15.5739 11.5756 15.59 11.2569C15.6061 10.9381 15.6204 10.7395 15.6145 10.4488C15.6087 10.1581 15.6003 10.0104 15.5606 9.80354C15.5199 9.59659 15.48 9.4883 15.4152 9.41344C15.3495 9.33731 15.2873 9.34873 15.2356 9.42912Z" fill="#656661" stroke="#656661" stroke-width="0.6"/>
<path d="M20.1793 11.1522C20.1067 11.1818 20.0584 11.2362 19.9814 11.3615C19.9034 11.4866 19.854 11.5845 19.7925 11.7759C19.7299 11.9672 19.7096 12.0974 19.6696 12.318C19.6305 12.5398 19.6156 12.6731 19.5966 12.8815C19.5765 13.0897 19.5664 13.1938 19.5713 13.3595C19.5762 13.5251 19.5764 13.6122 19.6198 13.7106C19.6631 13.8091 19.7181 13.854 19.7884 13.8505C19.8599 13.8472 19.9179 13.8066 19.9738 13.6935C20.0297 13.5804 20.0346 13.4894 20.0679 13.2852C20.1014 13.0798 20.1029 12.9356 20.1419 12.6702C20.1821 12.4039 20.2066 12.2329 20.2655 11.9552C20.3232 11.6773 20.3623 11.5266 20.434 11.2826C20.5047 11.0374 20.5463 10.911 20.6221 10.7329C20.699 10.5549 20.7337 10.4907 20.8164 10.3914C20.8992 10.2921 20.9385 10.272 21.0373 10.2344C21.1362 10.1968 21.1816 10.1912 21.3117 10.2035C21.4419 10.2158 21.5179 10.2485 21.6894 10.296C21.8598 10.3421 21.9667 10.3663 22.166 10.4379C22.3664 10.5097 22.4695 10.5632 22.6879 10.6545C22.9066 10.7447 23.0272 10.8039 23.2576 10.8922C23.4881 10.9794 23.6058 11.0256 23.8423 11.0929C24.0779 11.1589 24.2019 11.1922 24.4382 11.2251C24.6733 11.259 24.7911 11.2697 25.0207 11.2582C25.2502 11.2467 25.3772 11.2391 25.5846 11.1685C25.7931 11.0981 25.8967 11.0417 26.0596 10.9069C26.2239 10.7712 26.3162 10.6778 26.4033 10.492C26.4906 10.305 26.5112 10.1725 26.4966 9.97581C26.4831 9.77926 26.4435 9.66872 26.3335 9.51007C26.2221 9.35241 26.1336 9.26646 25.9462 9.18259C25.7577 9.09858 25.6229 9.07768 25.3931 9.09144C25.1633 9.10521 25.0316 9.13971 24.7958 9.25239C24.5612 9.36523 24.4352 9.45318 24.2177 9.65531C24.0013 9.85759 23.8787 9.98953 23.7115 10.2635C23.5453 10.5376 23.471 10.7044 23.3869 11.0258C23.3029 11.3473 23.2874 11.5378 23.2925 11.8696C23.2975 12.2025 23.3189 12.3737 23.4122 12.6883C23.5053 13.0041 23.5856 13.1715 23.7584 13.4471C23.9325 13.7218 24.0546 13.859 24.2823 14.065C24.5098 14.2721 24.6384 14.3495 24.8966 14.4792C25.1548 14.6089 25.2998 14.6666 25.5744 14.7137C25.8479 14.7606 25.9932 14.7622 26.2665 14.714C26.5408 14.6659 26.6765 14.609 26.9429 14.4728C27.208 14.3364 27.3554 14.2512 27.5957 14.0326C27.8372 13.814 27.9553 13.6632 28.1477 13.381C28.3402 13.0977 28.4162 12.9185 28.5579 12.6206C28.6996 12.3227 28.7567 12.1651 28.8575 11.8917C28.9571 11.6181 29.0153 11.4607 29.0584 11.252C29.1026 11.0434 29.0953 10.9405 29.075 10.8496C29.0545 10.7599 29.0171 10.7573 28.9588 10.8002C28.9004 10.8442 28.8522 10.8975 28.7856 11.0665C28.7189 11.2366 28.6817 11.3819 28.6253 11.6496C28.5678 11.916 28.557 12.106 28.5002 12.4023C28.4435 12.6986 28.398 12.8646 28.3408 13.1287C28.2835 13.394 28.2283 13.537 28.2151 13.7278C28.2018 13.9186 28.2124 14.0139 28.2758 14.0817C28.3392 14.1495 28.411 14.1519 28.5318 14.069C28.6537 13.9863 28.7325 13.8911 28.8817 13.6675C29.031 13.4439 29.1073 13.2533 29.2784 12.95C29.4494 12.6467 29.5418 12.4467 29.7348 12.1509C29.9279 11.8551 30.0378 11.7054 30.2435 11.4708C30.4505 11.2353 30.5721 11.1284 30.7671 10.9761C30.961 10.8236 31.0588 10.7675 31.2141 10.7097C31.3694 10.6519 31.4327 10.6498 31.5434 10.6893C31.6552 10.7279 31.7003 10.7784 31.7721 10.9046C31.844 11.0308 31.8704 11.119 31.9025 11.3226C31.9347 11.525 31.9454 11.6547 31.9339 11.9202C31.9224 12.1857 31.8874 12.3588 31.845 12.6501C31.8027 12.9414 31.7721 13.107 31.7221 13.3778C31.671 13.6485 31.633 13.7822 31.5917 14.0038C31.5493 14.2251 31.5195 14.3313 31.5133 14.4852C31.5061 14.6378 31.5314 14.6903 31.5566 14.7704C31.5806 14.8503 31.6029 14.8635 31.6345 14.8848C31.6674 14.9051 31.6893 14.8953 31.7162 14.8736C31.7429 14.853 31.7385 14.8432 31.7686 14.7784C31.7977 14.7134 31.8174 14.685 31.8647 14.5502C31.911 14.4141 31.9397 14.3158 32.0007 14.1014C32.063 13.8861 32.1059 13.7495 32.1726 13.474C32.2391 13.1996 32.2822 13.0344 32.3337 12.726C32.3851 12.4175 32.4274 12.2328 32.4286 11.9316C32.4308 11.6317 32.4136 11.4724 32.344 11.2228C32.2743 10.9731 32.2191 10.8514 32.0791 10.6843C31.9394 10.5161 31.8374 10.4455 31.6448 10.3839C31.4523 10.3223 31.3401 10.3215 31.1166 10.3751C30.8932 10.4275 30.7686 10.487 30.529 10.6473C30.2903 10.8089 30.1532 10.9297 29.9215 11.1793C29.6896 11.43 29.5907 11.6005 29.372 11.8999C29.1522 12.1992 29.0181 12.3766 28.8255 12.6782C28.6317 12.9797 28.5143 13.1604 28.4065 13.4088C28.2985 13.6584 28.2906 13.7903 28.2846 13.9247C28.2788 14.058 28.3173 14.0974 28.3781 14.0789C28.4401 14.0606 28.5056 13.9969 28.5911 13.8327C28.6765 13.6684 28.7199 13.5193 28.8076 13.258C28.8953 12.9966 28.9473 12.8258 29.0297 12.5259C29.1121 12.226 29.1742 12.0382 29.2173 11.7584C29.2606 11.4776 29.2672 11.3203 29.2456 11.125C29.2252 10.9287 29.1869 10.8527 29.1138 10.7802C29.0396 10.7075 28.9703 10.694 28.879 10.7612C28.7877 10.8296 28.7443 10.9259 28.6561 11.1196C28.5679 11.3145 28.5394 11.4723 28.4369 11.7329C28.3344 11.9935 28.2791 12.1456 28.1457 12.424C28.0122 12.7023 27.9401 12.8694 27.7695 13.1246C27.598 13.3786 27.4934 13.5048 27.2873 13.6981C27.0812 13.8914 26.9578 13.9682 26.7389 14.0923C26.519 14.215 26.41 14.2697 26.1923 14.3136C25.9735 14.3575 25.8662 14.3539 25.6447 14.3126C25.423 14.2724 25.3001 14.2221 25.0855 14.1095C24.8696 13.9979 24.7614 13.9311 24.5704 13.7517C24.3793 13.5722 24.2781 13.4514 24.1291 13.2132C23.9799 12.9762 23.9052 12.8359 23.8267 12.5667C23.7471 12.2963 23.7317 12.1499 23.7319 11.8658C23.7309 11.5815 23.749 11.4154 23.8243 11.1433C23.8996 10.8723 23.9642 10.7363 24.1083 10.5086C24.2514 10.2796 24.3631 10.1692 24.542 9.99985C24.7198 9.83038 24.8225 9.7543 25.0008 9.66053C25.1792 9.56563 25.273 9.54913 25.4316 9.52842C25.5899 9.50884 25.6756 9.51994 25.7918 9.56021C25.9092 9.60063 25.9552 9.64326 26.0162 9.73022C26.0769 9.81831 26.0917 9.88096 26.0949 9.99825C26.0982 10.1144 26.091 10.196 26.0333 10.3145C25.9744 10.433 25.9167 10.4977 25.8016 10.5905C25.6864 10.6833 25.6176 10.7282 25.4577 10.7774C25.2979 10.8254 25.1954 10.8293 25.0045 10.8344C24.8125 10.8393 24.7077 10.8349 24.501 10.8024C24.2933 10.7697 24.1817 10.7381 23.9669 10.6713C23.7509 10.6043 23.6433 10.5595 23.4245 10.4704C23.2059 10.3802 23.0936 10.3186 22.8736 10.2214C22.6547 10.1243 22.5447 10.0619 22.3277 9.98565C22.1109 9.90827 21.9961 9.87393 21.7912 9.83706C21.5862 9.80132 21.4828 9.78564 21.3041 9.80259C21.1264 9.82082 21.0486 9.85543 20.902 9.92581C20.7541 9.99717 20.6944 10.033 20.567 10.1586C20.4397 10.283 20.3787 10.3565 20.2652 10.5514C20.1526 10.7477 20.1 10.8795 20.0026 11.1362C19.9041 11.3927 19.858 11.5449 19.7748 11.8332C19.6916 12.1215 19.6381 12.2956 19.5867 12.5777C19.5352 12.8598 19.514 13.0232 19.5173 13.2459C19.5206 13.4675 19.5502 13.5664 19.6013 13.6853C19.6522 13.8054 19.7066 13.8365 19.7724 13.8416C19.838 13.8478 19.886 13.8047 19.9322 13.7133C19.9772 13.6229 19.9716 13.542 19.9982 13.3896C20.025 13.2361 20.0267 13.1435 20.0656 12.9491C20.1033 12.7558 20.1447 12.6305 20.1902 12.421C20.2357 12.2114 20.2594 12.0908 20.2939 11.9039C20.3283 11.7181 20.3538 11.6274 20.3637 11.4889C20.3746 11.3517 20.3825 11.2817 20.3455 11.2139C20.3084 11.146 20.2519 11.1227 20.1793 11.1522Z" fill="#656661" stroke="#656661" stroke-width="0.6"/>
<path d="M35.9939 5.24176C35.9251 5.27754 35.8907 5.32235 35.7975 5.47528C35.7042 5.62934 35.628 5.7226 35.53 6.01012C35.4331 6.29779 35.4072 6.50642 35.3097 6.91431C35.2112 7.32094 35.1493 7.56846 35.0396 8.04353C34.9309 8.51988 34.8699 8.78699 34.7632 9.29224C34.6552 9.79848 34.6011 10.0745 34.503 10.5751C34.4049 11.0758 34.3613 11.3417 34.2727 11.7955C34.1841 12.2492 34.1416 12.4626 34.0612 12.844C33.981 13.2244 33.9167 13.4109 33.87 13.7004C33.8235 13.9889 33.8341 14.1106 33.8271 14.2884C33.8201 14.4663 33.8183 14.5062 33.8337 14.5907C33.848 14.675 33.8708 14.694 33.9006 14.7116C33.9304 14.7292 33.9787 14.692 33.9816 14.6786C33.9834 14.6651 33.9181 14.6383 33.9105 14.6442C33.9027 14.6512 33.9127 14.7155 33.9429 14.7125C33.973 14.7096 34.0193 14.7064 34.0613 14.6293C34.1033 14.5534 34.1142 14.5044 34.1528 14.3306C34.1912 14.158 34.2053 14.0487 34.2537 13.7639C34.3032 13.4793 34.3346 13.2897 34.3968 12.907C34.4603 12.5233 34.4909 12.305 34.5682 11.8498C34.6456 11.3935 34.688 11.1285 34.7848 10.6288C34.8815 10.1303 34.9342 9.8564 35.0495 9.3557C35.1648 8.85499 35.2298 8.59184 35.3602 8.12518C35.4915 7.65978 35.5732 7.41828 35.7043 7.02618C35.834 6.63506 35.9255 6.45096 36.0129 6.16551C36.1003 5.88005 36.1129 5.77397 36.1399 5.601C36.167 5.42691 36.1743 5.37056 36.1457 5.29925C36.116 5.2278 36.0637 5.20726 35.9939 5.24176Z" fill="#656661" stroke="#656661" stroke-width="0.6"/>
<path d="M33.1503 10.4783C33.1799 10.5417 33.212 10.5768 33.3326 10.6371C33.4531 10.6974 33.5491 10.735 33.7531 10.7787C33.9571 10.8223 34.0838 10.8261 34.3539 10.8554C34.6227 10.8856 34.7859 10.9171 35.0996 10.928C35.4145 10.939 35.601 10.9322 35.9246 10.9111C36.2481 10.89 36.4145 10.8886 36.7163 10.8235C37.0192 10.7584 37.2992 10.6755 37.4356 10.5867C37.5732 10.4979 37.5558 10.42 37.4014 10.3817C37.246 10.3432 36.9612 10.3831 36.6618 10.3947C36.3624 10.4063 36.2109 10.4348 35.904 10.442C35.5972 10.4481 35.4251 10.4499 35.1266 10.4284C34.828 10.4069 34.674 10.3663 34.4133 10.3348C34.1538 10.3035 34.0278 10.286 33.8268 10.2714C33.6249 10.2556 33.5362 10.251 33.4077 10.2607C33.2802 10.2717 33.2403 10.2791 33.1888 10.3228C33.1374 10.3655 33.1217 10.4161 33.1503 10.4783Z" fill="#656661" stroke="#656661" stroke-width="0.6"/>
<path d="M40.5199 5.89883C40.4666 5.9561 40.4666 6.01798 40.4192 6.18028C40.373 6.34273 40.3426 6.44422 40.2862 6.71191C40.2287 6.97834 40.2086 7.15106 40.1341 7.51381C40.0606 7.87784 40.0103 8.0982 39.9133 8.52795C39.8175 8.95784 39.7654 9.20089 39.6535 9.66651C39.5406 10.1309 39.4725 10.3822 39.3532 10.8525C39.235 11.3219 39.1747 11.5662 39.0604 12.0155C38.9447 12.4657 38.8775 12.6931 38.7787 13.1019C38.6811 13.5098 38.6316 13.7062 38.5688 14.0579C38.5061 14.4096 38.4767 14.5834 38.4649 14.8603C38.4529 15.1384 38.4639 15.2567 38.5095 15.4448C38.5563 15.6319 38.6158 15.7026 38.6953 15.7966C38.7736 15.8915 38.8466 15.9113 38.9055 15.9166C38.9643 15.9231 38.9884 15.8781 38.9891 15.8289C38.9897 15.7797 38.9364 15.7579 38.9065 15.6704C38.8766 15.5828 38.8504 15.5462 38.8387 15.3889C38.8281 15.2317 38.8288 15.1378 38.8491 14.8837C38.8683 14.6296 38.8891 14.4604 38.938 14.1184C38.988 13.7765 39.0149 13.5783 39.0983 13.1732C39.1819 12.7669 39.2469 12.5393 39.3556 12.0893C39.4653 11.6405 39.5245 11.3961 39.646 10.9272C39.7664 10.458 39.838 10.2061 39.9609 9.74415C40.0837 9.28225 40.1402 9.04091 40.2616 8.61663C40.3821 8.19107 40.463 7.98269 40.5661 7.6202C40.6692 7.25772 40.7327 7.08604 40.7784 6.80434C40.824 6.52264 40.8133 6.39292 40.7956 6.21186C40.7779 6.02967 40.7423 5.95974 40.6873 5.89761C40.6325 5.83436 40.5741 5.84284 40.5199 5.89883Z" fill="#656661" stroke="#656661" stroke-width="0.6"/>
<path d="M42.2241 12.3926C42.1641 12.4318 42.1323 12.4735 42.0903 12.6033C42.0484 12.732 42.0182 12.8323 42.0145 13.0381C42.0096 13.2437 42.0169 13.3822 42.0672 13.6305C42.1174 13.8799 42.1594 14.0332 42.2634 14.2827C42.3686 14.5324 42.4423 14.6622 42.5928 14.88C42.7422 15.0976 42.8232 15.2066 43.014 15.37C43.205 15.5322 43.3188 15.6089 43.5472 15.6946C43.7756 15.7803 43.9052 15.8143 44.1572 15.7977C44.4101 15.7824 44.5496 15.7408 44.8088 15.6151C45.0669 15.4893 45.2082 15.3976 45.4497 15.1699C45.6912 14.9423 45.8038 14.7804 46.0175 14.4758C46.2311 14.1712 46.342 13.9701 46.5168 13.6467C46.6929 13.3223 46.7831 13.1392 46.8964 12.8571C47.0099 12.5739 47.0516 12.4292 47.086 12.2343C47.1204 12.0393 47.1139 11.9571 47.0697 11.8826C47.0255 11.8082 46.9541 11.7932 46.8651 11.8607C46.7762 11.9283 46.7069 12.0029 46.626 12.2205C46.5441 12.4367 46.5173 12.5994 46.4585 12.947C46.4008 13.2948 46.3928 13.516 46.3354 13.9589C46.2769 14.4017 46.2395 14.6547 46.1695 15.1601C46.0994 15.6655 46.0695 15.9401 45.9849 16.4872C45.8991 17.0341 45.8617 17.3409 45.744 17.8952C45.6276 18.4484 45.5659 18.7395 45.4013 19.2579C45.2367 19.7763 45.1446 20.0359 44.9226 20.485C44.7017 20.9342 44.5693 21.1508 44.2919 21.5056C44.0144 21.8604 43.8586 22.0109 43.5354 22.259C43.2123 22.5059 43.0273 22.5988 42.6751 22.7433C42.3228 22.889 42.1207 22.9362 41.7751 22.9854C41.4286 23.0333 41.2447 23.0198 40.9441 22.9877C40.6447 22.9546 40.5052 22.9171 40.2746 22.8219C40.0439 22.7278 39.9415 22.6515 39.7907 22.5151C39.6388 22.3785 39.5998 22.2818 39.5163 22.1392C39.4315 21.9976 39.4224 21.9174 39.3695 21.8039C39.3179 21.6895 39.3059 21.6135 39.2543 21.5701C39.2024 21.5279 39.1511 21.5258 39.1121 21.5884C39.0743 21.65 39.0489 21.7315 39.0617 21.8798C39.0736 22.0269 39.0794 22.1411 39.1735 22.3263C39.2665 22.5102 39.339 22.6319 39.5286 22.8043C39.7183 22.9767 39.8471 23.0701 40.1219 23.1871C40.3966 23.3041 40.5626 23.3588 40.9045 23.3905C41.2464 23.4222 41.4525 23.4145 41.8327 23.3458C42.214 23.2772 42.428 23.2178 42.8063 23.048C43.1846 22.8792 43.3817 22.773 43.7243 22.4989C44.0658 22.2246 44.2284 22.0577 44.5159 21.6779C44.8035 21.298 44.9362 21.07 45.162 20.6008C45.3876 20.1327 45.4783 19.866 45.6456 19.3354C45.8129 18.8048 45.8753 18.5092 45.9961 17.9485C46.1169 17.3877 46.1569 17.0789 46.2508 16.5308C46.3459 15.9828 46.378 15.7085 46.4669 15.2078C46.5571 14.7061 46.5999 14.4561 46.6982 14.0243C46.7966 13.5924 46.8771 13.3863 46.9587 13.0485C47.0392 12.7106 47.0809 12.5567 47.104 12.334C47.1273 12.1101 47.1082 12.0274 47.0737 11.9313C47.0403 11.8353 47.0025 11.8178 46.9348 11.8537C46.867 11.8907 46.8265 11.9462 46.7352 12.112C46.645 12.2768 46.602 12.4145 46.4827 12.6809C46.3624 12.946 46.3002 13.1339 46.1366 13.4416C45.9717 13.7502 45.8629 13.9447 45.6619 14.2223C45.4598 14.4998 45.3398 14.6298 45.128 14.8315C44.9175 15.0322 44.8081 15.1166 44.6077 15.2304C44.4073 15.3443 44.3096 15.382 44.1261 15.4006C43.9427 15.4193 43.8591 15.3924 43.6915 15.3237C43.5251 15.2552 43.4377 15.1957 43.2927 15.0589C43.1478 14.921 43.081 14.8264 42.9659 14.6361C42.8506 14.447 42.7926 14.3283 42.7157 14.1087C42.64 13.888 42.6231 13.7529 42.586 13.535C42.5491 13.3159 42.5553 13.1975 42.533 13.0159C42.512 12.8333 42.5085 12.7446 42.4796 12.6228C42.4506 12.5022 42.4394 12.456 42.3881 12.4093C42.3367 12.3637 42.283 12.3544 42.2241 12.3926Z" fill="#656661" stroke="#656661" stroke-width="0.6"/>
<path d="M59.1768 14.4356C59.1285 14.3572 59.0357 14.2958 58.8712 14.2207C58.7068 14.1455 58.6019 14.0884 58.3537 14.0585C58.1053 14.0298 57.9201 14.0172 57.6298 14.0736C57.3384 14.1298 57.1784 14.1973 56.9009 14.3401C56.6224 14.4816 56.4734 14.5792 56.2382 14.7848C56.0029 14.9915 55.89 15.1109 55.7237 15.3689C55.5586 15.626 55.4905 15.7799 55.4104 16.0709C55.3314 16.362 55.3077 16.5274 55.3265 16.8243C55.3444 17.12 55.3909 17.283 55.5013 17.554C55.6117 17.8249 55.6853 17.964 55.8762 18.1801C56.0671 18.3961 56.1983 18.4979 56.4545 18.6343C56.7118 18.7707 56.8738 18.8204 57.1604 18.8633C57.4471 18.9061 57.5931 18.9021 57.8867 18.8474C58.1803 18.7926 58.3463 18.7408 58.6281 18.5905C58.9113 18.4393 59.0617 18.3304 59.2983 18.0964C59.5362 17.8614 59.6475 17.7096 59.8149 17.4173C59.9834 17.1252 60.0589 16.9494 60.1407 16.6357C60.2215 16.3219 60.2315 16.1478 60.2232 15.8488C60.2137 15.5508 60.1755 15.4038 60.0983 15.1417C60.0211 14.8796 59.9618 14.7539 59.8374 14.5372C59.7131 14.3206 59.6351 14.2154 59.4755 14.0583C59.3172 13.9003 59.2147 13.8252 59.0425 13.7479C58.8714 13.6707 58.7177 13.6542 58.6191 13.6724C58.5205 13.6905 58.5034 13.7605 58.5495 13.8387C58.5965 13.9181 58.7255 13.9657 58.8522 14.067C58.9777 14.168 59.0548 14.2101 59.1805 14.3455C59.3063 14.4799 59.375 14.5598 59.4798 14.7418C59.5832 14.9248 59.6367 15.0338 59.7017 15.2576C59.7668 15.4803 59.801 15.6051 59.8037 15.8586C59.8077 16.1113 59.7947 16.2551 59.719 16.5214C59.6432 16.7878 59.5742 16.9404 59.4271 17.1906C59.2789 17.4419 59.1816 17.5736 58.9801 17.7756C58.7775 17.9773 58.6511 18.0687 58.4164 18.1998C58.1816 18.331 58.0444 18.3819 57.8054 18.4312C57.5677 18.4794 57.4541 18.4808 57.2238 18.4452C56.9935 18.4096 56.8619 18.3639 56.656 18.2548C56.4489 18.1466 56.3425 18.0743 56.1907 17.9022C56.0388 17.7302 55.9836 17.6165 55.8965 17.3955C55.8083 17.1743 55.7673 17.0395 55.7518 16.7969C55.7361 16.5554 55.7533 16.4224 55.8187 16.1834C55.8851 15.9445 55.9408 15.8153 56.0829 15.6034C56.2238 15.3913 56.3202 15.2927 56.5265 15.1246C56.7316 14.9564 56.8693 14.8757 57.1084 14.7634C57.3476 14.6512 57.4804 14.6077 57.7211 14.5632C57.9627 14.5201 58.1048 14.5373 58.3147 14.545C58.5234 14.5526 58.6058 14.5885 58.7655 14.6035C58.9253 14.6173 59.0322 14.6495 59.1146 14.6155C59.1967 14.5826 59.2261 14.5153 59.1768 14.4356Z" fill="#656661" stroke="#656661" stroke-width="0.6"/>
<path d="M63.7704 8.33392C63.7094 8.37988 63.6976 8.43564 63.6321 8.58758C63.5653 8.74049 63.5147 8.82102 63.4401 9.09667C63.3652 9.37345 63.3539 9.56678 63.2573 9.96792C63.1617 10.3692 63.0949 10.6195 62.959 11.1026C62.823 11.5858 62.7261 11.8563 62.5801 12.3816C62.433 12.9069 62.3587 13.1974 62.2267 13.7292C62.0959 14.2611 62.0345 14.5408 61.9229 15.0397C61.8112 15.5386 61.7662 15.7974 61.6709 16.224C61.5744 16.6503 61.5025 16.8599 61.4425 17.1729C61.3826 17.4849 61.3675 17.6193 61.3722 17.786C61.3757 17.9538 61.4003 17.9937 61.4637 18.0087C61.5269 18.025 61.5829 17.991 61.6886 17.8649C61.7932 17.7386 61.8598 17.6223 61.992 17.3805C62.123 17.1385 62.1769 16.9438 62.3449 16.6551C62.5128 16.3674 62.6175 16.1965 62.8329 15.9402C63.0472 15.6838 63.178 15.5587 63.4197 15.3734C63.6604 15.1869 63.7944 15.108 64.0387 15.009C64.283 14.9101 64.414 14.8892 64.6413 14.8774C64.8676 14.8644 64.9814 14.8791 65.1731 14.9475C65.3659 15.016 65.46 15.0763 65.603 15.2198C65.7449 15.363 65.8035 15.4589 65.8845 15.6653C65.9667 15.8708 66.0027 16.0084 66.0126 16.2503C66.0225 16.4922 66.0064 16.6253 65.9337 16.8772C65.86 17.1277 65.7998 17.2735 65.6459 17.5068C65.493 17.7402 65.3883 17.8676 65.1681 18.0453C64.9469 18.2229 64.8117 18.2844 64.544 18.3964C64.2762 18.5084 64.119 18.5545 63.8316 18.6055C63.5433 18.6552 63.3835 18.6597 63.1032 18.6474C62.824 18.6353 62.6835 18.5873 62.4324 18.5445C62.1826 18.5007 61.9801 18.4183 61.8501 18.4312C61.7202 18.443 61.6868 18.5063 61.7828 18.6058C61.8787 18.7054 62.0687 18.8308 62.3278 18.9274C62.5869 19.024 62.7613 19.0661 63.0781 19.0888C63.3937 19.1114 63.5812 19.0967 63.9083 19.0394C64.2345 18.9808 64.4064 18.9275 64.7133 18.7965C65.02 18.6667 65.1814 18.597 65.4421 18.389C65.7041 18.1801 65.8379 18.0324 66.0218 17.7537C66.2056 17.4762 66.2748 17.3041 66.3612 17.0002C66.4477 16.6951 66.4703 16.5296 66.4542 16.2296C66.4381 15.9296 66.3961 15.758 66.282 15.498C66.1679 15.238 66.0796 15.1142 65.8834 14.9307C65.6884 14.7461 65.5566 14.6672 65.3047 14.5772C65.0526 14.4884 64.9067 14.4741 64.6236 14.4833C64.3404 14.4935 64.1824 14.5189 63.891 14.6278C63.5983 14.7377 63.44 14.8272 63.1626 15.0319C62.8851 15.2366 62.7541 15.3812 62.5048 15.6514C62.2556 15.9204 62.1199 16.0839 61.9151 16.3817C61.7104 16.6794 61.5912 16.8656 61.479 17.1387C61.367 17.4107 61.3601 17.5702 61.3561 17.7427C61.352 17.9152 61.4018 17.9824 61.4588 18.0024C61.5156 18.0235 61.5661 17.9968 61.6417 17.8462C61.7161 17.6965 61.7665 17.5644 61.8333 17.2522C61.9013 16.9391 61.9052 16.715 61.9772 16.2831C62.0501 15.8526 62.0915 15.5955 62.1938 15.0977C62.2961 14.5999 62.3561 14.3224 62.4876 13.794C62.619 13.2667 62.6941 12.9785 62.8507 12.4602C63.0074 11.9408 63.1095 11.6745 63.2686 11.1978C63.4288 10.7224 63.5215 10.4754 63.6507 10.0796C63.7812 9.68288 63.8529 9.50081 63.9182 9.21821C63.9847 8.93464 63.9805 8.8344 63.9833 8.66287C63.986 8.49134 63.9762 8.4259 63.9332 8.3596C63.8901 8.29443 63.83 8.28895 63.7704 8.33392Z" fill="#656661" stroke="#656661" stroke-width="0.6"/>
<path d="M71.118 14.214C71.0666 14.142 71.0058 14.0803 70.814 14.013C70.6222 13.9458 70.46 13.8973 70.1588 13.8789C69.8573 13.8616 69.6507 13.8737 69.3059 13.9253C68.9625 13.9759 68.7527 14.0209 68.4379 14.1337C68.123 14.2465 67.9519 14.3205 67.7331 14.4881C67.5131 14.6556 67.4202 14.7627 67.3405 14.9712C67.2618 15.1799 67.2658 15.2996 67.3379 15.5301C67.4089 15.7604 67.4961 15.8921 67.6975 16.1244C67.9 16.3569 68.07 16.4683 68.347 16.6921C68.6239 16.9159 68.8089 17.027 69.0824 17.2423C69.3549 17.4564 69.5038 17.5719 69.7115 17.7639C69.9183 17.9545 70.0173 18.0395 70.1182 18.1981C70.218 18.3566 70.23 18.4315 70.2103 18.5573C70.1904 18.6842 70.142 18.7306 70.0182 18.828C69.8956 18.9256 69.7963 18.9574 69.5924 19.0456C69.3898 19.1327 69.2486 19.1878 69.0001 19.2656C68.7528 19.3436 68.5995 19.3776 68.3527 19.4338C68.1059 19.4901 67.9742 19.4982 67.7675 19.5459C67.5595 19.5946 67.4034 19.6145 67.3155 19.6741C67.2264 19.7336 67.2267 19.7932 67.3232 19.8447C67.4198 19.895 67.5764 19.9153 67.7993 19.9282C68.0224 19.9399 68.1655 19.9412 68.4361 19.9041C68.7078 19.8683 68.8794 19.8344 69.1534 19.745C69.4273 19.6567 69.578 19.5903 69.8034 19.4602C70.0289 19.329 70.1385 19.2619 70.2822 19.0903C70.4257 18.9198 70.4919 18.8161 70.5227 18.6046C70.5535 18.3932 70.5371 18.2639 70.4363 18.0331C70.3355 17.8035 70.2331 17.6825 70.0185 17.4553C69.804 17.227 69.6369 17.1194 69.3626 16.8925C69.0894 16.6669 68.9129 16.5432 68.6479 16.3243C68.3842 16.1045 68.2384 15.9825 68.0401 15.7975C67.843 15.6116 67.7451 15.5359 67.6603 15.3943C67.5767 15.2528 67.5613 15.2038 67.6196 15.0899C67.6769 14.9747 67.757 14.9221 67.9498 14.8233C68.1425 14.7245 68.2984 14.6702 68.5834 14.5937C68.8684 14.5161 69.0608 14.4734 69.3737 14.4372C69.6878 14.4011 69.8733 14.4194 70.148 14.4126C70.4239 14.4059 70.5674 14.4131 70.7529 14.405C70.9384 14.397 71.0018 14.4121 71.0744 14.3734C71.148 14.3359 71.1704 14.2872 71.118 14.214Z" fill="#656661" stroke="#656661" stroke-width="0.6"/>
<path d="M72.7665 18.2771C72.8333 18.3362 72.9203 18.3727 73.1055 18.3933C73.2895 18.4148 73.4242 18.4277 73.6903 18.3819C73.955 18.3372 74.1282 18.2828 74.4322 18.1652C74.7361 18.0488 74.9007 17.9635 75.2087 17.7972C75.5167 17.6309 75.6735 17.5263 75.9702 17.3321C76.267 17.1379 76.4378 17.0398 76.6925 16.8253C76.9472 16.6107 77.0788 16.488 77.2436 16.2596C77.4083 16.0322 77.4743 15.9033 77.516 15.6875C77.5566 15.4716 77.5455 15.3533 77.4488 15.1804C77.352 15.0074 77.2642 14.9158 77.0343 14.8242C76.8033 14.7323 76.6338 14.6875 76.2969 14.7229C75.9587 14.7593 75.7369 14.844 75.345 15.0029C74.9542 15.1631 74.722 15.2831 74.3394 15.5211C73.9578 15.7605 73.753 15.9081 73.4348 16.1969C73.1165 16.4868 72.9523 16.6489 72.7506 16.9676C72.5488 17.2864 72.4763 17.4661 72.4259 17.793C72.3754 18.121 72.4032 18.3045 72.4984 18.6045C72.5945 18.9057 72.6825 19.0581 72.9047 19.2977C73.1259 19.536 73.3128 19.6416 73.6051 19.7998C73.8974 19.958 74.0987 20.023 74.3666 20.0864C74.6336 20.1485 74.8191 20.1405 74.943 20.113C75.0658 20.0853 75.0726 20.0324 74.9848 19.9499C74.8967 19.8686 74.7326 19.8176 74.5021 19.7041C74.2718 19.5894 74.0931 19.5181 73.8328 19.3778C73.5727 19.2364 73.3967 19.1792 73.2009 19.0015C73.0064 18.8227 72.9376 18.7164 72.8575 18.486C72.7762 18.2555 72.7577 18.1156 72.7978 17.8503C72.8388 17.5864 72.8873 17.4425 73.0609 17.1637C73.2357 16.885 73.3781 16.7235 73.6714 16.4579C73.965 16.1911 74.1648 16.0462 74.5283 15.8321C74.8918 15.6179 75.1252 15.5141 75.4899 15.3883C75.8555 15.2638 76.0683 15.249 76.3553 15.2094C76.6434 15.17 76.7596 15.1667 76.9283 15.1909C77.0972 15.2139 77.1459 15.2454 77.1993 15.328C77.2518 15.4092 77.2493 15.4639 77.1939 15.6C77.1386 15.7349 77.0808 15.8271 76.9227 16.0037C76.7648 16.1792 76.6432 16.286 76.4059 16.481C76.1688 16.6749 76.0164 16.7904 75.736 16.9729C75.4556 17.1566 75.2998 17.2533 75.004 17.396C74.7072 17.5374 74.5386 17.5832 74.2543 17.6816C73.9698 17.7811 73.8162 17.8253 73.5821 17.8901C73.3469 17.9547 73.2441 17.9609 73.0817 18.0029C72.9192 18.0448 72.8355 18.0454 72.7722 18.1003C72.709 18.1551 72.6997 18.2181 72.7665 18.2771Z" fill="#656661" stroke="#656661" stroke-width="0.6"/>
<path d="M82.374 15.9388C82.3362 15.8766 82.2994 15.8249 82.1535 15.7831C82.0077 15.7413 81.8819 15.7124 81.6449 15.7286C81.4069 15.7436 81.2436 15.7752 80.9666 15.8607C80.6884 15.9473 80.5277 16.0296 80.2564 16.1595C79.9841 16.2892 79.8272 16.3594 79.6058 16.5117C79.3845 16.663 79.2766 16.7441 79.1495 16.9201C79.0212 17.0972 78.9756 17.2012 78.9655 17.3936C78.9565 17.5872 78.9852 17.7021 79.1033 17.887C79.2202 18.0729 79.3294 18.1581 79.5524 18.321C79.7753 18.484 79.9257 18.5619 80.2189 18.7042C80.5133 18.8466 80.704 18.9045 81.0206 19.0349C81.3371 19.1653 81.5162 19.2332 81.8015 19.3573C82.0858 19.4801 82.2346 19.5521 82.4448 19.6549C82.655 19.7566 82.7597 19.8069 82.8548 19.8685C82.9501 19.9289 82.9579 19.9311 82.9222 19.9586C82.8875 19.9873 82.8312 19.9892 82.6795 20.0096C82.5269 20.0288 82.4144 20.0394 82.162 20.0594C81.9096 20.0794 81.7303 20.0929 81.4176 20.1096C81.106 20.1266 80.9197 20.1403 80.6017 20.1449C80.2837 20.1495 80.0994 20.1394 79.8288 20.1318C79.5581 20.1254 79.4364 20.1096 79.2495 20.1106C79.0627 20.1105 78.9971 20.1214 78.8968 20.1348C78.7954 20.148 78.7788 20.1527 78.7445 20.1781C78.7103 20.2034 78.705 20.2268 78.7278 20.263C78.7505 20.3003 78.7642 20.3181 78.8604 20.3627C78.9554 20.4082 79.0183 20.4439 79.2065 20.4866C79.3944 20.5304 79.5212 20.5514 79.7993 20.5806C80.0774 20.6098 80.2683 20.6219 80.5969 20.6335C80.9254 20.6452 81.1131 20.6466 81.4397 20.6373C81.7676 20.6271 81.9579 20.6357 82.2338 20.5844C82.5097 20.5331 82.6443 20.4852 82.8207 20.3797C82.9972 20.2731 83.0655 20.1971 83.1157 20.057C83.166 19.9168 83.1645 19.8307 83.0733 19.6768C82.982 19.524 82.8761 19.4392 82.6594 19.2897C82.4437 19.1414 82.2847 19.0681 81.993 18.9318C81.7026 18.7944 81.5129 18.7458 81.203 18.6083C80.8931 18.4707 80.7223 18.3832 80.4434 18.2451C80.1655 18.1083 80.022 18.0393 79.8127 17.9216C79.6046 17.803 79.5085 17.7573 79.4003 17.655C79.2923 17.5517 79.2681 17.5084 79.2719 17.4081C79.2757 17.3078 79.3085 17.2581 79.4215 17.1559C79.5344 17.0537 79.6305 17.0019 79.838 16.8948C80.0454 16.7887 80.2026 16.7254 80.46 16.6224C80.7174 16.5194 80.8728 16.4525 81.123 16.3783C81.3744 16.3043 81.5107 16.2956 81.7146 16.2521C81.9172 16.2096 82.0128 16.1968 82.1395 16.1651C82.2651 16.1333 82.2965 16.1385 82.3437 16.093C82.3908 16.0476 82.4129 16.0012 82.374 15.9388Z" fill="#656661" stroke="#656661" stroke-width="0.6"/>
<path d="M88.1573 16.4473C88.1208 16.375 88.062 16.3158 87.9113 16.2493C87.7596 16.1827 87.655 16.1405 87.4027 16.1158C87.1505 16.09 86.9642 16.0865 86.6491 16.1213C86.3341 16.1561 86.1503 16.2125 85.8285 16.2911C85.5055 16.3696 85.3256 16.4139 85.0373 16.5163C84.7503 16.6178 84.594 16.6651 84.391 16.7992C84.1869 16.9332 84.1032 17.0129 84.0197 17.1888C83.935 17.3647 83.9203 17.4693 83.9701 17.6774C84.0199 17.8856 84.0783 18.01 84.2664 18.2292C84.4557 18.4485 84.6231 18.563 84.911 18.7734C85.1999 18.9838 85.3914 19.0717 85.7082 19.28C86.0238 19.4882 86.2034 19.5963 86.4938 19.8138C86.7842 20.0313 86.9426 20.1791 87.1577 20.3673C87.3741 20.5547 87.4734 20.6283 87.5741 20.7536C87.6734 20.8799 87.6872 20.9149 87.6592 20.9984C87.6324 21.082 87.5837 21.1124 87.4363 21.1712C87.2889 21.23 87.161 21.2444 86.9231 21.2938C86.6854 21.342 86.5245 21.3808 86.2461 21.4157C85.9677 21.4507 85.7943 21.4626 85.5334 21.4689C85.2713 21.4751 85.1321 21.4616 84.9394 21.4458C84.7466 21.43 84.653 21.4098 84.5674 21.3896C84.4818 21.3693 84.495 21.3642 84.5113 21.3445C84.5265 21.3247 84.5885 21.3327 84.6445 21.2896C84.7005 21.2464 84.789 21.2006 84.7915 21.1276C84.7941 21.0546 84.7373 20.9452 84.6595 20.926C84.5808 20.9055 84.4731 20.9499 84.3997 21.0298C84.3252 21.1095 84.2856 21.2029 84.2883 21.3236C84.2897 21.4453 84.2963 21.5275 84.4118 21.6352C84.5263 21.7418 84.6384 21.7964 84.8618 21.8586C85.084 21.9217 85.236 21.9334 85.5252 21.948C85.8143 21.9625 86.0008 21.9649 86.3064 21.9323C86.6121 21.8986 86.7879 21.8687 87.0548 21.7806C87.3216 21.6937 87.4699 21.6373 87.6408 21.4945C87.8117 21.3516 87.8701 21.2457 87.9118 21.0655C87.9546 20.8854 87.9435 20.7946 87.8516 20.5925C87.7599 20.3892 87.6766 20.2719 87.4543 20.0506C87.2322 19.8281 87.0416 19.7072 86.7406 19.4837C86.4384 19.26 86.2529 19.1524 85.9444 18.9336C85.6371 18.7139 85.4668 18.5956 85.1991 18.389C84.9314 18.1824 84.7883 18.0665 84.6056 17.9019C84.4219 17.7371 84.349 17.6807 84.2814 17.5654C84.215 17.4502 84.213 17.4121 84.2712 17.3257C84.3293 17.2404 84.3925 17.212 84.574 17.1381C84.7542 17.0652 84.9029 17.0317 85.1747 16.9592C85.4475 16.888 85.6304 16.8384 85.9362 16.7772C86.2431 16.7172 86.418 16.6849 86.7072 16.6548C86.9966 16.6235 87.1582 16.6319 87.3838 16.6244C87.6083 16.6157 87.6892 16.6193 87.8317 16.616C87.9743 16.6127 88.0322 16.6431 88.0973 16.6092C88.1625 16.5752 88.195 16.5187 88.1573 16.4473Z" fill="#656661" stroke="#656661" stroke-width="0.6"/>
<path d="M90.4534 20.242C90.4677 20.3171 90.5148 20.3874 90.6203 20.4572C90.7259 20.5271 90.8093 20.5642 90.9821 20.5923C91.1539 20.6192 91.2627 20.6195 91.4805 20.5928C91.6984 20.5648 91.8242 20.5399 92.0713 20.455C92.3195 20.3703 92.47 20.305 92.718 20.1687C92.9661 20.0313 93.1028 19.9401 93.3113 19.7723C93.52 19.6034 93.6271 19.5199 93.762 19.3277C93.8968 19.1366 93.9562 19.0229 93.9887 18.8162C94.0202 18.6083 94.0126 18.4813 93.9227 18.2909C93.8317 18.1003 93.7353 17.995 93.5333 17.8646C93.3325 17.7343 93.1851 17.6865 92.9149 17.6412C92.6436 17.5946 92.4862 17.5891 92.1803 17.6331C91.8732 17.677 91.6814 17.7243 91.3795 17.8616C91.0786 17.9991 90.9243 18.1109 90.6725 18.3212C90.4194 18.5325 90.3114 18.6583 90.1156 18.9137C89.9197 19.1702 89.8068 19.3068 89.6908 19.6011C89.5749 19.8944 89.5401 20.0652 89.5356 20.3831C89.5299 20.701 89.546 20.8864 89.6662 21.1884C89.785 21.4914 89.9061 21.6538 90.1326 21.8951C90.359 22.1376 90.5511 22.2645 90.7997 22.3975C91.0482 22.5317 91.2437 22.5616 91.3751 22.5649C91.5066 22.567 91.5242 22.5109 91.4547 22.4102C91.3854 22.3084 91.2255 22.2247 91.0293 22.0583C90.8333 21.8908 90.6689 21.7801 90.4745 21.5739C90.28 21.3677 90.1618 21.263 90.0573 21.026C89.9528 20.789 89.9476 20.6439 89.9518 20.3901C89.956 20.1363 89.9784 19.9994 90.0795 19.7581C90.1807 19.5168 90.2807 19.3991 90.4557 19.1812C90.6317 18.9633 90.7327 18.8469 90.9551 18.6695C91.1787 18.4911 91.3137 18.4043 91.5715 18.2899C91.8302 18.1767 91.9942 18.1407 92.249 18.1015C92.5038 18.0635 92.6312 18.0708 92.8454 18.0974C93.0608 18.1242 93.1692 18.1634 93.3214 18.2359C93.4724 18.3082 93.5394 18.357 93.603 18.4591C93.6675 18.5626 93.6718 18.6262 93.642 18.7507C93.611 18.875 93.5716 18.949 93.4503 19.0799C93.3292 19.2098 93.2307 19.2715 93.0375 19.4011C92.8442 19.5308 92.7078 19.6105 92.4818 19.7279C92.2559 19.8441 92.1214 19.9092 91.9076 19.9846C91.6938 20.0612 91.5882 20.0796 91.4115 20.1083C91.2359 20.1371 91.1566 20.1302 91.0275 20.1273C90.8971 20.1253 90.8584 20.1054 90.7635 20.0954C90.6684 20.0865 90.6133 20.0518 90.5511 20.0804C90.4899 20.1103 90.4391 20.1668 90.4534 20.242Z" fill="#656661" stroke="#656661" stroke-width="0.6"/>
<path d="M98.0377 19.2452C98.0063 19.1689 97.9471 19.104 97.8065 19.0308C97.6647 18.9574 97.5583 18.9035 97.331 18.8798C97.1038 18.8561 96.9494 18.8624 96.6701 18.9133C96.3896 18.964 96.2257 19.0001 95.9309 19.1349C95.6362 19.2698 95.4653 19.3771 95.194 19.5872C94.9238 19.7974 94.7792 19.923 94.578 20.1846C94.3778 20.4474 94.2814 20.6079 94.1889 20.8973C94.0975 21.1868 94.0844 21.3501 94.1208 21.6344C94.1572 21.9199 94.2175 22.0732 94.3698 22.3221C94.521 22.5698 94.6374 22.6971 94.8812 22.8766C95.1251 23.0548 95.2858 23.1318 95.5889 23.2158C95.8931 23.2999 96.0736 23.3221 96.4003 23.2945C96.7282 23.2671 96.9119 23.2199 97.228 23.0798C97.544 22.9397 97.6997 22.835 97.9807 22.5941C98.2617 22.3532 98.3916 22.2085 98.6329 21.8765C98.8741 21.5445 98.9854 21.3401 99.1856 20.9363C99.387 20.5315 99.4799 20.3007 99.6377 19.8524C99.7955 19.4042 99.8552 19.1553 99.9755 18.6953C100.096 18.2343 100.149 17.9947 100.24 17.5504C100.332 17.1063 100.37 16.8832 100.432 16.4753C100.494 16.0685 100.51 15.8621 100.551 15.5121C100.59 15.1632 100.612 14.9953 100.632 14.7285C100.65 14.4616 100.671 14.3394 100.646 14.178C100.621 14.0167 100.579 13.946 100.507 13.9206C100.435 13.8963 100.379 13.9166 100.284 14.0543C100.187 14.1919 100.114 14.3005 100.024 14.6085C99.9336 14.9154 99.915 15.1479 99.8311 15.5919C99.7471 16.0371 99.7042 16.3146 99.6044 16.8287C99.5044 17.344 99.4371 17.6332 99.3302 18.166C99.2245 18.6989 99.1607 18.9793 99.0714 19.4914C98.9833 20.0037 98.9474 20.2626 98.8885 20.7259C98.8295 21.1904 98.8049 21.4244 98.7779 21.8093C98.7511 22.1932 98.7412 22.3672 98.755 22.6497C98.7687 22.9334 98.7969 23.0516 98.8446 23.2228C98.8923 23.394 98.9415 23.4302 98.9937 23.5045C99.0461 23.5778 99.0709 23.581 99.1075 23.5903C99.144 23.6008 99.1622 23.5837 99.1766 23.5523C99.1908 23.5221 99.1806 23.5127 99.1778 23.4367C99.1741 23.3595 99.1689 23.329 99.1599 23.1686C99.1509 23.0081 99.1391 22.9046 99.1315 22.6355C99.1239 22.3675 99.1111 22.2009 99.1208 21.8251C99.1304 21.4505 99.1378 21.2166 99.1821 20.7594C99.2265 20.3022 99.2586 20.0451 99.3439 19.5371C99.428 19.03 99.4915 18.7518 99.6047 18.2233C99.7179 17.6948 99.7867 17.4024 99.9085 16.8956C100.032 16.3879 100.09 16.1136 100.216 15.6841C100.341 15.2547 100.46 15.0557 100.536 14.7482C100.614 14.4398 100.614 14.3057 100.602 14.1448C100.589 13.984 100.53 13.9407 100.476 13.9429C100.423 13.9452 100.382 14.0052 100.332 14.1546C100.284 14.3042 100.264 14.4254 100.231 14.6892C100.199 14.9543 100.197 15.1283 100.171 15.4767C100.145 15.825 100.149 16.0285 100.102 16.4314C100.054 16.8331 100.019 17.052 99.9347 17.4892C99.8493 17.9273 99.7978 18.1658 99.6786 18.6168C99.5604 19.069 99.499 19.3131 99.3409 19.7464C99.1828 20.1796 99.0876 20.4011 98.8867 20.7841C98.6871 21.1662 98.574 21.3578 98.3414 21.6588C98.11 21.9588 97.984 22.0823 97.7271 22.2874C97.4692 22.4911 97.3275 22.5679 97.0548 22.6827C96.7834 22.7965 96.6348 22.8379 96.3649 22.8603C96.095 22.8826 95.9511 22.8616 95.7054 22.7943C95.4586 22.7268 95.3328 22.6635 95.1342 22.5243C94.9368 22.3853 94.8428 22.2883 94.7171 22.1002C94.5914 21.912 94.5373 21.7984 94.5078 21.5838C94.4793 21.3704 94.4889 21.2524 94.5729 21.0284C94.657 20.8044 94.7455 20.6784 94.9266 20.4658C95.1078 20.2521 95.2391 20.1407 95.4797 19.9645C95.7204 19.7871 95.8736 19.6924 96.1299 19.5801C96.3861 19.4689 96.5252 19.448 96.7598 19.4062C96.9945 19.3633 97.1164 19.3687 97.3033 19.3678C97.4901 19.3679 97.5621 19.3956 97.6939 19.4046C97.8269 19.4127 97.8964 19.4423 97.9646 19.411C98.0341 19.3788 98.069 19.3215 98.0377 19.2452Z" fill="#656661" stroke="#656661" stroke-width="0.6"/>
<path d="M109.329 19.6933C109.265 19.764 109.239 19.8661 109.192 20.0581C109.144 20.2513 109.127 20.3856 109.089 20.6567C109.051 20.928 109.028 21.1025 109 21.4141C108.971 21.7266 108.966 21.907 108.947 22.2174C108.929 22.5278 108.916 22.6831 108.909 22.9675C108.903 23.2532 108.892 23.3962 108.914 23.642C108.937 23.889 108.952 24.0147 109.023 24.2004C109.092 24.387 109.144 24.4693 109.265 24.5744C109.387 24.6784 109.467 24.7151 109.632 24.7239C109.796 24.7314 109.905 24.7112 110.088 24.6134C110.27 24.5155 110.373 24.42 110.544 24.2336C110.714 24.0471 110.795 23.9063 110.942 23.679C111.09 23.453 111.17 23.3133 111.284 23.1C111.398 22.8867 111.463 22.7714 111.509 22.6123C111.556 22.4534 111.545 22.3558 111.516 22.3027C111.485 22.2505 111.408 22.2578 111.359 22.35C111.31 22.4421 111.267 22.5603 111.272 22.7626C111.276 22.966 111.309 23.1159 111.382 23.3636C111.453 23.6123 111.509 23.7571 111.628 24.0039C111.746 24.2518 111.823 24.3901 111.972 24.6008C112.121 24.8115 112.203 24.9035 112.371 25.0571C112.538 25.2105 112.625 25.2813 112.808 25.3693C112.991 25.4571 113.089 25.4939 113.283 25.4984C113.476 25.5028 113.586 25.4872 113.775 25.3914C113.964 25.2955 114.065 25.2147 114.224 25.0199C114.385 24.8252 114.445 24.6853 114.576 24.4169C114.706 24.1484 114.77 23.9894 114.876 23.6788C114.98 23.3681 115.03 23.1844 115.1 22.8633C115.167 22.5432 115.182 22.3675 115.216 22.0763C115.251 21.784 115.27 21.6547 115.271 21.404C115.274 21.1534 115.259 21.015 115.226 20.8229C115.194 20.6297 115.16 20.5565 115.109 20.441C115.057 20.3254 115.022 20.2785 114.97 20.2465C114.919 20.2136 114.881 20.2281 114.852 20.2783C114.824 20.3285 114.832 20.3822 114.828 20.4986C114.825 20.6161 114.827 20.6841 114.834 20.8637C114.84 21.0433 114.869 21.164 114.86 21.3942C114.851 21.6245 114.831 21.7434 114.786 22.0161C114.742 22.2887 114.714 22.4571 114.639 22.7578C114.563 23.0574 114.511 23.2283 114.41 23.5187C114.308 23.8092 114.24 23.9631 114.13 24.209C114.02 24.456 113.972 24.5815 113.861 24.7506C113.752 24.9198 113.696 24.9778 113.583 25.0548C113.468 25.1316 113.413 25.1394 113.294 25.1354C113.174 25.1302 113.112 25.1049 112.985 25.0312C112.857 24.9573 112.785 24.8998 112.657 24.764C112.53 24.6296 112.46 24.5461 112.346 24.356C112.231 24.1646 112.167 24.0395 112.085 23.811C112.002 23.5826 111.99 23.4424 111.933 23.215C111.875 22.9875 111.857 22.8545 111.795 22.6735C111.735 22.4927 111.705 22.4005 111.627 22.3091C111.55 22.2166 111.505 22.1901 111.41 22.2134C111.316 22.2355 111.264 22.2929 111.155 22.421C111.046 22.5489 110.996 22.6582 110.867 22.8512C110.738 23.0452 110.651 23.1796 110.509 23.3891C110.365 23.5985 110.284 23.7267 110.149 23.8983C110.016 24.0712 109.946 24.1493 109.839 24.2522C109.73 24.3539 109.686 24.3871 109.613 24.4098C109.541 24.4313 109.522 24.4266 109.475 24.3632C109.428 24.2999 109.409 24.2435 109.38 24.0943C109.35 23.9449 109.334 23.8374 109.328 23.6165C109.321 23.3945 109.327 23.2589 109.344 22.9872C109.362 22.7146 109.382 22.5613 109.417 22.2576C109.45 21.9537 109.478 21.7773 109.514 21.4681C109.55 21.1576 109.582 20.983 109.598 20.7078C109.614 20.4314 109.613 20.2903 109.594 20.0897C109.577 19.8892 109.562 19.7852 109.509 19.7051C109.456 19.626 109.392 19.6224 109.329 19.6933Z" fill="#656661" stroke="#656661" stroke-width="0.6"/>
<path d="M116.535 21.8909C116.468 21.9314 116.437 21.9881 116.365 22.1313C116.294 22.2744 116.251 22.3754 116.177 22.6088C116.103 22.842 116.058 23.0035 115.994 23.2967C115.932 23.5911 115.909 23.7692 115.863 24.0784C115.816 24.3863 115.787 24.5532 115.762 24.841C115.737 25.1289 115.717 25.2992 115.739 25.5175C115.761 25.7346 115.805 25.8274 115.871 25.9322C115.937 26.0359 116.004 26.0331 116.07 26.0382C116.137 26.0435 116.191 25.9933 116.203 25.9581C116.214 25.9229 116.153 25.8679 116.128 25.8613C116.103 25.8535 116.079 25.9203 116.078 25.9213C116.077 25.9223 116.105 25.9442 116.12 25.8637C116.136 25.7821 116.135 25.7098 116.157 25.5167C116.178 25.3223 116.188 25.1643 116.226 24.8931C116.264 24.6218 116.288 24.4577 116.346 24.1616C116.404 23.8654 116.449 23.6993 116.515 23.4135C116.582 23.1288 116.637 22.9742 116.681 22.736C116.727 22.4989 116.737 22.3857 116.741 22.2246C116.744 22.0635 116.741 21.9978 116.7 21.9305C116.659 21.8645 116.602 21.8514 116.535 21.8909Z" fill="#656661" stroke="#656661" stroke-width="0.6"/>
<path d="M117.535 18.0803C117.578 18.1318 117.627 18.1542 117.649 18.141C117.671 18.1266 117.67 18.0715 117.642 18.0106C117.616 17.9499 117.559 17.8852 117.515 17.8382C117.47 17.7912 117.436 17.7639 117.42 17.7732C117.404 17.7837 117.411 17.8248 117.434 17.8862C117.457 17.9465 117.492 18.029 117.535 18.0803Z" fill="#656661" stroke="#656661" stroke-width="0.6"/>
<path d="M120.608 17.6424C120.552 17.72 120.547 17.8213 120.502 18.0274C120.455 18.2334 120.428 18.3559 120.379 18.6738C120.331 18.9919 120.323 19.2017 120.258 19.6173C120.194 20.0318 120.143 20.2841 120.056 20.7496C119.969 21.2162 119.92 21.4573 119.826 21.9471C119.732 22.4367 119.682 22.7236 119.59 23.1975C119.497 23.6725 119.45 23.9105 119.363 24.3209C119.275 24.7312 119.21 24.9347 119.152 25.2503C119.093 25.5658 119.086 25.7001 119.069 25.8974C119.054 26.0936 119.065 26.1443 119.071 26.2368C119.079 26.3294 119.086 26.3316 119.106 26.3593C119.126 26.3871 119.142 26.3914 119.171 26.3747C119.202 26.358 119.212 26.3605 119.258 26.2771C119.304 26.1936 119.344 26.1495 119.401 25.9586C119.457 25.7677 119.486 25.6373 119.542 25.3227C119.601 25.0071 119.619 24.7963 119.687 24.3824C119.756 23.9684 119.799 23.7289 119.886 23.2542C119.973 22.7785 120.023 22.4927 120.121 22.0048C120.22 21.518 120.273 21.2784 120.377 20.8164C120.482 20.3533 120.548 20.1064 120.645 19.6914C120.741 19.2776 120.809 19.0734 120.858 18.7462C120.906 18.419 120.898 18.2748 120.884 18.0552C120.869 17.8344 120.839 17.7275 120.785 17.6448C120.73 17.5621 120.664 17.5661 120.608 17.6424Z" fill="#656661" stroke="#656661" stroke-width="0.6"/>
<path d="M119.273 22.8622C119.306 22.9202 119.344 22.9413 119.454 22.9887C119.562 23.036 119.636 23.0651 119.819 23.0968C120.001 23.1283 120.134 23.1352 120.364 23.1445C120.596 23.1538 120.717 23.1501 120.975 23.1423C121.234 23.1334 121.383 23.1447 121.655 23.1043C121.927 23.0651 122.08 23.0356 122.336 22.9416C122.592 22.8476 122.709 22.7814 122.937 22.6345C123.166 22.4888 123.273 22.4145 123.479 22.2097C123.687 22.0052 123.794 21.8839 123.973 21.6125C124.15 21.3421 124.224 21.1626 124.368 20.8547C124.513 20.5458 124.578 20.3801 124.696 20.0711C124.813 19.7619 124.877 19.596 124.955 19.3083C125.035 19.0218 125.069 18.8669 125.091 18.6337C125.112 18.4015 125.108 18.2921 125.063 18.1453C125.019 17.9987 124.97 17.9294 124.865 17.8998C124.761 17.8714 124.666 17.8877 124.538 18.0006C124.41 18.1135 124.33 18.2086 124.226 18.4621C124.122 18.7156 124.097 18.8923 124.018 19.2681C123.938 19.644 123.916 19.8932 123.829 20.3426C123.741 20.7918 123.685 21.0447 123.581 21.5147C123.476 21.9835 123.413 22.2333 123.306 22.6892C123.199 23.1451 123.145 23.3811 123.044 23.7942C122.942 24.2084 122.881 24.4114 122.799 24.7582C122.716 25.1061 122.663 25.2654 122.627 25.5301C122.593 25.7949 122.593 25.9187 122.625 26.0832C122.655 26.2464 122.696 26.3044 122.781 26.3499C122.868 26.3955 122.93 26.3875 123.056 26.3121C123.181 26.2378 123.261 26.1577 123.41 25.9752C123.557 25.7915 123.63 25.6474 123.795 25.3972C123.962 25.1472 124.037 24.9886 124.241 24.7262C124.443 24.4648 124.571 24.3198 124.81 24.086C125.047 23.8521 125.19 23.7423 125.431 23.5557C125.671 23.3692 125.801 23.2817 126.013 23.1545C126.226 23.0274 126.334 22.9773 126.492 22.9197C126.648 22.8621 126.709 22.8539 126.796 22.8664C126.884 22.8789 126.903 22.894 126.929 22.9844C126.956 23.0739 126.942 23.1386 126.929 23.3179C126.918 23.4963 126.896 23.6173 126.866 23.8792C126.835 24.1422 126.811 24.3144 126.777 24.6285C126.742 24.9437 126.723 25.1315 126.693 25.4519C126.664 25.7724 126.658 25.939 126.631 26.2333C126.603 26.5265 126.572 26.6669 126.555 26.9214C126.539 27.176 126.534 27.3048 126.547 27.5047C126.559 27.7045 126.579 27.7873 126.618 27.9207C126.657 28.0552 126.686 28.1278 126.739 28.1747C126.79 28.2214 126.84 28.2107 126.876 28.1546C126.912 28.0974 126.907 28.0211 126.918 27.8908C126.93 27.7606 126.925 27.6901 126.937 27.5037C126.948 27.316 126.945 27.2011 126.971 26.9569C126.998 26.7129 127.031 26.5728 127.069 26.2821C127.108 25.9926 127.121 25.8237 127.164 25.5049C127.207 25.1874 127.242 25.0074 127.284 24.6909C127.328 24.3745 127.359 24.2043 127.377 23.9248C127.393 23.6451 127.405 23.5125 127.371 23.2938C127.338 23.0752 127.307 22.9739 127.208 22.8326C127.107 22.6901 127.032 22.6369 126.871 22.5839C126.708 22.5318 126.609 22.527 126.396 22.5671C126.185 22.6084 126.058 22.6631 125.812 22.7904C125.564 22.9175 125.422 23.0057 125.161 23.2023C124.9 23.3999 124.762 23.5299 124.506 23.7751C124.251 24.0194 124.114 24.1677 123.882 24.4287C123.65 24.6897 123.529 24.8311 123.346 25.0823C123.161 25.3322 123.07 25.4729 122.962 25.6812C122.853 25.8882 122.825 25.9991 122.802 26.1177C122.779 26.2361 122.823 26.2796 122.849 26.2727C122.874 26.2656 122.898 26.2206 122.929 26.0848C122.962 25.9481 122.963 25.8406 123.009 25.591C123.056 25.3416 123.093 25.1836 123.163 24.8397C123.234 24.4949 123.273 24.2833 123.361 23.8674C123.45 23.4515 123.5 23.2151 123.606 22.759C123.713 22.303 123.776 22.0545 123.891 21.587C124.006 21.1195 124.067 20.8639 124.181 20.4225C124.294 19.98 124.355 19.7358 124.459 19.3781C124.563 19.0214 124.626 18.8725 124.701 18.6359C124.775 18.3992 124.805 18.3171 124.833 18.1946C124.86 18.0721 124.85 18.0273 124.836 18.022C124.82 18.0154 124.792 18.0529 124.761 18.1636C124.731 18.2731 124.731 18.3671 124.685 18.5709C124.638 18.7756 124.613 18.9178 124.531 19.1857C124.448 19.4534 124.389 19.6141 124.275 19.9088C124.16 20.2044 124.096 20.3692 123.957 20.6606C123.82 20.9522 123.741 21.1138 123.584 21.3639C123.428 21.6141 123.349 21.7277 123.175 21.9114C123.002 22.0951 122.912 22.1614 122.716 22.285C122.519 22.4084 122.417 22.4571 122.194 22.529C121.97 22.602 121.84 22.6207 121.596 22.6464C121.352 22.6721 121.214 22.6644 120.972 22.6595C120.732 22.6548 120.617 22.6375 120.395 22.6203C120.174 22.6031 120.047 22.5751 119.866 22.5735C119.685 22.5718 119.606 22.5867 119.49 22.6107C119.376 22.636 119.334 22.6478 119.291 22.6972C119.248 22.7477 119.242 22.8031 119.273 22.8622Z" fill="#656661" stroke="#656661" stroke-width="0.6"/>
</g>
<defs>
<clipPath id="clip0_1907_8648">
<rect width="127.428" height="18.59" fill="white" transform="translate(2.39062) rotate(7.38304)"/>
</clipPath>
</defs>
</svg>
