<svg width="97" height="105" viewBox="0 0 97 105" fill="none" xmlns="http://www.w3.org/2000/svg" role="img" aria-label="Post-it note saying Me!">
  <defs>
    <filter id="postit_filter" x="0" y="0" width="96.906" height="104.756" filterUnits="userSpaceOnUse" color-interpolation-filters="sRGB">
      <feFlood flood-opacity="0" result="BackgroundImageFix"/>
      <feColorMatrix in="SourceAlpha" type="matrix" values="0 0 0 0 0 0 0 0 0 0 0 0 0 0 0 0 0 0 127 0" result="hardAlpha"/>
      <feOffset dx="2.226" dy="1.113"/>
      <feGaussianBlur stdDeviation="2.226"/>
      <feComposite in2="hardAlpha" operator="out"/>
      <feColorMatrix type="matrix" values="0 0 0 0 0.448 0 0 0 0 0.448 0 0 0 0 0.448 0 0 0 0.25 0"/>
      <feBlend mode="normal" in2="BackgroundImageFix" result="effect1_dropShadow"/>
      <feBlend mode="normal" in="SourceGraphic" in2="effect1_dropShadow" result="shape"/>
    </filter>
    <linearGradient id="postit_grad" x1="35.066" y1="12.917" x2="39.727" y2="27.714" gradientUnits="userSpaceOnUse">
      <stop offset="0.873" stop-color="#F4DC60"/>
      <stop offset="1" stop-color="#FFE668"/>
    </linearGradient>
    <clipPath id="postit_clip">
      <rect width="49.491" height="34.065" fill="#fff" transform="translate(17.727 46.517) rotate(-16.798)"/>
    </clipPath>
  </defs>
  <g filter="url(#postit_filter)">
    <path d="M67.906 3.34L2.227 22.379L24.491 99.191L88.727 81.377L90.227 79.714L67.906 3.34Z" fill="#FFE668"/>
  </g>
  <path d="M67.906 3.34L2.227 22.379L6.727 37.714L72.015 17.283L67.906 3.34Z" fill="url(#postit_grad)"/>
  <g clip-path="url(#postit_clip)">
    <path d="M20.207 48.946C20.127 49.191 20.185 49.4 20.35 49.919C20.517 50.437 20.718 50.731 21.039 51.539C21.361 52.346 21.551 52.864 21.957 53.959C22.362 55.053 22.588 55.709 23.072 57.009C23.554 58.31 23.831 59.049 24.368 60.463C24.906 61.875 25.218 62.647 25.76 64.076C26.302 65.507 26.602 66.276 27.079 67.612C27.556 68.948 27.783 69.62 28.145 70.756C28.508 71.894 28.663 72.426 28.891 73.298C29.12 74.17 29.122 74.594 29.289 75.118C29.455 75.641 29.55 75.798 29.726 75.918C29.902 76.037 30.093 75.945 30.166 75.712C30.241 75.479 30.28 75.28 30.095 74.754C29.911 74.229 29.627 73.921 29.24 73.081C28.855 72.24 28.621 71.695 28.169 70.551C27.715 69.407 27.482 68.721 26.977 67.362C26.472 66.002 26.196 65.222 25.647 63.757C25.1 62.292 24.786 61.483 24.234 60.038C23.681 58.594 23.393 57.843 22.887 56.537C22.381 55.231 22.125 54.593 21.702 53.51C21.279 52.427 21.066 51.931 20.771 51.121C20.476 50.311 20.438 49.924 20.227 49.459C20.016 48.997 19.876 48.876 19.718 48.803C19.559 48.73 19.396 48.865 19.433 49.097C19.47 49.328 19.534 49.532 19.907 49.958C20.282 50.382 20.666 50.6 21.303 51.221C21.942 51.843 22.328 52.257 23.098 53.069C23.866 53.882 24.302 54.388 25.148 55.284C25.993 56.182 26.465 56.683 27.324 57.554C28.185 58.424 28.636 58.874 29.45 59.637C30.263 60.401 30.667 60.765 31.391 61.373C32.115 61.98 32.448 62.254 33.071 62.672C33.694 63.091 33.949 63.317 34.507 63.467C35.065 63.615 35.373 63.613 35.859 63.421C36.345 63.227 36.643 63.042 36.937 62.501C37.232 61.958 37.253 61.564 37.331 60.709C37.407 59.855 37.384 59.334 37.324 58.229C37.265 57.124 37.196 56.456 37.029 55.184C36.862 53.912 36.733 53.172 36.489 51.871C36.246 50.568 36.079 49.869 35.811 48.67C35.545 47.47 35.38 46.86 35.153 45.87C34.928 44.882 34.845 44.398 34.682 43.726C34.52 43.053 34.505 42.774 34.337 42.508C34.17 42.242 33.943 42.245 33.845 42.396C33.746 42.546 33.642 42.754 33.844 43.262C34.048 43.769 34.373 44.069 34.86 44.934C35.347 45.799 35.658 46.372 36.281 47.589C36.903 48.805 37.263 49.563 37.975 51.017C38.689 52.471 39.095 53.323 39.842 54.861C40.59 56.4 40.998 57.234 41.717 58.708C42.435 60.183 42.807 60.933 43.435 62.237C44.063 63.54 44.363 64.168 44.855 65.227C45.348 66.287 45.56 66.755 45.899 67.532C46.238 68.308 46.319 68.654 46.551 69.112C46.785 69.568 46.88 69.645 47.068 69.817C47.258 69.989 47.37 69.965 47.498 69.971C47.626 69.978 47.687 69.894 47.707 69.846C47.726 69.799 47.604 69.755 47.6 69.73C47.596 69.703 47.652 69.781 47.682 69.717C47.713 69.652 47.796 69.625 47.753 69.407C47.708 69.19 47.705 69.07 47.465 68.628C47.226 68.188 46.969 67.935 46.551 67.204C46.131 66.474 45.903 66.013 45.367 64.976C44.832 63.939 44.523 63.315 43.874 62.021C43.226 60.728 42.85 59.979 42.127 58.508C41.403 57.036 40.997 56.202 40.261 54.659C39.522 53.117 39.121 52.264 38.442 50.795C37.761 49.325 37.416 48.563 36.862 47.312C36.307 46.06 36.058 45.461 35.669 44.537C35.279 43.614 35.231 43.177 34.913 42.698C34.595 42.218 34.351 42.148 34.076 42.139C33.8 42.131 33.589 42.289 33.536 42.653C33.483 43.016 33.619 43.275 33.81 43.953C33.999 44.632 34.203 45.074 34.485 46.044C34.766 47.014 34.934 47.619 35.217 48.805C35.499 49.994 35.665 50.689 35.897 51.98C36.131 53.27 36.25 54.005 36.378 55.259C36.508 56.513 36.547 57.185 36.543 58.25C36.538 59.313 36.489 59.839 36.358 60.583C36.226 61.326 36.061 61.586 35.886 61.968C35.713 62.35 35.706 62.407 35.487 62.496C35.271 62.585 35.192 62.531 34.8 62.414C34.41 62.3 34.121 62.242 33.531 61.919C32.94 61.596 32.575 61.353 31.846 60.801C31.12 60.249 30.706 59.897 29.892 59.157C29.076 58.421 28.624 57.976 27.771 57.112C26.919 56.248 26.452 55.749 25.633 54.838C24.814 53.928 24.386 53.42 23.674 52.559C22.961 51.699 22.628 51.246 22.07 50.535C21.511 49.824 21.326 49.418 20.885 49.007C20.444 48.594 20.203 48.503 19.865 48.474C19.529 48.444 19.32 48.586 19.2 48.86C19.08 49.134 19.083 49.336 19.263 49.845C19.442 50.356 19.715 50.632 20.094 51.41C20.474 52.187 20.698 52.67 21.161 53.733C21.623 54.796 21.884 55.429 22.407 56.725C22.93 58.023 23.223 58.773 23.775 60.213C24.329 61.655 24.64 62.464 25.174 63.932C25.707 65.399 25.977 66.18 26.445 67.552C26.913 68.922 27.136 69.61 27.512 70.784C27.887 71.96 28.054 72.529 28.321 73.426C28.589 74.325 28.598 74.747 28.851 75.273C29.105 75.798 29.307 75.938 29.589 76.054C29.869 76.171 30.12 76.098 30.253 75.857C30.386 75.614 30.394 75.4 30.258 74.846C30.122 74.291 29.884 73.939 29.572 73.084C29.258 72.23 29.093 71.701 28.691 70.572C28.291 69.442 28.058 68.77 27.564 67.436C27.072 66.101 26.77 65.33 26.227 63.899C25.686 62.467 25.377 61.696 24.857 60.28C24.338 58.863 24.069 58.123 23.628 56.813C23.187 55.502 22.989 54.841 22.648 53.724C22.308 52.609 22.174 52.078 21.925 51.235C21.677 50.39 21.642 50.012 21.408 49.505C21.173 48.999 20.994 48.813 20.754 48.7C20.514 48.589 20.288 48.703 20.207 48.946Z" fill="#456107" stroke="#456107"/>
    <path d="M50.288 63.328C50.358 63.541 50.486 63.667 50.741 63.742C50.998 63.818 51.216 63.816 51.566 63.706C51.916 63.596 52.144 63.487 52.491 63.194C52.839 62.904 53.025 62.697 53.307 62.247C53.589 61.796 53.669 61.506 53.897 60.94C54.125 60.375 54.271 60.052 54.445 59.417C54.617 58.781 54.689 58.429 54.761 57.765C54.834 57.1 54.853 56.746 54.807 56.095C54.761 55.444 54.709 55.099 54.532 54.509C54.356 53.919 54.239 53.613 53.925 53.141C53.61 52.671 53.399 52.456 52.964 52.157C52.529 51.858 52.262 51.745 51.754 51.645C51.245 51.546 50.945 51.539 50.422 51.658C49.898 51.778 49.593 51.893 49.138 52.244C48.682 52.594 48.475 52.87 48.144 53.415C47.814 53.959 47.671 54.287 47.485 54.968C47.3 55.648 47.243 56.039 47.214 56.818C47.187 57.596 47.203 58.025 47.344 58.857C47.486 59.688 47.604 60.13 47.926 60.976C48.247 61.822 48.466 62.267 48.953 63.085C49.438 63.905 49.737 64.33 50.355 65.067C50.974 65.806 51.336 66.165 52.043 66.776C52.751 67.388 53.141 67.684 53.891 68.123C54.639 68.56 55.029 68.741 55.788 68.965C56.545 69.188 56.932 69.243 57.677 69.242C58.423 69.24 58.805 69.165 59.514 68.96C60.226 68.756 60.571 68.585 61.232 68.218C61.892 67.849 62.253 67.563 62.819 67.121C63.384 66.679 63.702 66.434 64.06 66.008C64.417 65.582 64.578 65.267 64.608 64.989C64.636 64.711 64.474 64.575 64.206 64.615C63.938 64.656 63.685 64.865 63.268 65.192C62.85 65.52 62.63 65.826 62.118 66.253C61.607 66.68 61.293 66.977 60.715 67.329C60.138 67.682 59.841 67.822 59.231 68.015C58.621 68.208 58.305 68.274 57.665 68.292C57.025 68.31 56.702 68.284 56.03 68.105C55.36 67.924 55.002 67.781 54.308 67.394C53.615 67.004 53.234 66.733 52.566 66.165C51.896 65.599 51.546 65.257 50.965 64.56C50.381 63.861 50.1 63.451 49.654 62.674C49.208 61.899 49.01 61.473 48.734 60.681C48.457 59.891 48.367 59.478 48.271 58.719C48.175 57.96 48.189 57.566 48.257 56.886C48.324 56.206 48.41 55.865 48.61 55.321C48.809 54.776 48.969 54.535 49.256 54.158C49.541 53.782 49.734 53.661 50.039 53.439C50.344 53.219 50.484 53.144 50.78 53.054C51.075 52.964 51.234 52.947 51.516 52.988C51.796 53.029 51.933 53.072 52.185 53.258C52.439 53.444 52.552 53.587 52.779 53.917C53.005 54.246 53.156 54.45 53.321 54.904C53.484 55.359 53.554 55.648 53.602 56.189C53.65 56.733 53.638 57.051 53.561 57.62C53.485 58.189 53.414 58.499 53.221 59.036C53.03 59.575 52.87 59.86 52.603 60.309C52.334 60.758 52.133 60.953 51.885 61.28C51.638 61.608 51.55 61.757 51.367 61.944C51.182 62.133 51.099 62.13 50.961 62.218C50.824 62.307 50.792 62.296 50.678 62.388C50.564 62.48 50.471 62.494 50.393 62.682C50.315 62.87 50.218 63.116 50.288 63.328Z" fill="#456107" stroke="#456107"/>
    <path d="M63.555 36.461C63.455 36.666 63.465 36.812 63.552 37.174C63.64 37.536 63.78 37.744 63.993 38.271C64.207 38.799 64.379 39.125 64.621 39.811C64.861 40.496 64.967 40.907 65.194 41.697C65.421 42.486 65.518 42.935 65.755 43.76C65.992 44.584 66.131 45.018 66.377 45.815C66.622 46.61 66.761 47.03 66.984 47.739C67.209 48.45 67.292 48.822 67.497 49.367C67.701 49.912 67.798 50.152 68.01 50.464C68.221 50.777 68.38 50.82 68.554 50.928C68.729 51.038 68.773 51.021 68.881 51.01C68.99 50.998 69.04 50.956 69.099 50.867C69.156 50.778 69.175 50.753 69.171 50.563C69.168 50.372 69.201 50.245 69.084 49.913C68.965 49.583 68.816 49.413 68.582 48.911C68.347 48.41 68.182 48.084 67.912 47.41C67.643 46.735 67.494 46.317 67.237 45.539C66.979 44.76 66.843 44.334 66.623 43.519C66.403 42.702 66.315 42.261 66.137 41.456C65.959 40.653 65.893 40.23 65.733 39.496C65.57 38.762 65.521 38.371 65.33 37.785C65.139 37.199 65.031 36.895 64.776 36.567C64.522 36.239 64.301 36.166 64.056 36.145C63.812 36.123 63.655 36.254 63.555 36.461Z" fill="#456107" stroke="#456107"/>
    <path d="M70.391 55.92C70.198 56.125 70.169 56.435 70.162 56.698C70.156 56.96 70.244 57.089 70.361 57.233C70.478 57.377 70.586 57.399 70.748 57.42C70.91 57.441 71.076 57.37 71.171 57.338C71.267 57.305 71.313 57.225 71.226 57.261C71.139 57.298 70.796 57.434 70.737 57.523C70.678 57.612 70.775 57.7 70.933 57.709C71.091 57.715 71.334 57.703 71.525 57.563C71.716 57.423 71.836 57.27 71.893 57.006C71.95 56.742 71.96 56.51 71.808 56.245C71.656 55.977 71.416 55.739 71.132 55.674C70.849 55.611 70.585 55.715 70.391 55.92Z" fill="#456107" stroke="#456107"/>
  </g>
</svg>
