<svg width="76" height="75" viewBox="0 0 76 75" fill="none" xmlns="http://www.w3.org/2000/svg">
<path d="M61.0367 19.385L7.91609 39.1401L13.9434 54.7061L67.3141 35.3611L61.0367 19.385Z" fill="url(#paint0_linear_1944_9295)"/>
<path d="M17.3938 39.8372C17.3478 39.8163 17.2892 39.8166 17.1919 39.8318C17.0938 39.8466 17.0266 39.861 16.9059 39.9115C16.7853 39.962 16.712 39.9974 16.5873 40.0842C16.4618 40.1712 16.409 40.2209 16.2805 40.3453C16.1514 40.4698 16.0784 40.5399 15.944 40.7055C15.8094 40.8705 15.7367 40.9672 15.6073 41.1723C15.4785 41.3772 15.4109 41.4916 15.299 41.7309C15.1871 41.9701 15.1395 42.1077 15.0481 42.3677C14.9571 42.6283 14.9097 42.7586 14.8446 43.0329C14.7789 43.3074 14.7511 43.4595 14.7217 43.7404C14.6914 44.0208 14.6871 44.168 14.6946 44.4368C14.7028 44.7054 14.7171 44.832 14.7614 45.0845C14.8065 45.3375 14.8364 45.4729 14.9189 45.6992C15.0021 45.9252 15.0523 46.0351 15.175 46.2148C15.2978 46.3946 15.3721 46.4732 15.5323 46.5988C15.6925 46.7243 15.7802 46.78 15.9754 46.8427C16.1709 46.9061 16.2904 46.914 16.5097 46.9137C16.7297 46.9131 16.8422 46.896 17.0738 46.842C17.3054 46.7879 17.4239 46.7396 17.6675 46.645C17.9102 46.55 18.0424 46.4894 18.2902 46.3687C18.5383 46.2485 18.6654 46.184 18.9073 46.043C19.1498 45.9017 19.2875 45.8065 19.5007 45.6643C19.7132 45.5224 19.8237 45.456 19.9714 45.3326C20.1197 45.209 20.1974 45.1184 20.2407 45.0483C20.2839 44.9782 20.2652 44.9568 20.1882 44.982C20.1106 45.0074 20.0131 45.0697 19.8535 45.1743C19.6948 45.2792 19.6001 45.363 19.3929 45.5059C19.1858 45.6488 19.0536 45.7492 18.8171 45.889C18.5808 46.0295 18.4558 46.0917 18.2125 46.2072C17.9691 46.3221 17.8364 46.3792 17.6001 46.4661C17.3629 46.5526 17.2472 46.5947 17.0292 46.6402C16.8118 46.6855 16.7083 46.6957 16.5111 46.693C16.3141 46.691 16.2135 46.6813 16.0441 46.6279C15.8754 46.5743 15.8057 46.5324 15.6663 46.426C15.5269 46.3197 15.4596 46.2545 15.3467 46.0958C15.2335 45.9364 15.1815 45.8395 15.1004 45.6308C15.0192 45.4222 14.9861 45.2916 14.9391 45.0516C14.893 44.812 14.878 44.6893 14.8684 44.4306C14.8581 44.1722 14.8625 44.0294 14.8911 43.7582C14.9195 43.4865 14.9455 43.3394 15.0106 43.073C15.0757 42.8067 15.1234 42.6792 15.2156 42.4276C15.3077 42.176 15.3574 42.042 15.4713 41.8143C15.5844 41.5862 15.6533 41.4793 15.7847 41.2894C15.9165 41.0987 15.9942 41.0138 16.1286 40.862C16.2629 40.7102 16.3347 40.6427 16.4559 40.5304C16.5763 40.4177 16.6203 40.3734 16.7325 40.2999C16.8452 40.2255 16.9102 40.2112 17.0164 40.1609C17.1227 40.1106 17.1825 40.0938 17.2639 40.0489C17.3453 40.004 17.3977 39.9791 17.4234 39.9364C17.4494 39.8944 17.4404 39.8578 17.3938 39.8372Z" fill="#4F4013"/>
<path d="M23.1059 42.0139C23.1282 41.9797 23.1373 41.9409 23.1244 41.8739C23.1113 41.8063 23.0931 41.7542 23.0412 41.6776C22.9893 41.6009 22.9495 41.5553 22.866 41.4909C22.7824 41.4265 22.7341 41.3934 22.6237 41.3569C22.5134 41.3204 22.4489 41.3105 22.315 41.3087C22.1811 41.3068 22.1156 41.3061 21.9552 41.3487C21.7951 41.3904 21.6931 41.4225 21.5131 41.5186C21.3324 41.6149 21.2422 41.6854 21.0549 41.8291C20.8671 41.9736 20.7631 42.0557 20.5756 42.2385C20.388 42.4213 20.2826 42.5315 20.1181 42.7436C19.9531 42.9565 19.8707 43.072 19.752 43.3007C19.6331 43.5288 19.5788 43.6558 19.5245 43.8863C19.47 44.1162 19.4611 44.2426 19.4796 44.4523C19.4984 44.6628 19.5266 44.7618 19.6182 44.9356C19.7092 45.1095 19.7766 45.203 19.9363 45.3214C20.0961 45.4399 20.2062 45.4895 20.4172 45.5278C20.6287 45.5658 20.7561 45.5577 20.994 45.5129C21.2325 45.468 21.3678 45.4237 21.6085 45.3033C21.8488 45.1838 21.9702 45.0918 22.1964 44.9137C22.422 44.7358 22.5413 44.63 22.7363 44.4141C22.9319 44.1979 23.0273 44.074 23.1722 43.8321C23.3166 43.5905 23.3735 43.4466 23.4591 43.2047C23.5444 42.9621 23.5767 42.838 23.5977 42.6218C23.6195 42.4053 23.608 42.2965 23.5657 42.1229C23.5228 41.9495 23.4778 41.8718 23.3837 41.7547C23.2898 41.6383 23.2209 41.6004 23.0957 41.5389C22.9704 41.4774 22.8951 41.4614 22.7569 41.4481C22.6186 41.4341 22.5333 41.4406 22.4042 41.4717C22.2759 41.5033 22.2045 41.5438 22.1145 41.6049C22.0247 41.6666 21.9947 41.7173 21.9553 41.7781C21.9159 41.8388 21.9152 41.8745 21.9183 41.9089C21.922 41.943 21.9425 41.9515 21.9728 41.9491C22.0033 41.9474 22.0186 41.9259 22.0711 41.8988C22.1235 41.8717 22.156 41.8497 22.2346 41.8131C22.3139 41.7762 22.3641 41.7413 22.4648 41.7154C22.5663 41.69 22.6326 41.681 22.7413 41.6834C22.8503 41.6863 22.9122 41.6913 23.0098 41.7303C23.1079 41.7691 23.1597 41.79 23.2308 41.8778C23.3013 41.9658 23.3316 42.025 23.3636 42.1705C23.3955 42.3153 23.4075 42.408 23.3917 42.6028C23.376 42.7982 23.3585 42.9169 23.2848 43.1458C23.2115 43.3739 23.159 43.514 23.0239 43.745C22.8893 43.9759 22.7979 44.0947 22.6108 44.3005C22.4237 44.5063 22.305 44.6076 22.0877 44.7744C21.8709 44.9404 21.7514 45.026 21.5252 45.1324C21.2991 45.2394 21.1716 45.2729 20.9581 45.3073C20.7447 45.3417 20.6365 45.337 20.458 45.3043C20.2802 45.2714 20.197 45.2358 20.0674 45.1426C19.9369 45.0489 19.8826 44.9775 19.8078 44.836C19.7328 44.6939 19.7108 44.6136 19.6932 44.4324C19.6751 44.2514 19.6726 44.1394 19.718 43.9302C19.7627 43.7212 19.8093 43.6007 19.9195 43.3867C20.0291 43.1729 20.1078 43.0609 20.2662 42.8597C20.4248 42.6592 20.5284 42.5519 20.7119 42.3821C20.8962 42.2121 21.0014 42.1353 21.1858 42.0094C21.3696 41.8838 21.4649 41.8353 21.6333 41.7528C21.8008 41.67 21.8881 41.6375 22.0247 41.597C22.1611 41.556 22.2122 41.5511 22.3163 41.5486C22.4196 41.5458 22.4685 41.5547 22.5442 41.5836C22.6197 41.6118 22.6411 41.6388 22.6938 41.692C22.7463 41.7446 22.7628 41.7899 22.8081 41.8466C22.853 41.9041 22.8793 41.9365 22.92 41.9767C22.9614 42.0166 22.9762 42.0395 23.0136 42.0468C23.0505 42.0544 23.0839 42.0487 23.1059 42.0139Z" fill="#4F4013"/>
<path d="M24.5853 40.4959C24.5698 40.5132 24.5702 40.4942 24.559 40.5331C24.5478 40.5719 24.5194 40.6033 24.5306 40.6897C24.5415 40.777 24.5727 40.8387 24.6137 40.9672C24.6548 41.0956 24.6781 41.1675 24.736 41.3303C24.7933 41.4934 24.824 41.5894 24.9021 41.7818C24.9802 41.9742 25.0343 42.0768 25.126 42.2925C25.218 42.5089 25.2659 42.6225 25.3614 42.8607C25.4566 43.0997 25.499 43.2298 25.6015 43.4872C25.7045 43.7437 25.763 43.8824 25.8739 44.1468C25.9851 44.4119 26.0489 44.5531 26.1562 44.8116C26.2633 45.0695 26.3198 45.2046 26.4107 45.4379C26.5007 45.6709 26.537 45.7924 26.6087 45.977C26.6804 46.1616 26.7122 46.247 26.7679 46.36C26.8242 46.4727 26.855 46.5093 26.8885 46.5398C26.9223 46.5709 26.94 46.5579 26.9362 46.5137C26.9326 46.4701 26.9199 46.4233 26.8703 46.319C26.8209 46.2153 26.7879 46.1427 26.6888 45.9941C26.5897 45.8456 26.5051 45.7605 26.3756 45.576C26.2466 45.3913 26.1678 45.2824 26.0423 45.0711C25.9164 44.8592 25.8623 44.7464 25.7472 44.5182C25.6321 44.2901 25.5785 44.1727 25.4663 43.9305C25.354 43.6883 25.2909 43.5628 25.1858 43.3085C25.0808 43.0543 25.029 42.9182 24.9414 42.6582C24.8533 42.3985 24.8106 42.2656 24.7477 42.0097C24.6841 41.7541 24.6527 41.6222 24.6246 41.3804C24.5959 41.1388 24.5944 41.0155 24.6059 40.8027C24.6172 40.5893 24.6375 40.4921 24.6807 40.3148C24.7246 40.1373 24.7471 40.056 24.8239 39.915C24.9007 39.774 24.9528 39.7123 25.0653 39.6097C25.1775 39.5065 25.2468 39.466 25.3851 39.4004C25.5242 39.3352 25.5982 39.3096 25.7587 39.283C25.9183 39.2559 26.0122 39.2513 26.1852 39.265C26.3582 39.2787 26.4611 39.2948 26.6244 39.3511C26.7869 39.4077 26.8628 39.4489 26.9988 39.5477C27.1348 39.6466 27.1968 39.7094 27.3035 39.8451C27.4104 39.9813 27.4643 40.0616 27.5329 40.2278C27.6018 40.3931 27.626 40.4951 27.648 40.6747C27.67 40.8542 27.667 40.9473 27.6432 41.1262C27.6194 41.3051 27.5936 41.4014 27.5297 41.5695C27.4657 41.7377 27.4248 41.82 27.3239 41.9683C27.2227 42.116 27.153 42.1849 27.0236 42.3088C26.8952 42.4332 26.8197 42.4962 26.681 42.5887C26.5418 42.6815 26.4578 42.7172 26.3282 42.7732C26.1987 42.8291 26.1362 42.8483 26.033 42.8692C25.9299 42.8902 25.8789 42.8856 25.8118 42.8782C25.7449 42.8715 25.7219 42.856 25.6975 42.833C25.6726 42.8102 25.6908 42.7927 25.6894 42.765C25.6886 42.737 25.692 42.7126 25.6911 42.6941C25.6904 42.6763 25.6864 42.6871 25.6858 42.6736C25.686 42.6605 25.7004 42.6523 25.6912 42.6289C25.6817 42.6048 25.6651 42.5674 25.6379 42.5563C25.6116 42.5457 25.5842 42.552 25.5569 42.5743C25.5295 42.5966 25.5111 42.6236 25.5014 42.6684C25.4919 42.7139 25.4942 42.7442 25.5098 42.8008C25.5256 42.858 25.5272 42.898 25.5795 42.9521C25.6324 43.0059 25.6759 43.0437 25.7737 43.0695C25.8708 43.0957 25.9383 43.0979 26.0672 43.082C26.1959 43.0655 26.2666 43.0469 26.4165 42.9894C26.5664 42.9318 26.6601 42.8948 26.8153 42.794C26.9711 42.693 27.0535 42.6231 27.1952 42.4853C27.3366 42.3468 27.4119 42.2693 27.5237 42.1033C27.6346 41.9368 27.6815 41.8429 27.7531 41.6539C27.8246 41.4648 27.8536 41.3594 27.88 41.1579C27.9071 40.9561 27.9115 40.8509 27.8874 40.646C27.8628 40.4414 27.8377 40.323 27.7577 40.1335C27.6786 39.9444 27.6134 39.853 27.4894 39.6976C27.3656 39.5429 27.2948 39.4738 27.1381 39.3579C26.9821 39.2417 26.8942 39.1875 26.7074 39.1181C26.5208 39.0492 26.4029 39.0278 26.2042 39.0133C26.0056 38.9988 25.8989 39.0102 25.715 39.0461C25.5312 39.0821 25.445 39.112 25.2843 39.1916C25.1236 39.2712 25.0423 39.3204 24.9115 39.4442C24.7806 39.568 24.7199 39.6458 24.6313 39.81C24.5427 39.9741 24.5128 40.0668 24.4675 40.2644C24.4227 40.4611 24.4114 40.5673 24.4062 40.7952C24.4015 41.0228 24.4075 41.1525 24.4419 41.4035C24.4765 41.6553 24.5106 41.7906 24.5786 42.0526C24.6458 42.3141 24.6891 42.449 24.779 42.7131C24.8688 42.9773 24.9213 43.1153 25.0265 43.3739C25.132 43.6316 25.1956 43.7583 25.306 44.0034C25.4172 44.2489 25.4687 44.3663 25.5801 44.6002C25.6912 44.8334 25.7442 44.951 25.8619 45.1724C25.9796 45.3938 26.0549 45.509 26.1685 45.7073C26.2821 45.9056 26.3313 46.0108 26.4292 46.1641C26.5276 46.3165 26.5715 46.3853 26.6602 46.4717C26.748 46.5577 26.8061 46.5858 26.8714 46.596C26.936 46.6065 26.967 46.5843 26.9843 46.5222C27.0011 46.4611 26.9892 46.4147 26.9551 46.2895C26.9217 46.1641 26.889 46.0804 26.8143 45.8955C26.7399 45.7111 26.6825 45.5974 26.5826 45.3673C26.4825 45.1365 26.4254 45.0017 26.3149 44.7443C26.2046 44.4876 26.1406 44.3458 26.0312 44.0815C25.9211 43.8175 25.8646 43.6802 25.7663 43.4228C25.6681 43.1653 25.6278 43.0351 25.5395 42.7928C25.4514 42.5512 25.4061 42.433 25.3255 42.214C25.2447 41.9943 25.2006 41.8895 25.1365 41.6956C25.0723 41.5017 25.0514 41.4087 25.0046 41.2447C24.9578 41.0807 24.9419 41.0032 24.9028 40.8762C24.864 40.7499 24.845 40.6917 24.8094 40.6119C24.7735 40.5316 24.7592 40.51 24.724 40.4772C24.6891 40.445 24.6631 40.4451 24.6354 40.4487C24.6071 40.4525 24.6003 40.4796 24.5853 40.4959Z" fill="#4F4013"/>
<path d="M29.6142 41.7061C29.6474 41.7157 29.6717 41.717 29.7249 41.6881C29.7777 41.6602 29.8145 41.6359 29.8803 41.5641C29.9452 41.4919 29.9811 41.4433 30.0507 41.3282C30.1202 41.213 30.1553 41.1386 30.2269 40.9873C30.2993 40.8363 30.3362 40.7468 30.4099 40.5736C30.4836 40.4004 30.5226 40.3087 30.5953 40.1229C30.6685 39.9362 30.7087 39.8281 30.7741 39.642C30.8389 39.4561 30.8723 39.365 30.9212 39.1915C30.9702 39.0179 31.0016 38.9311 31.0193 38.7733C31.0375 38.6146 31.0369 38.5315 31.0115 38.4003C30.9854 38.2693 30.9561 38.2126 30.8902 38.1193C30.8234 38.0256 30.7794 37.9845 30.6803 37.933C30.5814 37.8822 30.5161 37.8661 30.3953 37.8645C30.2743 37.8623 30.2107 37.8805 30.0762 37.923C29.9421 37.9661 29.8683 37.9923 29.7239 38.079C29.5793 38.165 29.4945 38.2184 29.3535 38.356C29.2123 38.493 29.144 38.5917 29.0184 38.7657C28.8931 38.9403 28.829 39.0267 28.7267 39.2269C28.6243 39.4265 28.5791 39.5509 28.5067 39.7656C28.4344 39.9803 28.3963 40.0963 28.3639 40.3015C28.3312 40.5075 28.3302 40.6121 28.3435 40.7934C28.3567 40.9747 28.3666 41.0573 28.43 41.2095C28.4941 41.3613 28.5482 41.4401 28.6626 41.5534C28.7766 41.6675 28.8464 41.7138 29.0021 41.7772C29.1571 41.8409 29.2478 41.8592 29.4382 41.8731C29.6291 41.886 29.7436 41.8783 29.9549 41.844C30.1661 41.8097 30.2816 41.7806 30.495 41.7006C30.7076 41.6202 30.8137 41.5598 31.0205 41.4416C31.2266 41.3237 31.3333 41.2529 31.5254 41.1105C31.7178 40.9686 31.8178 40.8894 31.9823 40.7309C32.1465 40.5733 32.2246 40.4876 32.346 40.3202C32.4681 40.1525 32.5162 40.064 32.5907 39.8928C32.6649 39.7209 32.6885 39.6289 32.7166 39.4616C32.7444 39.2935 32.7397 39.2112 32.7308 39.0537C32.7228 38.8966 32.7025 38.8192 32.6737 38.6748C32.6447 38.5296 32.6257 38.4576 32.5864 38.33C32.5471 38.2024 32.5198 38.1435 32.4787 38.0368C32.4374 37.9295 32.4182 37.8808 32.3818 37.7948C32.3447 37.7091 32.3347 37.6657 32.2954 37.6076C32.2559 37.5489 32.2303 37.5184 32.1855 37.5028C32.1407 37.4873 32.1012 37.4959 32.0728 37.5294C32.0443 37.5623 32.0361 37.6015 32.0445 37.6701C32.0522 37.739 32.0697 37.779 32.1126 37.8727C32.1554 37.9665 32.1989 38.0201 32.2591 38.1394C32.3183 38.2583 32.3514 38.3252 32.4116 38.4683C32.4724 38.6113 32.5012 38.7 32.5617 38.8561C32.6226 39.0113 32.6535 39.0978 32.7134 39.2462C32.7741 39.395 32.8108 39.4757 32.8638 39.5991C32.9165 39.7218 32.9338 39.785 32.9774 39.8611C33.0211 39.9371 33.0382 39.9642 33.0817 39.9802C33.1243 39.9958 33.1582 39.9893 33.1929 39.9397C33.2279 39.8907 33.2432 39.8453 33.2563 39.734C33.2687 39.6231 33.263 39.544 33.2571 39.3847C33.2511 39.2254 33.2354 39.1246 33.2267 38.938C33.2187 38.7512 33.2093 38.6518 33.2159 38.4517C33.222 38.2518 33.2316 38.1353 33.2575 37.9382C33.2841 37.741 33.3023 37.6438 33.347 37.4667C33.3918 37.2896 33.4145 37.1988 33.4809 37.0514C33.5477 36.9047 33.5912 36.8454 33.6806 36.731C33.7693 36.6168 33.8251 36.5595 33.9273 36.4802C34.0304 36.4013 34.0867 36.375 34.1942 36.3343C34.3018 36.2937 34.3561 36.2797 34.4647 36.2777C34.5731 36.2751 34.6314 36.2821 34.737 36.3232C34.8428 36.3651 34.8956 36.4008 34.9925 36.4857C35.09 36.5704 35.1375 36.6233 35.2232 36.747C35.3098 36.8712 35.3483 36.9469 35.4237 37.1041C35.4991 37.2613 35.5377 37.3573 35.6002 37.5344C35.6619 37.7118 35.6881 37.8094 35.7345 37.9902C35.7803 38.1712 35.7943 38.2675 35.8299 38.4385C35.8655 38.6095 35.8761 38.7041 35.9121 38.8445C35.9485 38.984 35.9706 39.0607 36.0113 39.1385C36.052 39.2164 36.0861 39.2185 36.116 39.2329C36.1457 39.2467 36.152 39.2364 36.1612 39.2099C36.1695 39.183 36.163 39.181 36.1613 39.099C36.1595 39.0164 36.1694 38.9404 36.1523 38.7982C36.1345 38.6562 36.1078 38.5631 36.0733 38.3888C36.0389 38.2152 36.0263 38.117 35.9801 37.9289C35.9342 37.7414 35.9078 37.6373 35.8438 37.4499C35.779 37.2621 35.741 37.16 35.6575 36.9906C35.5746 36.8209 35.5289 36.7391 35.4271 36.601C35.3253 36.4629 35.2707 36.3987 35.1489 36.299C35.0273 36.2 34.9563 36.1542 34.8183 36.1053C34.6802 36.0564 34.5991 36.0505 34.4587 36.0547C34.3189 36.0586 34.251 36.0768 34.1167 36.1258C33.9831 36.1745 33.913 36.2066 33.7897 36.2994C33.6663 36.3921 33.6039 36.4591 33.501 36.59C33.3974 36.7212 33.3508 36.7918 33.2727 36.955C33.1952 37.118 33.1622 37.2162 33.112 37.4061C33.0618 37.5961 33.0503 37.6995 33.0212 37.9057C32.9923 38.1125 32.9823 38.232 32.9663 38.4384C32.9512 38.6453 32.9489 38.7482 32.9433 38.9393C32.9372 39.1312 32.9313 39.2341 32.9375 39.3962C32.9429 39.5579 32.9476 39.6402 32.9713 39.7489C32.9959 39.858 33.0239 39.8992 33.0591 39.94C33.0933 39.9803 33.1228 39.9797 33.1457 39.9511C33.1692 39.9222 33.1852 39.8846 33.1747 39.7964C33.1649 39.708 33.1389 39.6385 33.0948 39.5098C33.0508 39.381 33.0109 39.3014 32.9542 39.1519C32.8975 39.0023 32.8687 38.9194 32.812 38.7619C32.7553 38.6045 32.7271 38.5133 32.6689 38.3636C32.6109 38.2146 32.5781 38.1404 32.5212 38.0141C32.4636 37.8881 32.436 37.8243 32.384 37.7332C32.3321 37.6427 32.3109 37.6063 32.2618 37.5612C32.2126 37.5154 32.1763 37.5033 32.1379 37.5072C32.0994 37.5111 32.077 37.541 32.0706 37.581C32.0633 37.6205 32.0808 37.6467 32.1025 37.7062C32.1236 37.7659 32.1442 37.7967 32.1756 37.8787C32.2078 37.9611 32.2245 38.013 32.261 38.117C32.2975 38.221 32.3225 38.2778 32.3586 38.3986C32.395 38.52 32.4128 38.5888 32.4413 38.7226C32.4707 38.8567 32.4925 38.9284 32.5037 39.0685C32.5145 39.2093 32.5208 39.2781 32.4969 39.4251C32.473 39.5721 32.45 39.65 32.3841 39.803C32.3176 39.9562 32.2746 40.0348 32.1646 40.1901C32.0549 40.346 31.9868 40.4295 31.8346 40.5799C31.6825 40.7309 31.5863 40.8087 31.4029 40.9451C31.2192 41.0809 31.1144 41.151 30.9173 41.2598C30.721 41.3691 30.6187 41.4223 30.4192 41.4907C30.219 41.5594 30.112 41.5759 29.9191 41.6029C29.7259 41.6291 29.6198 41.6302 29.4528 41.623C29.2855 41.6152 29.2107 41.6106 29.0835 41.5657C28.9555 41.5204 28.9063 41.4848 28.8149 41.3972C28.7238 41.3102 28.6763 41.2514 28.6262 41.1278C28.5762 41.0048 28.5709 40.9386 28.5646 40.7802C28.5578 40.6226 28.5629 40.5273 28.5934 40.3387C28.6242 40.1493 28.6508 40.0375 28.7171 39.8359C28.784 39.6341 28.8272 39.5162 28.9262 39.3309C29.0247 39.1465 29.0893 39.0672 29.2119 38.911C29.3345 38.7547 29.4093 38.6717 29.5393 38.5497C29.6687 38.4279 29.7364 38.3793 29.8599 38.3009C29.9843 38.223 30.0507 38.2024 30.1593 38.1606C30.2679 38.1189 30.3158 38.1014 30.4023 38.0923C30.4897 38.0836 30.5277 38.0886 30.5929 38.1162C30.6586 38.1437 30.687 38.1659 30.7293 38.2302C30.7719 38.2935 30.7911 38.3322 30.8045 38.4345C30.8173 38.537 30.8166 38.6046 30.7935 38.7419C30.7707 38.8799 30.741 38.9595 30.6899 39.123C30.6393 39.2863 30.6051 39.377 30.5387 39.5584C30.4727 39.7389 30.4352 39.8467 30.36 40.0276C30.2848 40.2086 30.2401 40.2966 30.1627 40.4639C30.0854 40.6311 30.0453 40.7196 29.9731 40.8633C29.9015 41.0067 29.8662 41.0746 29.8029 41.181C29.7404 41.2878 29.7057 41.3236 29.6597 41.3961C29.6146 41.4691 29.5965 41.4967 29.5759 41.5455C29.5553 41.5943 29.549 41.6067 29.5563 41.6388C29.5643 41.6707 29.5801 41.6961 29.6142 41.7061Z" fill="#4F4013"/>
<path d="M35.4124 32.1605C35.408 32.1903 35.4258 32.1853 35.4431 32.2348C35.4597 32.2845 35.4534 32.3107 35.4981 32.4074C35.5436 32.5045 35.5817 32.5652 35.6684 32.7197C35.7556 32.8733 35.8279 32.9664 35.9335 33.1763C36.0386 33.3871 36.09 33.5161 36.195 33.7704C36.2996 34.0256 36.3528 34.1655 36.457 34.4491C36.5611 34.7326 36.6163 34.8899 36.7151 35.1885C36.814 35.4878 36.8542 35.6476 36.9503 35.9428C37.0464 36.2381 37.1005 36.3885 37.1954 36.6646C37.2905 36.9413 37.3416 37.0813 37.4254 37.3252C37.5097 37.5682 37.5418 37.692 37.6175 37.8816C37.6932 38.0713 37.7388 38.1546 37.803 38.2731C37.8676 38.3908 37.8912 38.4315 37.9384 38.4736C37.9859 38.5164 38.0103 38.5198 38.0403 38.485C38.0706 38.4508 38.0938 38.4053 38.0901 38.3017C38.0861 38.1974 38.0579 38.1201 38.0206 37.9642C37.9842 37.8087 37.9486 37.7131 37.9047 37.5234C37.8609 37.3337 37.832 37.2247 37.8014 37.0157C37.7717 36.8071 37.7611 36.6886 37.7546 36.4802C37.7473 36.2714 37.7422 36.1741 37.7661 35.9734C37.79 35.7728 37.8158 35.667 37.8725 35.4769C37.929 35.2861 37.9712 35.1874 38.049 35.0215C38.1268 34.8555 38.1705 34.7729 38.2632 34.6457C38.3561 34.5191 38.4143 34.4703 38.5127 34.3867C38.6111 34.303 38.6582 34.2612 38.7541 34.2262C38.85 34.1913 38.89 34.1919 38.9937 34.212C39.0973 34.2321 39.1593 34.261 39.2713 34.328C39.3843 34.3955 39.4428 34.4386 39.5563 34.5493C39.6707 34.6604 39.7261 34.735 39.8413 34.8821C39.9562 35.0284 40.024 35.1131 40.133 35.2826C40.2415 35.4531 40.2896 35.5514 40.3857 35.7315C40.4816 35.9109 40.5236 36.0122 40.6138 36.1821C40.7037 36.3513 40.7501 36.4329 40.836 36.579C40.9228 36.7255 40.9592 36.7977 41.0453 36.9126C41.1314 37.0275 41.1748 37.0812 41.2668 37.1526C41.3588 37.2241 41.4222 37.2452 41.5043 37.2717C41.5862 37.2976 41.6376 37.2977 41.6777 37.2845C41.7181 37.272 41.7252 37.2419 41.7068 37.2073C41.6875 37.1723 41.6433 37.1544 41.5825 37.1107C41.5219 37.0676 41.4742 37.056 41.4024 36.9902C41.3302 36.9253 41.2956 36.8901 41.2223 36.7843C41.1498 36.6789 41.1185 36.6071 41.0394 36.4635C40.9609 36.3198 40.9184 36.2368 40.8293 36.068C40.7402 35.8991 40.6918 35.8023 40.5939 35.6193C40.4957 35.4372 40.4471 35.3339 40.3382 35.1542C40.2288 34.9754 40.1676 34.8811 40.0467 34.7224C39.926 34.5643 39.8655 34.4836 39.7336 34.3622C39.6023 34.2406 39.5309 34.1877 39.3892 34.1149C39.2474 34.042 39.1657 34.0146 39.0254 33.9991C38.8848 33.983 38.8179 33.9922 38.6883 34.0359C38.5577 34.0791 38.4976 34.1228 38.3754 34.2166C38.2534 34.311 38.188 34.366 38.0787 34.5073C37.9699 34.6476 37.9151 34.7379 37.8307 34.9193C37.7462 35.1007 37.7124 35.2087 37.6557 35.4147C37.5989 35.6201 37.573 35.7339 37.5482 35.9479C37.5227 36.1621 37.5282 36.2666 37.5313 36.4856C37.5345 36.7046 37.5445 36.8255 37.5637 37.043C37.5825 37.2614 37.598 37.3753 37.6277 37.5759C37.6572 37.7759 37.6663 37.8863 37.712 38.0456C37.7578 38.2049 37.8011 38.2818 37.8557 38.372C37.9107 38.4613 37.9467 38.4844 37.9844 38.4945C38.0224 38.5053 38.0459 38.4865 38.0466 38.4247C38.0468 38.3638 38.0344 38.314 37.9881 38.189C37.9418 38.0639 37.8938 37.9858 37.8145 37.8003C37.7349 37.6157 37.6852 37.5013 37.5918 37.2631C37.498 37.0257 37.4454 36.8855 37.3463 36.6117C37.2472 36.3379 37.1931 36.1896 37.0966 35.8953C36.9995 35.6012 36.9593 35.4413 36.8627 35.1405C36.7662 34.8403 36.7112 34.6815 36.6128 34.3937C36.5146 34.1065 36.4639 33.9656 36.3705 33.7035C36.2777 33.4411 36.2352 33.3067 36.1467 33.0819C36.0586 32.8562 36.0144 32.739 35.9294 32.5774C35.8448 32.4149 35.7917 32.3626 35.7224 32.272C35.6536 32.1805 35.6368 32.1583 35.585 32.1215C35.534 32.085 35.5003 32.0799 35.4654 32.0876C35.4314 32.0956 35.4176 32.1311 35.4124 32.1605Z" fill="#4F4013"/>
<path d="M44.4653 33.2024C44.4619 33.1514 44.4309 33.0961 44.3723 33.0269C44.3144 32.9575 44.2729 32.9111 44.1734 32.8547C44.0745 32.7981 43.9999 32.7623 43.8767 32.7442C43.7537 32.7268 43.6846 32.7397 43.5585 32.7654C43.4322 32.7904 43.3735 32.806 43.2449 32.8725C43.1161 32.9383 43.0406 32.9817 42.9144 33.0944C42.7889 33.2068 42.7231 33.2786 42.6151 33.4353C42.5071 33.592 42.4632 33.6841 42.3754 33.8783C42.288 34.0717 42.2444 34.1824 42.1785 34.4049C42.1133 34.6271 42.0818 34.7574 42.0472 34.9902C42.0122 35.2238 42.0021 35.3528 42.0053 35.5703C42.0077 35.7874 42.0146 35.8957 42.0619 36.0769C42.1091 36.2582 42.1478 36.3483 42.2411 36.4751C42.3338 36.6021 42.4024 36.6553 42.5276 36.7125C42.6527 36.7697 42.7252 36.7758 42.8662 36.7613C43.007 36.7462 43.0865 36.7237 43.2326 36.6379C43.3787 36.552 43.4652 36.4835 43.5968 36.3319C43.729 36.1802 43.7835 36.0712 43.8918 35.8797C44.0003 35.6887 44.0512 35.5919 44.1396 35.3757C44.2277 35.1604 44.2719 35.0313 44.3322 34.8015C44.3927 34.5723 44.4117 34.4516 44.4423 34.2276C44.4722 34.0037 44.4798 33.8858 44.4832 33.6825C44.4868 33.4799 44.4819 33.373 44.4593 33.2118C44.4367 33.0506 44.4186 32.9731 44.3696 32.8766C44.3204 32.7794 44.2673 32.7408 44.2139 32.7277C44.1606 32.7145 44.125 32.7398 44.103 32.8108C44.082 32.8822 44.0824 32.9487 44.1081 33.0849C44.1336 33.2205 44.1632 33.3154 44.2327 33.49C44.3015 33.6648 44.3641 33.7629 44.4532 33.9578C44.5424 34.1527 44.5875 34.2644 44.677 34.4642C44.7668 34.6647 44.8085 34.777 44.902 34.958C44.9955 35.1389 45.0416 35.2235 45.1438 35.3709C45.2467 35.5181 45.3003 35.5876 45.4148 35.695C45.5287 35.8027 45.5933 35.8508 45.7148 35.9079C45.8367 35.9641 45.9137 35.9708 46.0237 35.9785C46.1339 35.9868 46.1894 35.976 46.265 35.9492C46.3407 35.9223 46.3813 35.8807 46.402 35.8442C46.4227 35.8076 46.4035 35.7806 46.3702 35.7667C46.336 35.7524 46.2972 35.7752 46.2326 35.7749C46.1678 35.7739 46.1317 35.7762 46.0468 35.7637C45.9616 35.7506 45.9026 35.7576 45.8064 35.7123C45.7102 35.667 45.6612 35.632 45.5667 35.5375C45.4717 35.444 45.4243 35.3794 45.3337 35.2423C45.2423 35.1047 45.1996 35.0254 45.1114 34.8511C45.0224 34.6765 44.9753 34.5691 44.8907 34.3711C44.8062 34.1731 44.7613 34.0598 44.6888 33.861C44.6165 33.6628 44.5898 33.5517 44.529 33.379C44.4673 33.206 44.4394 33.1155 44.3829 32.9963C44.3264 32.8771 44.2912 32.8262 44.2469 32.7823C44.202 32.7386 44.1733 32.7454 44.1609 32.7767C44.1484 32.8081 44.1695 32.846 44.1837 32.9386C44.1977 33.0305 44.2187 33.0902 44.2314 33.2384C44.2451 33.387 44.25 33.488 44.25 33.6806C44.2492 33.8729 44.2535 33.9879 44.2293 34.2017C44.2055 34.4146 44.1875 34.5298 44.1294 34.7479C44.072 34.9659 44.0279 35.0891 43.9395 35.2916C43.8508 35.4934 43.7968 35.5855 43.6873 35.7579C43.5785 35.9302 43.5102 36.0188 43.3927 36.1536C43.2753 36.2884 43.2108 36.3518 43.0996 36.4322C42.9884 36.5125 42.9342 36.5366 42.836 36.5573C42.7374 36.5787 42.6934 36.5774 42.6086 36.5374C42.5237 36.4973 42.4764 36.461 42.4113 36.358C42.3456 36.2552 42.3171 36.1809 42.2806 36.0233C42.2445 35.8648 42.2334 35.7667 42.2293 35.5669C42.2259 35.3668 42.2295 35.2416 42.2619 35.0227C42.2947 34.8029 42.3252 34.678 42.3913 34.47C42.4578 34.2611 42.5061 34.1573 42.5929 33.9801C42.6805 33.8033 42.7279 33.7229 42.8272 33.5839C42.9264 33.4449 42.9828 33.3852 43.0892 33.2856C43.1957 33.1866 43.2566 33.1449 43.3594 33.0871C43.4628 33.0291 43.5089 33.0145 43.6039 32.9972C43.6988 32.9793 43.7449 32.9806 43.8332 32.9983C43.9211 33.017 43.9663 33.0476 44.0443 33.0886C44.1223 33.1297 44.1534 33.1654 44.2225 33.204C44.2907 33.2421 44.3398 33.2814 44.3883 33.2811C44.4367 33.2809 44.4684 33.2526 44.4653 33.2024Z" fill="#4F4013"/>
<path d="M49.1077 31.6767C49.1157 31.6311 49.0972 31.5864 49.0611 31.5112C49.0258 31.4364 49.0066 31.3797 48.9284 31.3003C48.8511 31.2213 48.7828 31.1731 48.6723 31.1164C48.5624 31.0594 48.5075 31.0439 48.3785 31.0157C48.25 30.9872 48.1739 30.9729 48.029 30.9729C47.8848 30.9726 47.8078 30.9761 47.6554 31.015C47.5031 31.0539 47.4204 31.0833 47.2673 31.1681C47.1134 31.2525 47.0306 31.3073 46.8876 31.4376C46.7447 31.568 46.6731 31.6477 46.5533 31.8196C46.4341 31.9912 46.3746 32.0941 46.292 32.2965C46.2085 32.4986 46.1769 32.6166 46.1383 32.8305C46.0991 33.0447 46.0823 33.1653 46.0982 33.3659C46.1133 33.5661 46.1352 33.6718 46.2145 33.8319C46.2948 33.9924 46.3603 34.0648 46.4971 34.1677C46.6332 34.2709 46.7239 34.3131 46.8986 34.3472C47.0732 34.3813 47.1816 34.3787 47.3701 34.3375C47.559 34.2954 47.6634 34.2479 47.843 34.1389C48.0232 34.0291 48.119 33.9485 48.27 33.7906C48.4217 33.6324 48.4869 33.5333 48.5993 33.349C48.7117 33.1646 48.7623 33.0592 48.8317 32.8681C48.9008 32.6763 48.9257 32.5738 48.9438 32.3912C48.962 32.2086 48.9558 32.1102 48.9217 31.9553C48.8871 31.8006 48.8454 31.7101 48.7717 31.6175C48.6988 31.5246 48.636 31.4895 48.5564 31.4917C48.476 31.4936 48.4171 31.5288 48.3723 31.6284C48.3267 31.7276 48.3032 31.818 48.329 31.9882C48.3549 32.1584 48.4101 32.2701 48.501 32.4795C48.5918 32.689 48.6611 32.8035 48.7836 33.0341C48.9056 33.2655 48.9734 33.382 49.1116 33.6358C49.2498 33.8896 49.3306 34.0238 49.4747 34.3036C49.6185 34.5829 49.6929 34.7353 49.8319 35.033C49.9707 35.3301 50.0428 35.4862 50.1692 35.7892C50.2961 36.0913 50.3616 36.2492 50.4655 36.5459C50.5691 36.842 50.6121 36.9936 50.6877 37.2724C50.7626 37.5514 50.7971 37.6916 50.8426 37.9394C50.8876 38.1881 50.9034 38.3069 50.9143 38.5136C50.9246 38.7206 50.9223 38.8134 50.8969 38.9741C50.8714 39.1347 50.8496 39.1999 50.7863 39.3164C50.7222 39.4325 50.6876 39.4726 50.5788 39.5557C50.4697 39.6397 50.3922 39.6774 50.2405 39.7341C50.0886 39.7903 50.0055 39.8126 49.8198 39.8376C49.6343 39.8632 49.5322 39.8672 49.3125 39.8604C49.0934 39.8534 48.955 39.8452 48.7228 39.8024C48.4898 39.7592 48.3605 39.7383 48.1491 39.6451C47.9371 39.5523 47.8324 39.4876 47.6641 39.336C47.4952 39.1847 47.4217 39.0942 47.3057 38.8895C47.189 38.6844 47.1411 38.5751 47.0821 38.3099C47.0226 38.0455 47.0163 37.8754 47.0089 37.5653C47.0012 37.256 47.0111 37.0886 47.0442 36.7623C47.0766 36.4361 47.1028 36.2578 47.173 35.9339C47.2432 35.6099 47.2918 35.4495 47.3935 35.1423C47.4955 34.8342 47.5498 34.6753 47.6814 34.3949C47.8133 34.115 47.8932 33.9867 48.0515 33.7414C48.2097 33.4961 48.3032 33.3751 48.4735 33.1689C48.6436 32.962 48.7339 32.8682 48.9023 32.7083C49.0716 32.5488 49.1564 32.4875 49.3169 32.3696C49.4776 32.2523 49.5588 32.2068 49.7062 32.1204C49.8529 32.0343 49.9256 32.0092 50.0531 31.9396C50.1807 31.8706 50.2931 31.8253 50.3444 31.7733C50.395 31.7215 50.3825 31.6833 50.3079 31.6794C50.2334 31.6754 50.1134 31.7039 49.9708 31.7538C49.8282 31.8036 49.7506 31.8391 49.5952 31.9292C49.439 32.0194 49.3552 32.0753 49.1909 32.2048C49.0266 32.3342 48.9431 32.4052 48.7734 32.5772C48.6043 32.7489 48.5136 32.8479 48.3434 33.0642C48.1731 33.2806 48.0808 33.4048 47.9216 33.6591C47.7627 33.9126 47.6825 34.0461 47.5491 34.3338C47.4163 34.6212 47.361 34.7833 47.2583 35.0974C47.1556 35.4115 47.1061 35.5737 47.0338 35.9035C46.9616 36.234 46.9331 36.4139 46.8968 36.7472C46.8602 37.0799 46.8473 37.2491 46.8515 37.5684C46.8559 37.8883 46.8578 38.0643 46.9178 38.3459C46.9771 38.6277 47.0255 38.7506 47.1491 38.9763C47.2734 39.2019 47.354 39.3058 47.5374 39.475C47.7214 39.644 47.8394 39.7175 48.0684 39.823C48.2974 39.9286 48.4362 39.9518 48.683 40.003C48.9298 40.0542 49.0683 40.0646 49.3018 40.0794C49.5356 40.0948 49.6443 40.1029 49.85 40.0793C50.0558 40.0557 50.1563 40.0335 50.3302 39.9622C50.5036 39.8917 50.5914 39.8343 50.7179 39.7245C50.8437 39.6148 50.8843 39.5552 50.9616 39.4118C51.039 39.2684 51.074 39.1898 51.1038 39.0073C51.1335 38.8248 51.1296 38.7205 51.1116 38.5003C51.0927 38.2798 51.0663 38.1598 51.0121 37.9058C50.9572 37.6521 50.9193 37.5124 50.8382 37.2305C50.7563 36.9483 50.7116 36.7958 50.6046 36.4966C50.4975 36.1968 50.4311 36.0385 50.3031 35.7332C50.1751 35.4279 50.1039 35.2706 49.9662 34.9703C49.828 34.6709 49.7542 34.516 49.6139 34.2326C49.4732 33.95 49.3936 33.8132 49.2637 33.5564C49.1343 33.2987 49.0694 33.1804 48.9645 32.9464C48.8602 32.7121 48.8126 32.5875 48.7402 32.385C48.6676 32.1819 48.6414 32.0763 48.6019 31.9322C48.563 31.7877 48.5562 31.7315 48.5453 31.6638C48.5341 31.5955 48.5359 31.5804 48.5465 31.5917C48.5572 31.603 48.5683 31.6374 48.5975 31.7194C48.6273 31.8012 48.6704 31.8717 48.6938 32.0015C48.7164 32.1309 48.7302 32.2105 48.7129 32.3675C48.6955 32.5245 48.669 32.6145 48.6064 32.7865C48.5441 32.9592 48.5021 33.0607 48.4005 33.2288C48.2995 33.3967 48.2383 33.4871 48.1008 33.6264C47.9641 33.766 47.8724 33.832 47.7149 33.9264C47.5576 34.0214 47.4695 34.0601 47.3144 34.0993C47.1592 34.1385 47.076 34.1427 46.9375 34.1223C46.7996 34.1016 46.729 34.073 46.6236 33.9963C46.5181 33.9196 46.4676 33.8685 46.4098 33.7397C46.3526 33.6106 46.3441 33.5239 46.3361 33.3509C46.3278 33.1772 46.3339 33.0649 46.3679 32.8721C46.4025 32.6792 46.4302 32.5684 46.5074 32.3867C46.5843 32.2044 46.6439 32.1139 46.7544 31.962C46.8647 31.8096 46.9325 31.7414 47.0595 31.627C47.1863 31.512 47.2579 31.462 47.3893 31.3873C47.5209 31.3132 47.5893 31.2882 47.7171 31.2554C47.8449 31.2226 47.9073 31.223 48.0285 31.2237C48.1495 31.2237 48.219 31.2338 48.3228 31.2583C48.4262 31.2836 48.4637 31.2989 48.5466 31.3476C48.6293 31.3957 48.6699 31.4395 48.7368 31.4998C48.8037 31.5602 48.8233 31.6001 48.88 31.6482C48.9373 31.6961 48.9765 31.734 49.0218 31.7392C49.0674 31.745 49.0997 31.7224 49.1077 31.6767Z" fill="#4F4013"/>
<path d="M52.0748 31.8418C52.1152 31.8393 52.1402 31.8186 52.1956 31.7738C52.2509 31.729 52.2804 31.6965 52.3518 31.6183C52.423 31.5395 52.4663 31.4933 52.5522 31.3816C52.6376 31.2701 52.6851 31.1977 52.7798 31.0603C52.875 30.922 52.936 30.8433 53.0274 30.6926C53.1188 30.542 53.1618 30.4553 53.2379 30.3066C53.3138 30.1573 53.3509 30.0822 53.4076 29.9478C53.4641 29.8128 53.4952 29.7493 53.5215 29.6325C53.5468 29.5154 53.5575 29.4572 53.5359 29.3622C53.5143 29.2673 53.4862 29.2181 53.4135 29.1577C53.3414 29.0971 53.2878 29.0732 53.1753 29.0606C53.0626 29.0474 52.9962 29.0542 52.8507 29.0921C52.7046 29.1302 52.608 29.1632 52.446 29.2513C52.2836 29.3402 52.198 29.3975 52.0396 29.5349C51.8818 29.6721 51.8026 29.7589 51.655 29.938C51.5076 30.1178 51.4248 30.2183 51.3018 30.4311C51.1784 30.6449 51.1183 30.774 51.0391 31.0056C50.9593 31.2375 50.9246 31.3689 50.9044 31.5914C50.8848 31.8137 50.8878 31.9234 50.9389 32.1169C50.9901 32.3112 51.0363 32.416 51.1609 32.561C51.2862 32.7058 51.3803 32.7635 51.5633 32.8423C51.7467 32.9203 51.8527 32.9367 52.0774 32.9532C52.3026 32.9689 52.4397 32.9616 52.6879 32.9232C52.9361 32.8849 53.0745 32.8474 53.319 32.7612C53.5634 32.6749 53.687 32.6146 53.9102 32.4919C54.1335 32.3693 54.2433 32.2952 54.4347 32.1486C54.626 32.0021 54.7176 31.9216 54.8661 31.7588C55.0146 31.596 55.085 31.503 55.176 31.3336C55.2671 31.1643 55.2905 31.0696 55.3202 30.911C55.35 30.7524 55.3446 30.6798 55.3256 30.5404C55.306 30.4012 55.2805 30.3273 55.225 30.2128C55.1688 30.0986 55.1183 30.0453 55.0477 29.9689C54.9769 29.8919 54.9365 29.8704 54.872 29.8288C54.8072 29.788 54.7649 29.7635 54.7236 29.7634C54.6829 29.763 54.6614 29.7875 54.666 29.8278C54.6699 29.8684 54.7031 29.9077 54.7445 29.9658C54.7866 30.0236 54.8181 30.0483 54.8741 30.1184C54.9292 30.1881 54.9743 30.2245 55.0227 30.3155C55.0717 30.4063 55.1002 30.4604 55.1181 30.5712C55.1361 30.6819 55.1413 30.738 55.1125 30.8694C55.084 31 55.0575 31.0763 54.9761 31.2262C54.8952 31.3759 54.8398 31.4642 54.7076 31.6182C54.5746 31.7717 54.4918 31.8526 54.3137 31.9936C54.1358 32.1352 54.0304 32.2077 53.8182 32.3249C53.6064 32.4412 53.4866 32.498 53.2544 32.5761C53.0224 32.6549 52.8898 32.6866 52.6578 32.7176C52.4258 32.7487 52.2966 32.748 52.0949 32.731C51.8932 32.714 51.8044 32.695 51.65 32.6332C51.4957 32.5715 51.422 32.5361 51.3223 32.4218C51.2221 32.3077 51.1911 32.2248 51.15 32.0624C51.1089 31.9 51.0998 31.8077 51.1167 31.6096C51.1338 31.4122 51.1613 31.287 51.2343 31.0721C51.3075 30.8578 51.3632 30.7346 51.4808 30.5368C51.5991 30.3387 51.6795 30.2434 51.8235 30.0823C51.9666 29.9207 52.0496 29.8463 52.2004 29.7297C52.3511 29.6125 52.4307 29.5726 52.5764 29.4977C52.7229 29.4226 52.8117 29.3982 52.9313 29.3546C53.0508 29.311 53.0978 29.2931 53.1733 29.2815C53.2494 29.2697 53.2736 29.2746 53.311 29.2957C53.3484 29.3169 53.3607 29.3327 53.3614 29.3882C53.3621 29.4437 53.3489 29.4811 53.3145 29.5733C53.2809 29.666 53.251 29.7268 53.1907 29.8495C53.1304 29.9721 53.0927 30.0475 53.0148 30.1874C52.9363 30.3276 52.8926 30.4065 52.7997 30.549C52.7069 30.6915 52.645 30.7662 52.5499 30.8986C52.4555 31.0308 52.4083 31.1002 52.326 31.2099C52.2436 31.3196 52.1991 31.3604 52.1389 31.4476C52.0778 31.5343 52.051 31.5759 52.0221 31.6437C51.9932 31.7114 51.9847 31.7457 51.9949 31.7854C52.0056 31.825 52.035 31.8439 52.0748 31.8418Z" fill="#4F4013"/>
<path d="M54.9985 28.8167C54.9835 28.8468 54.9896 28.8677 55.0014 28.9177C55.0135 28.9669 55.0213 28.9902 55.0578 29.0645C55.0934 29.1384 55.1281 29.1858 55.1821 29.2863C55.2364 29.3875 55.2769 29.4408 55.3276 29.5679C55.3785 29.6956 55.3963 29.7703 55.4358 29.9224C55.4758 30.0737 55.4946 30.161 55.5276 30.3271C55.5607 30.4932 55.5716 30.5906 55.6011 30.7529C55.6297 30.9149 55.64 31.0067 55.6725 31.1375C55.7048 31.2677 55.7218 31.3361 55.7631 31.4058C55.8045 31.4754 55.8409 31.494 55.8799 31.4856C55.9179 31.4768 55.9425 31.441 55.9561 31.3629C55.9694 31.2842 55.9619 31.2239 55.9462 31.0935C55.9298 30.9633 55.9122 30.8712 55.8759 30.7121C55.8394 30.5523 55.8004 30.4615 55.7637 30.2953C55.727 30.1291 55.7133 30.0457 55.6942 29.8803C55.6745 29.7151 55.6675 29.6322 55.6657 29.4685C55.6648 29.3051 55.6724 29.2206 55.6886 29.0626C55.7049 28.9045 55.7067 28.8162 55.7476 28.6782C55.7879 28.5404 55.8218 28.4824 55.8897 28.3729C55.9577 28.2634 55.995 28.2128 56.0874 28.1306C56.1805 28.0481 56.2384 28.0104 56.3527 27.9622C56.4675 27.9138 56.5331 27.8971 56.6612 27.8888C56.7895 27.8811 56.8573 27.8882 56.9949 27.9221C57.1321 27.9568 57.2096 27.9865 57.3483 28.0611C57.4871 28.1358 57.5594 28.187 57.6902 28.2957C57.8207 28.4052 57.8863 28.4719 58.0016 28.6072C58.1171 28.7433 58.173 28.8171 58.2663 28.9757C58.36 29.1334 58.3938 29.2261 58.4693 29.3992C58.5449 29.5729 58.5751 29.6756 58.6442 29.8431C58.7139 30.0103 58.751 30.0902 58.8151 30.2363C58.8792 30.3824 58.9054 30.4561 58.9649 30.5735C59.0247 30.69 59.0616 30.7453 59.1145 30.8209C59.167 30.8974 59.1865 30.9171 59.2286 30.9531C59.2703 30.9901 59.2962 31.0016 59.3243 31.003C59.3529 31.0041 59.366 30.9863 59.3698 30.961C59.3727 30.9353 59.3572 30.9243 59.3412 30.8766C59.3258 30.8286 59.3273 30.8027 59.2927 30.7219C59.2591 30.6415 59.2227 30.5895 59.1704 30.4739C59.1181 30.3583 59.0914 30.2891 59.0314 30.1444C58.9721 29.9994 58.9399 29.9192 58.8732 29.7502C58.8065 29.5811 58.7761 29.4799 58.6975 29.3C58.6179 29.1197 58.5794 29.0201 58.4789 28.8496C58.3777 28.6794 58.317 28.5965 58.1923 28.4472C58.0668 28.2974 57.9977 28.2234 57.8521 28.1019C57.707 27.9803 57.6258 27.9223 57.4657 27.8387C57.3058 27.7558 57.2156 27.7228 57.0514 27.6857C56.8872 27.6485 56.803 27.6401 56.6451 27.652C56.4864 27.6636 56.4015 27.6829 56.2596 27.7448C56.1178 27.8067 56.048 27.8596 55.9359 27.9613C55.8236 28.0624 55.7818 28.1226 55.6984 28.2515C55.6153 28.381 55.5706 28.4509 55.5198 28.6077C55.4694 28.7652 55.4635 28.8644 55.4444 29.0364C55.4253 29.2085 55.4239 29.296 55.4251 29.4701C55.4255 29.6437 55.4333 29.7307 55.4483 29.9048C55.4628 30.0799 55.474 30.1699 55.4988 30.3434C55.5239 30.5175 55.5455 30.6103 55.5743 30.7728C55.6032 30.9354 55.6058 31.03 55.6436 31.1575C55.6818 31.2841 55.7179 31.3433 55.7647 31.4081C55.8121 31.4726 55.8453 31.4881 55.879 31.4794C55.913 31.4713 55.9269 31.4438 55.9349 31.3663C55.9422 31.289 55.9324 31.2245 55.9169 31.0926C55.9022 30.9611 55.8851 30.8724 55.8597 30.7093C55.8334 30.5458 55.8203 30.4463 55.7871 30.2759C55.7539 30.1055 55.7327 30.0176 55.6929 29.8569C55.6535 29.6953 55.6381 29.6133 55.5883 29.4707C55.5387 29.3287 55.5042 29.258 55.4445 29.1458C55.385 29.0342 55.346 28.9811 55.2901 28.9131C55.2342 28.8452 55.2066 28.8349 55.164 28.8056C55.1214 28.7762 55.1105 28.7642 55.0779 28.766C55.0448 28.7687 55.0136 28.7865 54.9985 28.8167Z" fill="#4F4013"/>
<path d="M17.3938 39.8372C17.3478 39.8163 17.2892 39.8166 17.1919 39.8318C17.0938 39.8466 17.0266 39.861 16.9059 39.9115C16.7853 39.962 16.712 39.9974 16.5873 40.0842C16.4618 40.1712 16.409 40.2209 16.2805 40.3453C16.1514 40.4698 16.0784 40.5399 15.944 40.7055C15.8094 40.8705 15.7367 40.9672 15.6073 41.1723C15.4785 41.3772 15.4109 41.4916 15.299 41.7309C15.1871 41.9701 15.1395 42.1077 15.0481 42.3677C14.9571 42.6283 14.9097 42.7586 14.8446 43.0329C14.7789 43.3074 14.7511 43.4595 14.7217 43.7404C14.6914 44.0208 14.6871 44.168 14.6946 44.4368C14.7028 44.7054 14.7171 44.832 14.7614 45.0845C14.8065 45.3375 14.8364 45.4729 14.9189 45.6992C15.0021 45.9252 15.0523 46.0351 15.175 46.2148C15.2978 46.3946 15.3721 46.4732 15.5323 46.5988C15.6925 46.7243 15.7802 46.78 15.9754 46.8427C16.1709 46.9061 16.2904 46.914 16.5097 46.9137C16.7297 46.9131 16.8422 46.896 17.0738 46.842C17.3054 46.7879 17.4239 46.7396 17.6675 46.645C17.9102 46.55 18.0424 46.4894 18.2902 46.3687C18.5383 46.2485 18.6654 46.184 18.9073 46.043C19.1498 45.9017 19.2875 45.8065 19.5007 45.6643C19.7132 45.5224 19.8237 45.456 19.9714 45.3326C20.1197 45.209 20.1974 45.1184 20.2407 45.0483C20.2839 44.9782 20.2652 44.9568 20.1882 44.982C20.1106 45.0074 20.0131 45.0697 19.8535 45.1743C19.6948 45.2792 19.6001 45.363 19.3929 45.5059C19.1858 45.6488 19.0536 45.7492 18.8171 45.889C18.5808 46.0295 18.4558 46.0917 18.2125 46.2072C17.9691 46.3221 17.8364 46.3792 17.6001 46.4661C17.3629 46.5526 17.2472 46.5947 17.0292 46.6402C16.8118 46.6855 16.7083 46.6957 16.5111 46.693C16.3141 46.691 16.2135 46.6813 16.0441 46.6279C15.8754 46.5743 15.8057 46.5324 15.6663 46.426C15.5269 46.3197 15.4596 46.2545 15.3467 46.0958C15.2335 45.9364 15.1815 45.8395 15.1004 45.6308C15.0192 45.4222 14.9861 45.2916 14.9391 45.0516C14.893 44.812 14.878 44.6893 14.8684 44.4306C14.8581 44.1722 14.8625 44.0294 14.8911 43.7582C14.9195 43.4865 14.9455 43.3394 15.0106 43.073C15.0757 42.8067 15.1234 42.6792 15.2156 42.4276C15.3077 42.176 15.3574 42.042 15.4713 41.8143C15.5844 41.5862 15.6533 41.4793 15.7847 41.2894C15.9165 41.0987 15.9942 41.0138 16.1286 40.862C16.2629 40.7102 16.3347 40.6427 16.4559 40.5304C16.5763 40.4177 16.6203 40.3734 16.7325 40.2999C16.8452 40.2255 16.9102 40.2112 17.0164 40.1609C17.1227 40.1106 17.1825 40.0938 17.2639 40.0489C17.3453 40.004 17.3977 39.9791 17.4234 39.9364C17.4494 39.8944 17.4404 39.8578 17.3938 39.8372Z" stroke="#4F4013" stroke-width="0.5"/>
<path d="M23.1059 42.0139C23.1282 41.9797 23.1373 41.9409 23.1244 41.8739C23.1113 41.8063 23.0931 41.7542 23.0412 41.6776C22.9893 41.6009 22.9495 41.5553 22.866 41.4909C22.7824 41.4265 22.7341 41.3934 22.6237 41.3569C22.5134 41.3204 22.4489 41.3105 22.315 41.3087C22.1811 41.3068 22.1156 41.3061 21.9552 41.3487C21.7951 41.3904 21.6931 41.4225 21.5131 41.5186C21.3324 41.6149 21.2422 41.6854 21.0549 41.8291C20.8671 41.9736 20.7631 42.0557 20.5756 42.2385C20.388 42.4213 20.2826 42.5315 20.1181 42.7436C19.9531 42.9565 19.8707 43.072 19.752 43.3007C19.6331 43.5288 19.5788 43.6558 19.5245 43.8863C19.47 44.1162 19.4611 44.2426 19.4796 44.4523C19.4984 44.6628 19.5266 44.7618 19.6182 44.9356C19.7092 45.1095 19.7766 45.203 19.9363 45.3214C20.0961 45.4399 20.2062 45.4895 20.4172 45.5278C20.6287 45.5658 20.7561 45.5577 20.994 45.5129C21.2325 45.468 21.3678 45.4237 21.6085 45.3033C21.8488 45.1838 21.9702 45.0918 22.1964 44.9137C22.422 44.7358 22.5413 44.63 22.7363 44.4141C22.9319 44.1979 23.0273 44.074 23.1722 43.8321C23.3166 43.5905 23.3735 43.4466 23.4591 43.2047C23.5444 42.9621 23.5767 42.838 23.5977 42.6218C23.6195 42.4053 23.608 42.2965 23.5657 42.1229C23.5228 41.9495 23.4778 41.8718 23.3837 41.7547C23.2898 41.6383 23.2209 41.6004 23.0957 41.5389C22.9704 41.4774 22.8951 41.4614 22.7569 41.4481C22.6186 41.4341 22.5333 41.4406 22.4042 41.4717C22.2759 41.5033 22.2045 41.5438 22.1145 41.6049C22.0247 41.6666 21.9947 41.7173 21.9553 41.7781C21.9159 41.8388 21.9152 41.8745 21.9183 41.9089C21.922 41.943 21.9425 41.9515 21.9728 41.9491C22.0033 41.9474 22.0186 41.9259 22.0711 41.8988C22.1235 41.8717 22.156 41.8497 22.2346 41.8131C22.3139 41.7762 22.3641 41.7413 22.4648 41.7154C22.5663 41.69 22.6326 41.681 22.7413 41.6834C22.8503 41.6863 22.9122 41.6913 23.0098 41.7303C23.1079 41.7691 23.1597 41.79 23.2308 41.8778C23.3013 41.9658 23.3316 42.025 23.3636 42.1705C23.3955 42.3153 23.4075 42.408 23.3917 42.6028C23.376 42.7982 23.3585 42.9169 23.2848 43.1458C23.2115 43.3739 23.159 43.514 23.0239 43.745C22.8893 43.9759 22.7979 44.0947 22.6108 44.3005C22.4237 44.5063 22.305 44.6076 22.0877 44.7744C21.8709 44.9404 21.7514 45.026 21.5252 45.1324C21.2991 45.2394 21.1716 45.2729 20.9581 45.3073C20.7447 45.3417 20.6365 45.337 20.458 45.3043C20.2802 45.2714 20.197 45.2358 20.0674 45.1426C19.9369 45.0489 19.8826 44.9775 19.8078 44.836C19.7328 44.6939 19.7108 44.6136 19.6932 44.4324C19.6751 44.2514 19.6726 44.1394 19.718 43.9302C19.7627 43.7212 19.8093 43.6007 19.9195 43.3867C20.0291 43.1729 20.1078 43.0609 20.2662 42.8597C20.4248 42.6592 20.5284 42.5519 20.7119 42.3821C20.8962 42.2121 21.0014 42.1353 21.1858 42.0094C21.3696 41.8838 21.4649 41.8353 21.6333 41.7528C21.8008 41.67 21.8881 41.6375 22.0247 41.597C22.1611 41.556 22.2122 41.5511 22.3163 41.5486C22.4196 41.5458 22.4685 41.5547 22.5442 41.5836C22.6197 41.6118 22.6411 41.6388 22.6938 41.692C22.7463 41.7446 22.7628 41.7899 22.8081 41.8466C22.853 41.9041 22.8793 41.9365 22.92 41.9767C22.9614 42.0166 22.9762 42.0395 23.0136 42.0468C23.0505 42.0544 23.0839 42.0487 23.1059 42.0139Z" stroke="#4F4013" stroke-width="0.5"/>
<path d="M24.5853 40.4959C24.5698 40.5132 24.5702 40.4942 24.559 40.5331C24.5478 40.5719 24.5194 40.6033 24.5306 40.6897C24.5415 40.777 24.5727 40.8387 24.6137 40.9672C24.6548 41.0956 24.6781 41.1675 24.736 41.3303C24.7933 41.4934 24.824 41.5894 24.9021 41.7818C24.9802 41.9742 25.0343 42.0768 25.126 42.2925C25.218 42.5089 25.2659 42.6225 25.3614 42.8607C25.4566 43.0997 25.499 43.2298 25.6015 43.4872C25.7045 43.7437 25.763 43.8824 25.8739 44.1468C25.9851 44.4119 26.0489 44.5531 26.1562 44.8116C26.2633 45.0695 26.3198 45.2046 26.4107 45.4379C26.5007 45.6709 26.537 45.7924 26.6087 45.977C26.6804 46.1616 26.7122 46.247 26.7679 46.36C26.8242 46.4727 26.855 46.5093 26.8885 46.5398C26.9223 46.5709 26.94 46.5579 26.9362 46.5137C26.9326 46.4701 26.9199 46.4233 26.8703 46.319C26.8209 46.2153 26.7879 46.1427 26.6888 45.9941C26.5897 45.8456 26.5051 45.7605 26.3756 45.576C26.2466 45.3913 26.1678 45.2824 26.0423 45.0711C25.9164 44.8592 25.8623 44.7464 25.7472 44.5182C25.6321 44.2901 25.5785 44.1727 25.4663 43.9305C25.354 43.6883 25.2909 43.5628 25.1858 43.3085C25.0808 43.0543 25.029 42.9182 24.9414 42.6582C24.8533 42.3985 24.8106 42.2656 24.7477 42.0097C24.6841 41.7541 24.6527 41.6222 24.6246 41.3804C24.5959 41.1388 24.5944 41.0155 24.6059 40.8027C24.6172 40.5893 24.6375 40.4921 24.6807 40.3148C24.7246 40.1373 24.7471 40.056 24.8239 39.915C24.9007 39.774 24.9528 39.7123 25.0653 39.6097C25.1775 39.5065 25.2468 39.466 25.3851 39.4004C25.5242 39.3352 25.5982 39.3096 25.7587 39.283C25.9183 39.2559 26.0122 39.2513 26.1852 39.265C26.3582 39.2787 26.4611 39.2948 26.6244 39.3511C26.7869 39.4077 26.8628 39.4489 26.9988 39.5477C27.1348 39.6466 27.1968 39.7094 27.3035 39.8451C27.4104 39.9813 27.4643 40.0616 27.5329 40.2278C27.6018 40.3931 27.626 40.4951 27.648 40.6747C27.67 40.8542 27.667 40.9473 27.6432 41.1262C27.6194 41.3051 27.5936 41.4014 27.5297 41.5695C27.4657 41.7377 27.4248 41.82 27.3239 41.9683C27.2227 42.116 27.153 42.1849 27.0236 42.3088C26.8952 42.4332 26.8197 42.4962 26.681 42.5887C26.5418 42.6815 26.4578 42.7172 26.3282 42.7732C26.1987 42.8291 26.1362 42.8483 26.033 42.8692C25.9299 42.8902 25.8789 42.8856 25.8118 42.8782C25.7449 42.8715 25.7219 42.856 25.6975 42.833C25.6726 42.8102 25.6908 42.7927 25.6894 42.765C25.6886 42.737 25.692 42.7126 25.6911 42.6941C25.6904 42.6763 25.6864 42.6871 25.6858 42.6736C25.686 42.6605 25.7004 42.6523 25.6912 42.6289C25.6817 42.6048 25.6651 42.5674 25.6379 42.5563C25.6116 42.5457 25.5842 42.552 25.5569 42.5743C25.5295 42.5966 25.5111 42.6236 25.5014 42.6684C25.4919 42.7139 25.4942 42.7442 25.5098 42.8008C25.5256 42.858 25.5272 42.898 25.5795 42.9521C25.6324 43.0059 25.6759 43.0437 25.7737 43.0695C25.8708 43.0957 25.9383 43.0979 26.0672 43.082C26.1959 43.0655 26.2666 43.0469 26.4165 42.9894C26.5664 42.9318 26.6601 42.8948 26.8153 42.794C26.9711 42.693 27.0535 42.6231 27.1952 42.4853C27.3366 42.3468 27.4119 42.2693 27.5237 42.1033C27.6346 41.9368 27.6815 41.8429 27.7531 41.6539C27.8246 41.4648 27.8536 41.3594 27.88 41.1579C27.9071 40.9561 27.9115 40.8509 27.8874 40.646C27.8628 40.4414 27.8377 40.323 27.7577 40.1335C27.6786 39.9444 27.6134 39.853 27.4894 39.6976C27.3656 39.5429 27.2948 39.4738 27.1381 39.3579C26.9821 39.2417 26.8942 39.1875 26.7074 39.1181C26.5208 39.0492 26.4029 39.0278 26.2042 39.0133C26.0056 38.9988 25.8989 39.0102 25.715 39.0461C25.5312 39.0821 25.445 39.112 25.2843 39.1916C25.1236 39.2712 25.0423 39.3204 24.9115 39.4442C24.7806 39.568 24.7199 39.6458 24.6313 39.81C24.5427 39.9741 24.5128 40.0668 24.4675 40.2644C24.4227 40.4611 24.4114 40.5673 24.4062 40.7952C24.4015 41.0228 24.4075 41.1525 24.4419 41.4035C24.4765 41.6553 24.5106 41.7906 24.5786 42.0526C24.6458 42.3141 24.6891 42.449 24.779 42.7131C24.8688 42.9773 24.9213 43.1153 25.0265 43.3739C25.132 43.6316 25.1956 43.7583 25.306 44.0034C25.4172 44.2489 25.4687 44.3663 25.5801 44.6002C25.6912 44.8334 25.7442 44.951 25.8619 45.1724C25.9796 45.3938 26.0549 45.509 26.1685 45.7073C26.2821 45.9056 26.3313 46.0108 26.4292 46.1641C26.5276 46.3165 26.5715 46.3853 26.6602 46.4717C26.748 46.5577 26.8061 46.5858 26.8714 46.596C26.936 46.6065 26.967 46.5843 26.9843 46.5222C27.0011 46.4611 26.9892 46.4147 26.9551 46.2895C26.9217 46.1641 26.889 46.0804 26.8143 45.8955C26.7399 45.7111 26.6825 45.5974 26.5826 45.3673C26.4825 45.1365 26.4254 45.0017 26.3149 44.7443C26.2046 44.4876 26.1406 44.3458 26.0312 44.0815C25.9211 43.8175 25.8646 43.6802 25.7663 43.4228C25.6681 43.1653 25.6278 43.0351 25.5395 42.7928C25.4514 42.5512 25.4061 42.433 25.3255 42.214C25.2447 41.9943 25.2006 41.8895 25.1365 41.6956C25.0723 41.5017 25.0514 41.4087 25.0046 41.2447C24.9578 41.0807 24.9419 41.0032 24.9028 40.8762C24.864 40.7499 24.845 40.6917 24.8094 40.6119C24.7735 40.5316 24.7592 40.51 24.724 40.4772C24.6891 40.445 24.6631 40.4451 24.6354 40.4487C24.6071 40.4525 24.6003 40.4796 24.5853 40.4959Z" stroke="#4F4013" stroke-width="0.5"/>
<path d="M29.6142 41.7061C29.6474 41.7157 29.6717 41.717 29.7249 41.6881C29.7777 41.6602 29.8145 41.6359 29.8803 41.5641C29.9452 41.4919 29.9811 41.4433 30.0507 41.3282C30.1202 41.213 30.1553 41.1386 30.2269 40.9873C30.2993 40.8363 30.3362 40.7468 30.4099 40.5736C30.4836 40.4004 30.5226 40.3087 30.5953 40.1229C30.6685 39.9362 30.7087 39.8281 30.7741 39.642C30.8389 39.4561 30.8723 39.365 30.9212 39.1915C30.9702 39.0179 31.0016 38.9311 31.0193 38.7733C31.0375 38.6146 31.0369 38.5315 31.0115 38.4003C30.9854 38.2693 30.9561 38.2126 30.8902 38.1193C30.8234 38.0256 30.7794 37.9845 30.6803 37.933C30.5814 37.8822 30.5161 37.8661 30.3953 37.8645C30.2743 37.8623 30.2107 37.8805 30.0762 37.923C29.9421 37.9661 29.8683 37.9923 29.7239 38.079C29.5793 38.165 29.4945 38.2184 29.3535 38.356C29.2123 38.493 29.144 38.5917 29.0184 38.7657C28.8931 38.9403 28.829 39.0267 28.7267 39.2269C28.6243 39.4265 28.5791 39.5509 28.5067 39.7656C28.4344 39.9803 28.3963 40.0963 28.3639 40.3015C28.3312 40.5075 28.3302 40.6121 28.3435 40.7934C28.3567 40.9747 28.3666 41.0573 28.43 41.2095C28.4941 41.3613 28.5482 41.4401 28.6626 41.5534C28.7766 41.6675 28.8464 41.7138 29.0021 41.7772C29.1571 41.8409 29.2478 41.8592 29.4382 41.8731C29.6291 41.886 29.7436 41.8783 29.9549 41.844C30.1661 41.8097 30.2816 41.7806 30.495 41.7006C30.7076 41.6202 30.8137 41.5598 31.0205 41.4416C31.2266 41.3237 31.3333 41.2529 31.5254 41.1105C31.7178 40.9686 31.8178 40.8894 31.9823 40.7309C32.1465 40.5733 32.2246 40.4876 32.346 40.3202C32.4681 40.1525 32.5162 40.064 32.5907 39.8928C32.6649 39.7209 32.6885 39.6289 32.7166 39.4616C32.7444 39.2935 32.7397 39.2112 32.7308 39.0537C32.7228 38.8966 32.7025 38.8192 32.6737 38.6748C32.6447 38.5296 32.6257 38.4576 32.5864 38.33C32.5471 38.2024 32.5198 38.1435 32.4787 38.0368C32.4374 37.9295 32.4182 37.8808 32.3818 37.7948C32.3447 37.7091 32.3347 37.6657 32.2954 37.6076C32.2559 37.5489 32.2303 37.5184 32.1855 37.5028C32.1407 37.4873 32.1012 37.4959 32.0728 37.5294C32.0443 37.5623 32.0361 37.6015 32.0445 37.6701C32.0522 37.739 32.0697 37.779 32.1126 37.8727C32.1554 37.9665 32.1989 38.0201 32.2591 38.1394C32.3183 38.2583 32.3514 38.3252 32.4116 38.4683C32.4724 38.6113 32.5012 38.7 32.5617 38.8561C32.6226 39.0113 32.6535 39.0978 32.7134 39.2462C32.7741 39.395 32.8108 39.4757 32.8638 39.5991C32.9165 39.7218 32.9338 39.785 32.9774 39.8611C33.0211 39.9371 33.0382 39.9642 33.0817 39.9802C33.1243 39.9958 33.1582 39.9893 33.1929 39.9397C33.2279 39.8907 33.2432 39.8453 33.2563 39.734C33.2687 39.6231 33.263 39.544 33.2571 39.3847C33.2511 39.2254 33.2354 39.1246 33.2267 38.938C33.2187 38.7512 33.2093 38.6518 33.2159 38.4517C33.222 38.2518 33.2316 38.1353 33.2575 37.9382C33.2841 37.741 33.3023 37.6438 33.347 37.4667C33.3918 37.2896 33.4145 37.1988 33.4809 37.0514C33.5477 36.9047 33.5912 36.8454 33.6806 36.731C33.7693 36.6168 33.8251 36.5595 33.9273 36.4802C34.0304 36.4013 34.0867 36.375 34.1942 36.3343C34.3018 36.2937 34.3561 36.2797 34.4647 36.2777C34.5731 36.2751 34.6314 36.2821 34.737 36.3232C34.8428 36.3651 34.8956 36.4008 34.9925 36.4857C35.09 36.5704 35.1375 36.6233 35.2232 36.747C35.3098 36.8712 35.3483 36.9469 35.4237 37.1041C35.4991 37.2613 35.5377 37.3573 35.6002 37.5344C35.6619 37.7118 35.6881 37.8094 35.7345 37.9902C35.7803 38.1712 35.7943 38.2675 35.8299 38.4385C35.8655 38.6095 35.8761 38.7041 35.9121 38.8445C35.9485 38.984 35.9706 39.0607 36.0113 39.1385C36.052 39.2164 36.0861 39.2185 36.116 39.2329C36.1457 39.2467 36.152 39.2364 36.1612 39.2099C36.1695 39.183 36.163 39.181 36.1613 39.099C36.1595 39.0164 36.1694 38.9404 36.1523 38.7982C36.1345 38.6562 36.1078 38.5631 36.0733 38.3888C36.0389 38.2152 36.0263 38.117 35.9801 37.9289C35.9342 37.7414 35.9078 37.6373 35.8438 37.4499C35.779 37.2621 35.741 37.16 35.6575 36.9906C35.5746 36.8209 35.5289 36.7391 35.4271 36.601C35.3253 36.4629 35.2707 36.3987 35.1489 36.299C35.0273 36.2 34.9563 36.1542 34.8183 36.1053C34.6802 36.0564 34.5991 36.0505 34.4587 36.0547C34.3189 36.0586 34.251 36.0768 34.1167 36.1258C33.9831 36.1745 33.913 36.2066 33.7897 36.2994C33.6663 36.3921 33.6039 36.4591 33.501 36.59C33.3974 36.7212 33.3508 36.7918 33.2727 36.955C33.1952 37.118 33.1622 37.2162 33.112 37.4061C33.0618 37.5961 33.0503 37.6995 33.0212 37.9057C32.9923 38.1125 32.9823 38.232 32.9663 38.4384C32.9512 38.6453 32.9489 38.7482 32.9433 38.9393C32.9372 39.1312 32.9313 39.2341 32.9375 39.3962C32.9429 39.5579 32.9476 39.6402 32.9713 39.7489C32.9959 39.858 33.0239 39.8992 33.0591 39.94C33.0933 39.9803 33.1228 39.9797 33.1457 39.9511C33.1692 39.9222 33.1852 39.8846 33.1747 39.7964C33.1649 39.708 33.1389 39.6385 33.0948 39.5098C33.0508 39.381 33.0109 39.3014 32.9542 39.1519C32.8975 39.0023 32.8687 38.9194 32.812 38.7619C32.7553 38.6045 32.7271 38.5133 32.6689 38.3636C32.6109 38.2146 32.5781 38.1404 32.5212 38.0141C32.4636 37.8881 32.436 37.8243 32.384 37.7332C32.3321 37.6427 32.3109 37.6063 32.2618 37.5612C32.2126 37.5154 32.1763 37.5033 32.1379 37.5072C32.0994 37.5111 32.077 37.541 32.0706 37.581C32.0633 37.6205 32.0808 37.6467 32.1025 37.7062C32.1236 37.7659 32.1442 37.7967 32.1756 37.8787C32.2078 37.9611 32.2245 38.013 32.261 38.117C32.2975 38.221 32.3225 38.2778 32.3586 38.3986C32.395 38.52 32.4128 38.5888 32.4413 38.7226C32.4707 38.8567 32.4925 38.9284 32.5037 39.0685C32.5145 39.2093 32.5208 39.2781 32.4969 39.4251C32.473 39.5721 32.45 39.65 32.3841 39.803C32.3176 39.9562 32.2746 40.0348 32.1646 40.1901C32.0549 40.346 31.9868 40.4295 31.8346 40.5799C31.6825 40.7309 31.5863 40.8087 31.4029 40.9451C31.2192 41.0809 31.1144 41.151 30.9173 41.2598C30.721 41.3691 30.6187 41.4223 30.4192 41.4907C30.219 41.5594 30.112 41.5759 29.9191 41.6029C29.7259 41.6291 29.6198 41.6302 29.4528 41.623C29.2855 41.6152 29.2107 41.6106 29.0835 41.5657C28.9555 41.5204 28.9063 41.4848 28.8149 41.3972C28.7238 41.3102 28.6763 41.2514 28.6262 41.1278C28.5762 41.0048 28.5709 40.9386 28.5646 40.7802C28.5578 40.6226 28.5629 40.5273 28.5934 40.3387C28.6242 40.1493 28.6508 40.0375 28.7171 39.8359C28.784 39.6341 28.8272 39.5162 28.9262 39.3309C29.0247 39.1465 29.0893 39.0672 29.2119 38.911C29.3345 38.7547 29.4093 38.6717 29.5393 38.5497C29.6687 38.4279 29.7364 38.3793 29.8599 38.3009C29.9843 38.223 30.0507 38.2024 30.1593 38.1606C30.2679 38.1189 30.3158 38.1014 30.4023 38.0923C30.4897 38.0836 30.5277 38.0886 30.5929 38.1162C30.6586 38.1437 30.687 38.1659 30.7293 38.2302C30.7719 38.2935 30.7911 38.3322 30.8045 38.4345C30.8173 38.537 30.8166 38.6046 30.7935 38.7419C30.7707 38.8799 30.741 38.9595 30.6899 39.123C30.6393 39.2863 30.6051 39.377 30.5387 39.5584C30.4727 39.7389 30.4352 39.8467 30.36 40.0276C30.2848 40.2086 30.2401 40.2966 30.1627 40.4639C30.0854 40.6311 30.0453 40.7196 29.9731 40.8633C29.9015 41.0067 29.8662 41.0746 29.8029 41.181C29.7404 41.2878 29.7057 41.3236 29.6597 41.3961C29.6146 41.4691 29.5965 41.4967 29.5759 41.5455C29.5553 41.5943 29.549 41.6067 29.5563 41.6388C29.5643 41.6707 29.5801 41.6961 29.6142 41.7061Z" stroke="#4F4013" stroke-width="0.5"/>
<path d="M35.4124 32.1605C35.408 32.1903 35.4258 32.1853 35.4431 32.2348C35.4597 32.2845 35.4534 32.3107 35.4981 32.4074C35.5436 32.5045 35.5817 32.5652 35.6684 32.7197C35.7556 32.8733 35.8279 32.9664 35.9335 33.1763C36.0386 33.3871 36.09 33.5161 36.195 33.7704C36.2996 34.0256 36.3528 34.1655 36.457 34.4491C36.5611 34.7326 36.6163 34.8899 36.7151 35.1885C36.814 35.4878 36.8542 35.6476 36.9503 35.9428C37.0464 36.2381 37.1005 36.3885 37.1954 36.6646C37.2905 36.9413 37.3416 37.0813 37.4254 37.3252C37.5097 37.5682 37.5418 37.692 37.6175 37.8816C37.6932 38.0713 37.7388 38.1546 37.803 38.2731C37.8676 38.3908 37.8912 38.4315 37.9384 38.4736C37.9859 38.5164 38.0103 38.5198 38.0403 38.485C38.0706 38.4508 38.0938 38.4053 38.0901 38.3017C38.0861 38.1974 38.0579 38.1201 38.0206 37.9642C37.9842 37.8087 37.9486 37.7131 37.9047 37.5234C37.8609 37.3337 37.832 37.2247 37.8014 37.0157C37.7717 36.8071 37.7611 36.6886 37.7546 36.4802C37.7473 36.2714 37.7422 36.1741 37.7661 35.9734C37.79 35.7728 37.8158 35.667 37.8725 35.4769C37.929 35.2861 37.9712 35.1874 38.049 35.0215C38.1268 34.8555 38.1705 34.7729 38.2632 34.6457C38.3561 34.5191 38.4143 34.4703 38.5127 34.3867C38.6111 34.303 38.6582 34.2612 38.7541 34.2262C38.85 34.1913 38.89 34.1919 38.9937 34.212C39.0973 34.2321 39.1593 34.261 39.2713 34.328C39.3843 34.3955 39.4428 34.4386 39.5563 34.5493C39.6707 34.6604 39.7261 34.735 39.8413 34.8821C39.9562 35.0284 40.024 35.1131 40.133 35.2826C40.2415 35.4531 40.2896 35.5514 40.3857 35.7315C40.4816 35.9109 40.5236 36.0122 40.6138 36.1821C40.7037 36.3513 40.7501 36.4329 40.836 36.579C40.9228 36.7255 40.9592 36.7977 41.0453 36.9126C41.1314 37.0275 41.1748 37.0812 41.2668 37.1526C41.3588 37.2241 41.4222 37.2452 41.5043 37.2717C41.5862 37.2976 41.6376 37.2977 41.6777 37.2845C41.7181 37.272 41.7252 37.2419 41.7068 37.2073C41.6875 37.1723 41.6433 37.1544 41.5825 37.1107C41.5219 37.0676 41.4742 37.056 41.4024 36.9902C41.3302 36.9253 41.2956 36.8901 41.2223 36.7843C41.1498 36.6789 41.1185 36.6071 41.0394 36.4635C40.9609 36.3198 40.9184 36.2368 40.8293 36.068C40.7402 35.8991 40.6918 35.8023 40.5939 35.6193C40.4957 35.4372 40.4471 35.3339 40.3382 35.1542C40.2288 34.9754 40.1676 34.8811 40.0467 34.7224C39.926 34.5643 39.8655 34.4836 39.7336 34.3622C39.6023 34.2406 39.5309 34.1877 39.3892 34.1149C39.2474 34.042 39.1657 34.0146 39.0254 33.9991C38.8848 33.983 38.8179 33.9922 38.6883 34.0359C38.5577 34.0791 38.4976 34.1228 38.3754 34.2166C38.2534 34.311 38.188 34.366 38.0787 34.5073C37.9699 34.6476 37.9151 34.7379 37.8307 34.9193C37.7462 35.1007 37.7124 35.2087 37.6557 35.4147C37.5989 35.6201 37.573 35.7339 37.5482 35.9479C37.5227 36.1621 37.5282 36.2666 37.5313 36.4856C37.5345 36.7046 37.5445 36.8255 37.5637 37.043C37.5825 37.2614 37.598 37.3753 37.6277 37.5759C37.6572 37.7759 37.6663 37.8863 37.712 38.0456C37.7578 38.2049 37.8011 38.2818 37.8557 38.372C37.9107 38.4613 37.9467 38.4844 37.9844 38.4945C38.0224 38.5053 38.0459 38.4865 38.0466 38.4247C38.0468 38.3638 38.0344 38.314 37.9881 38.189C37.9418 38.0639 37.8938 37.9858 37.8145 37.8003C37.7349 37.6157 37.6852 37.5013 37.5918 37.2631C37.498 37.0257 37.4454 36.8855 37.3463 36.6117C37.2472 36.3379 37.1931 36.1896 37.0966 35.8953C36.9995 35.6012 36.9593 35.4413 36.8627 35.1405C36.7662 34.8403 36.7112 34.6815 36.6128 34.3937C36.5146 34.1065 36.4639 33.9656 36.3705 33.7035C36.2777 33.4411 36.2352 33.3067 36.1467 33.0819C36.0586 32.8562 36.0144 32.739 35.9294 32.5774C35.8448 32.4149 35.7917 32.3626 35.7224 32.272C35.6536 32.1805 35.6368 32.1583 35.585 32.1215C35.534 32.085 35.5003 32.0799 35.4654 32.0876C35.4314 32.0956 35.4176 32.1311 35.4124 32.1605Z" stroke="#4F4013" stroke-width="0.5"/>
<path d="M44.4653 33.2024C44.4619 33.1514 44.4309 33.0961 44.3723 33.0269C44.3144 32.9575 44.2729 32.9111 44.1734 32.8547C44.0745 32.7981 43.9999 32.7623 43.8767 32.7442C43.7537 32.7268 43.6846 32.7397 43.5585 32.7654C43.4322 32.7904 43.3735 32.806 43.2449 32.8725C43.1161 32.9383 43.0406 32.9817 42.9144 33.0944C42.7889 33.2068 42.7231 33.2786 42.6151 33.4353C42.5071 33.592 42.4632 33.6841 42.3754 33.8783C42.288 34.0717 42.2444 34.1824 42.1785 34.4049C42.1133 34.6271 42.0818 34.7574 42.0472 34.9902C42.0122 35.2238 42.0021 35.3528 42.0053 35.5703C42.0077 35.7874 42.0146 35.8957 42.0619 36.0769C42.1091 36.2582 42.1478 36.3483 42.2411 36.4751C42.3338 36.6021 42.4024 36.6553 42.5276 36.7125C42.6527 36.7697 42.7252 36.7758 42.8662 36.7613C43.007 36.7462 43.0865 36.7237 43.2326 36.6379C43.3787 36.552 43.4652 36.4835 43.5968 36.3319C43.729 36.1802 43.7835 36.0712 43.8918 35.8797C44.0003 35.6887 44.0512 35.5919 44.1396 35.3757C44.2277 35.1604 44.2719 35.0313 44.3322 34.8015C44.3927 34.5723 44.4117 34.4516 44.4423 34.2276C44.4722 34.0037 44.4798 33.8858 44.4832 33.6825C44.4868 33.4799 44.4819 33.373 44.4593 33.2118C44.4367 33.0506 44.4186 32.9731 44.3696 32.8766C44.3204 32.7794 44.2673 32.7408 44.2139 32.7277C44.1606 32.7145 44.125 32.7398 44.103 32.8108C44.082 32.8822 44.0824 32.9487 44.1081 33.0849C44.1336 33.2205 44.1632 33.3154 44.2327 33.49C44.3015 33.6648 44.3641 33.7629 44.4532 33.9578C44.5424 34.1527 44.5875 34.2644 44.677 34.4642C44.7668 34.6647 44.8085 34.777 44.902 34.958C44.9955 35.1389 45.0416 35.2235 45.1438 35.3709C45.2467 35.5181 45.3003 35.5876 45.4148 35.695C45.5287 35.8027 45.5933 35.8508 45.7148 35.9079C45.8367 35.9641 45.9137 35.9708 46.0237 35.9785C46.1339 35.9868 46.1894 35.976 46.265 35.9492C46.3407 35.9223 46.3813 35.8807 46.402 35.8442C46.4227 35.8076 46.4035 35.7806 46.3702 35.7667C46.336 35.7524 46.2972 35.7752 46.2326 35.7749C46.1678 35.7739 46.1317 35.7762 46.0468 35.7637C45.9616 35.7506 45.9026 35.7576 45.8064 35.7123C45.7102 35.667 45.6612 35.632 45.5667 35.5375C45.4717 35.444 45.4243 35.3794 45.3337 35.2423C45.2423 35.1047 45.1996 35.0254 45.1114 34.8511C45.0224 34.6765 44.9753 34.5691 44.8907 34.3711C44.8062 34.1731 44.7613 34.0598 44.6888 33.861C44.6165 33.6628 44.5898 33.5517 44.529 33.379C44.4673 33.206 44.4394 33.1155 44.3829 32.9963C44.3264 32.8771 44.2912 32.8262 44.2469 32.7823C44.202 32.7386 44.1733 32.7454 44.1609 32.7767C44.1484 32.8081 44.1695 32.846 44.1837 32.9386C44.1977 33.0305 44.2187 33.0902 44.2314 33.2384C44.2451 33.387 44.25 33.488 44.25 33.6806C44.2492 33.8729 44.2535 33.9879 44.2293 34.2017C44.2055 34.4146 44.1875 34.5298 44.1294 34.7479C44.072 34.9659 44.0279 35.0891 43.9395 35.2916C43.8508 35.4934 43.7968 35.5855 43.6873 35.7579C43.5785 35.9302 43.5102 36.0188 43.3927 36.1536C43.2753 36.2884 43.2108 36.3518 43.0996 36.4322C42.9884 36.5125 42.9342 36.5366 42.836 36.5573C42.7374 36.5787 42.6934 36.5774 42.6086 36.5374C42.5237 36.4973 42.4764 36.461 42.4113 36.358C42.3456 36.2552 42.3171 36.1809 42.2806 36.0233C42.2445 35.8648 42.2334 35.7667 42.2293 35.5669C42.2259 35.3668 42.2295 35.2416 42.2619 35.0227C42.2947 34.8029 42.3252 34.678 42.3913 34.47C42.4578 34.2611 42.5061 34.1573 42.5929 33.9801C42.6805 33.8033 42.7279 33.7229 42.8272 33.5839C42.9264 33.4449 42.9828 33.3852 43.0892 33.2856C43.1957 33.1866 43.2566 33.1449 43.3594 33.0871C43.4628 33.0291 43.5089 33.0145 43.6039 32.9972C43.6988 32.9793 43.7449 32.9806 43.8332 32.9983C43.9211 33.017 43.9663 33.0476 44.0443 33.0886C44.1223 33.1297 44.1534 33.1654 44.2225 33.204C44.2907 33.2421 44.3398 33.2814 44.3883 33.2811C44.4367 33.2809 44.4684 33.2526 44.4653 33.2024Z" stroke="#4F4013" stroke-width="0.5"/>
<path d="M49.1077 31.6767C49.1157 31.6311 49.0972 31.5864 49.0611 31.5112C49.0258 31.4364 49.0066 31.3797 48.9284 31.3003C48.8511 31.2213 48.7828 31.1731 48.6723 31.1164C48.5624 31.0594 48.5075 31.0439 48.3785 31.0157C48.25 30.9872 48.1739 30.9729 48.029 30.9729C47.8848 30.9726 47.8078 30.9761 47.6554 31.015C47.5031 31.0539 47.4204 31.0833 47.2673 31.1681C47.1134 31.2525 47.0306 31.3073 46.8876 31.4376C46.7447 31.568 46.6731 31.6477 46.5533 31.8196C46.4341 31.9912 46.3746 32.0941 46.292 32.2965C46.2085 32.4986 46.1769 32.6166 46.1383 32.8305C46.0991 33.0447 46.0823 33.1653 46.0982 33.3659C46.1133 33.5661 46.1352 33.6718 46.2145 33.8319C46.2948 33.9924 46.3603 34.0648 46.4971 34.1677C46.6332 34.2709 46.7239 34.3131 46.8986 34.3472C47.0732 34.3813 47.1816 34.3787 47.3701 34.3375C47.559 34.2954 47.6634 34.2479 47.843 34.1389C48.0232 34.0291 48.119 33.9485 48.27 33.7906C48.4217 33.6324 48.4869 33.5333 48.5993 33.349C48.7117 33.1646 48.7623 33.0592 48.8317 32.8681C48.9008 32.6763 48.9257 32.5738 48.9438 32.3912C48.962 32.2086 48.9558 32.1102 48.9217 31.9553C48.8871 31.8006 48.8454 31.7101 48.7717 31.6175C48.6988 31.5246 48.636 31.4895 48.5564 31.4917C48.476 31.4936 48.4171 31.5288 48.3723 31.6284C48.3267 31.7276 48.3032 31.818 48.329 31.9882C48.3549 32.1584 48.4101 32.2701 48.501 32.4795C48.5918 32.689 48.6611 32.8035 48.7836 33.0341C48.9056 33.2655 48.9734 33.382 49.1116 33.6358C49.2498 33.8896 49.3306 34.0238 49.4747 34.3036C49.6185 34.5829 49.6929 34.7353 49.8319 35.033C49.9707 35.3301 50.0428 35.4862 50.1692 35.7892C50.2961 36.0913 50.3616 36.2492 50.4655 36.5459C50.5691 36.842 50.6121 36.9936 50.6877 37.2724C50.7626 37.5514 50.7971 37.6916 50.8426 37.9394C50.8876 38.1881 50.9034 38.3069 50.9143 38.5136C50.9246 38.7206 50.9223 38.8134 50.8969 38.9741C50.8714 39.1347 50.8496 39.1999 50.7863 39.3164C50.7222 39.4325 50.6876 39.4726 50.5788 39.5557C50.4697 39.6397 50.3922 39.6774 50.2405 39.7341C50.0886 39.7903 50.0055 39.8126 49.8198 39.8376C49.6343 39.8632 49.5322 39.8672 49.3125 39.8604C49.0934 39.8534 48.955 39.8452 48.7228 39.8024C48.4898 39.7592 48.3605 39.7383 48.1491 39.6451C47.9371 39.5523 47.8324 39.4876 47.6641 39.336C47.4952 39.1847 47.4217 39.0942 47.3057 38.8895C47.189 38.6844 47.1411 38.5751 47.0821 38.3099C47.0226 38.0455 47.0163 37.8754 47.0089 37.5653C47.0012 37.256 47.0111 37.0886 47.0442 36.7623C47.0766 36.4361 47.1028 36.2578 47.173 35.9339C47.2432 35.6099 47.2918 35.4495 47.3935 35.1423C47.4955 34.8342 47.5498 34.6753 47.6814 34.3949C47.8133 34.115 47.8932 33.9867 48.0515 33.7414C48.2097 33.4961 48.3032 33.3751 48.4735 33.1689C48.6436 32.962 48.7339 32.8682 48.9023 32.7083C49.0716 32.5488 49.1564 32.4875 49.3169 32.3696C49.4776 32.2523 49.5588 32.2068 49.7062 32.1204C49.8529 32.0343 49.9256 32.0092 50.0531 31.9396C50.1807 31.8706 50.2931 31.8253 50.3444 31.7733C50.395 31.7215 50.3825 31.6833 50.3079 31.6794C50.2334 31.6754 50.1134 31.7039 49.9708 31.7538C49.8282 31.8036 49.7506 31.8391 49.5952 31.9292C49.439 32.0194 49.3552 32.0753 49.1909 32.2048C49.0266 32.3342 48.9431 32.4052 48.7734 32.5772C48.6043 32.7489 48.5136 32.8479 48.3434 33.0642C48.1731 33.2806 48.0808 33.4048 47.9216 33.6591C47.7627 33.9126 47.6825 34.0461 47.5491 34.3338C47.4163 34.6212 47.361 34.7833 47.2583 35.0974C47.1556 35.4115 47.1061 35.5737 47.0338 35.9035C46.9616 36.234 46.9331 36.4139 46.8968 36.7472C46.8602 37.0799 46.8473 37.2491 46.8515 37.5684C46.8559 37.8883 46.8578 38.0643 46.9178 38.3459C46.9771 38.6277 47.0255 38.7506 47.1491 38.9763C47.2734 39.2019 47.354 39.3058 47.5374 39.475C47.7214 39.644 47.8394 39.7175 48.0684 39.823C48.2974 39.9286 48.4362 39.9518 48.683 40.003C48.9298 40.0542 49.0683 40.0646 49.3018 40.0794C49.5356 40.0948 49.6443 40.1029 49.85 40.0793C50.0558 40.0557 50.1563 40.0335 50.3302 39.9622C50.5036 39.8917 50.5914 39.8343 50.7179 39.7245C50.8437 39.6148 50.8843 39.5552 50.9616 39.4118C51.039 39.2684 51.074 39.1898 51.1038 39.0073C51.1335 38.8248 51.1296 38.7205 51.1116 38.5003C51.0927 38.2798 51.0663 38.1598 51.0121 37.9058C50.9572 37.6521 50.9193 37.5124 50.8382 37.2305C50.7563 36.9483 50.7116 36.7958 50.6046 36.4966C50.4975 36.1968 50.4311 36.0385 50.3031 35.7332C50.1751 35.4279 50.1039 35.2706 49.9662 34.9703C49.828 34.6709 49.7542 34.516 49.6139 34.2326C49.4732 33.95 49.3936 33.8132 49.2637 33.5564C49.1343 33.2987 49.0694 33.1804 48.9645 32.9464C48.8602 32.7121 48.8126 32.5875 48.7402 32.385C48.6676 32.1819 48.6414 32.0763 48.6019 31.9322C48.563 31.7877 48.5562 31.7315 48.5453 31.6638C48.5341 31.5955 48.5359 31.5804 48.5465 31.5917C48.5572 31.603 48.5683 31.6374 48.5975 31.7194C48.6273 31.8012 48.6704 31.8717 48.6938 32.0015C48.7164 32.1309 48.7302 32.2105 48.7129 32.3675C48.6955 32.5245 48.669 32.6145 48.6064 32.7865C48.5441 32.9592 48.5021 33.0607 48.4005 33.2288C48.2995 33.3967 48.2383 33.4871 48.1008 33.6264C47.9641 33.766 47.8724 33.832 47.7149 33.9264C47.5576 34.0214 47.4695 34.0601 47.3144 34.0993C47.1592 34.1385 47.076 34.1427 46.9375 34.1223C46.7996 34.1016 46.729 34.073 46.6236 33.9963C46.5181 33.9196 46.4676 33.8685 46.4098 33.7397C46.3526 33.6106 46.3441 33.5239 46.3361 33.3509C46.3278 33.1772 46.3339 33.0649 46.3679 32.8721C46.4025 32.6792 46.4302 32.5684 46.5074 32.3867C46.5843 32.2044 46.6439 32.1139 46.7544 31.962C46.8647 31.8096 46.9325 31.7414 47.0595 31.627C47.1863 31.512 47.2579 31.462 47.3893 31.3873C47.5209 31.3132 47.5893 31.2882 47.7171 31.2554C47.8449 31.2226 47.9073 31.223 48.0285 31.2237C48.1495 31.2237 48.219 31.2338 48.3228 31.2583C48.4262 31.2836 48.4637 31.2989 48.5466 31.3476C48.6293 31.3957 48.6699 31.4395 48.7368 31.4998C48.8037 31.5602 48.8233 31.6001 48.88 31.6482C48.9373 31.6961 48.9765 31.734 49.0218 31.7392C49.0674 31.745 49.0997 31.7224 49.1077 31.6767Z" stroke="#4F4013" stroke-width="0.5"/>
<path d="M52.0748 31.8418C52.1152 31.8393 52.1402 31.8186 52.1956 31.7738C52.2509 31.729 52.2804 31.6965 52.3518 31.6183C52.423 31.5395 52.4663 31.4933 52.5522 31.3816C52.6376 31.2701 52.6851 31.1977 52.7798 31.0603C52.875 30.922 52.936 30.8433 53.0274 30.6926C53.1188 30.542 53.1618 30.4553 53.2379 30.3066C53.3138 30.1573 53.3509 30.0822 53.4076 29.9478C53.4641 29.8128 53.4952 29.7493 53.5215 29.6325C53.5468 29.5154 53.5575 29.4572 53.5359 29.3622C53.5143 29.2673 53.4862 29.2181 53.4135 29.1577C53.3414 29.0971 53.2878 29.0732 53.1753 29.0606C53.0626 29.0474 52.9962 29.0542 52.8507 29.0921C52.7046 29.1302 52.608 29.1632 52.446 29.2513C52.2836 29.3402 52.198 29.3975 52.0396 29.5349C51.8818 29.6721 51.8026 29.7589 51.655 29.938C51.5076 30.1178 51.4248 30.2183 51.3018 30.4311C51.1784 30.6449 51.1183 30.774 51.0391 31.0056C50.9593 31.2375 50.9246 31.3689 50.9044 31.5914C50.8848 31.8137 50.8878 31.9234 50.9389 32.1169C50.9901 32.3112 51.0363 32.416 51.1609 32.561C51.2862 32.7058 51.3803 32.7635 51.5633 32.8423C51.7467 32.9203 51.8527 32.9367 52.0774 32.9532C52.3026 32.9689 52.4397 32.9616 52.6879 32.9232C52.9361 32.8849 53.0745 32.8474 53.319 32.7612C53.5634 32.6749 53.687 32.6146 53.9102 32.4919C54.1335 32.3693 54.2433 32.2952 54.4347 32.1486C54.626 32.0021 54.7176 31.9216 54.8661 31.7588C55.0146 31.596 55.085 31.503 55.176 31.3336C55.2671 31.1643 55.2905 31.0696 55.3202 30.911C55.35 30.7524 55.3446 30.6798 55.3256 30.5404C55.306 30.4012 55.2805 30.3273 55.225 30.2128C55.1688 30.0986 55.1183 30.0453 55.0477 29.9689C54.9769 29.8919 54.9365 29.8704 54.872 29.8288C54.8072 29.788 54.7649 29.7635 54.7236 29.7634C54.6829 29.763 54.6614 29.7875 54.666 29.8278C54.6699 29.8684 54.7031 29.9077 54.7445 29.9658C54.7866 30.0236 54.8181 30.0483 54.8741 30.1184C54.9292 30.1881 54.9743 30.2245 55.0227 30.3155C55.0717 30.4063 55.1002 30.4604 55.1181 30.5712C55.1361 30.6819 55.1413 30.738 55.1125 30.8694C55.084 31 55.0575 31.0763 54.9761 31.2262C54.8952 31.3759 54.8398 31.4642 54.7076 31.6182C54.5746 31.7717 54.4918 31.8526 54.3137 31.9936C54.1358 32.1352 54.0304 32.2077 53.8182 32.3249C53.6064 32.4412 53.4866 32.498 53.2544 32.5761C53.0224 32.6549 52.8898 32.6866 52.6578 32.7176C52.4258 32.7487 52.2966 32.748 52.0949 32.731C51.8932 32.714 51.8044 32.695 51.65 32.6332C51.4957 32.5715 51.422 32.5361 51.3223 32.4218C51.2221 32.3077 51.1911 32.2248 51.15 32.0624C51.1089 31.9 51.0998 31.8077 51.1167 31.6096C51.1338 31.4122 51.1613 31.287 51.2343 31.0721C51.3075 30.8578 51.3632 30.7346 51.4808 30.5368C51.5991 30.3387 51.6795 30.2434 51.8235 30.0823C51.9666 29.9207 52.0496 29.8463 52.2004 29.7297C52.3511 29.6125 52.4307 29.5726 52.5764 29.4977C52.7229 29.4226 52.8117 29.3982 52.9313 29.3546C53.0508 29.311 53.0978 29.2931 53.1733 29.2815C53.2494 29.2697 53.2736 29.2746 53.311 29.2957C53.3484 29.3169 53.3607 29.3327 53.3614 29.3882C53.3621 29.4437 53.3489 29.4811 53.3145 29.5733C53.2809 29.666 53.251 29.7268 53.1907 29.8495C53.1304 29.9721 53.0927 30.0475 53.0148 30.1874C52.9363 30.3276 52.8926 30.4065 52.7997 30.549C52.7069 30.6915 52.645 30.7662 52.5499 30.8986C52.4555 31.0308 52.4083 31.1002 52.326 31.2099C52.2436 31.3196 52.1991 31.3604 52.1389 31.4476C52.0778 31.5343 52.051 31.5759 52.0221 31.6437C51.9932 31.7114 51.9847 31.7457 51.9949 31.7854C52.0056 31.825 52.035 31.8439 52.0748 31.8418Z" stroke="#4F4013" stroke-width="0.5"/>
<path d="M54.9985 28.8167C54.9835 28.8468 54.9896 28.8677 55.0014 28.9177C55.0135 28.9669 55.0213 28.9902 55.0578 29.0645C55.0934 29.1384 55.1281 29.1858 55.1821 29.2863C55.2364 29.3875 55.2769 29.4408 55.3276 29.5679C55.3785 29.6956 55.3963 29.7703 55.4358 29.9224C55.4758 30.0737 55.4946 30.161 55.5276 30.3271C55.5607 30.4932 55.5716 30.5906 55.6011 30.7529C55.6297 30.9149 55.64 31.0067 55.6725 31.1375C55.7048 31.2677 55.7218 31.3361 55.7631 31.4058C55.8045 31.4754 55.8409 31.494 55.8799 31.4856C55.9179 31.4768 55.9425 31.441 55.9561 31.3629C55.9694 31.2842 55.9619 31.2239 55.9462 31.0935C55.9298 30.9633 55.9122 30.8712 55.8759 30.7121C55.8394 30.5523 55.8004 30.4615 55.7637 30.2953C55.727 30.1291 55.7133 30.0457 55.6942 29.8803C55.6745 29.7151 55.6675 29.6322 55.6657 29.4685C55.6648 29.3051 55.6724 29.2206 55.6886 29.0626C55.7049 28.9045 55.7067 28.8162 55.7476 28.6782C55.7879 28.5404 55.8218 28.4824 55.8897 28.3729C55.9577 28.2634 55.995 28.2128 56.0874 28.1306C56.1805 28.0481 56.2384 28.0104 56.3527 27.9622C56.4675 27.9138 56.5331 27.8971 56.6612 27.8888C56.7895 27.8811 56.8573 27.8882 56.9949 27.9221C57.1321 27.9568 57.2096 27.9865 57.3483 28.0611C57.4871 28.1358 57.5594 28.187 57.6902 28.2957C57.8207 28.4052 57.8863 28.4719 58.0016 28.6072C58.1171 28.7433 58.173 28.8171 58.2663 28.9757C58.36 29.1334 58.3938 29.2261 58.4693 29.3992C58.5449 29.5729 58.5751 29.6756 58.6442 29.8431C58.7139 30.0103 58.751 30.0902 58.8151 30.2363C58.8792 30.3824 58.9054 30.4561 58.9649 30.5735C59.0247 30.69 59.0616 30.7453 59.1145 30.8209C59.167 30.8974 59.1865 30.9171 59.2286 30.9531C59.2703 30.9901 59.2962 31.0016 59.3243 31.003C59.3529 31.0041 59.366 30.9863 59.3698 30.961C59.3727 30.9353 59.3572 30.9243 59.3412 30.8766C59.3258 30.8286 59.3273 30.8027 59.2927 30.7219C59.2591 30.6415 59.2227 30.5895 59.1704 30.4739C59.1181 30.3583 59.0914 30.2891 59.0314 30.1444C58.9721 29.9994 58.9399 29.9192 58.8732 29.7502C58.8065 29.5811 58.7761 29.4799 58.6975 29.3C58.6179 29.1197 58.5794 29.0201 58.4789 28.8496C58.3777 28.6794 58.317 28.5965 58.1923 28.4472C58.0668 28.2974 57.9977 28.2234 57.8521 28.1019C57.707 27.9803 57.6258 27.9223 57.4657 27.8387C57.3058 27.7558 57.2156 27.7228 57.0514 27.6857C56.8872 27.6485 56.803 27.6401 56.6451 27.652C56.4864 27.6636 56.4015 27.6829 56.2596 27.7448C56.1178 27.8067 56.048 27.8596 55.9359 27.9613C55.8236 28.0624 55.7818 28.1226 55.6984 28.2515C55.6153 28.381 55.5706 28.4509 55.5198 28.6077C55.4694 28.7652 55.4635 28.8644 55.4444 29.0364C55.4253 29.2085 55.4239 29.296 55.4251 29.4701C55.4255 29.6437 55.4333 29.7307 55.4483 29.9048C55.4628 30.0799 55.474 30.1699 55.4988 30.3434C55.5239 30.5175 55.5455 30.6103 55.5743 30.7728C55.6032 30.9354 55.6058 31.03 55.6436 31.1575C55.6818 31.2841 55.7179 31.3433 55.7647 31.4081C55.8121 31.4726 55.8453 31.4881 55.879 31.4794C55.913 31.4713 55.9269 31.4438 55.9349 31.3663C55.9422 31.289 55.9324 31.2245 55.9169 31.0926C55.9022 30.9611 55.8851 30.8724 55.8597 30.7093C55.8334 30.5458 55.8203 30.4463 55.7871 30.2759C55.7539 30.1055 55.7327 30.0176 55.6929 29.8569C55.6535 29.6953 55.6381 29.6133 55.5883 29.4707C55.5387 29.3287 55.5042 29.258 55.4445 29.1458C55.385 29.0342 55.346 28.9811 55.2901 28.9131C55.2342 28.8452 55.2066 28.8349 55.164 28.8056C55.1214 28.7762 55.1105 28.7642 55.0779 28.766C55.0448 28.7687 55.0136 28.7865 54.9985 28.8167Z" stroke="#4F4013" stroke-width="0.5"/>
<defs>
<linearGradient id="paint0_linear_1944_9295" x1="25.2028" y1="34.1998" x2="31.5049" y2="48.7918" gradientUnits="userSpaceOnUse">
<stop offset="0.873325" stop-color="#FFD65D"/>
<stop offset="1" stop-color="#FBCF4A"/>
</linearGradient>
</defs>
</svg>
