<svg width="70" height="51" viewBox="0 0 70 51" fill="none" xmlns="http://www.w3.org/2000/svg">
<path d="M64.022 21.9775L8.24122 11.949L5.50781 28.4158L61.2952 38.9247L64.022 21.9775Z" fill="url(#paint0_linear_1915_9049)"/>
<path d="M17.8937 19.5673C17.8915 19.5044 17.8687 19.452 17.7935 19.3817C17.7187 19.3115 17.6548 19.2716 17.5189 19.216C17.3831 19.16 17.2936 19.1352 17.1141 19.1021C16.9346 19.0691 16.8352 19.0594 16.6214 19.0513C16.4076 19.0429 16.282 19.0339 16.0453 19.0602C15.8082 19.0868 15.6829 19.1165 15.4365 19.1836C15.1902 19.2502 15.0519 19.2928 14.8134 19.3939C14.5748 19.495 14.4461 19.558 14.2437 19.689C14.0409 19.8199 13.9478 19.8963 13.8006 20.0486C13.6529 20.2011 13.5857 20.2777 13.5063 20.4516C13.4267 20.6259 13.3939 20.7308 13.4028 20.9202C13.4119 21.1092 13.4518 21.2181 13.551 21.3968C13.6497 21.5758 13.7326 21.6558 13.8976 21.8143C14.0622 21.9732 14.166 22.0407 14.3756 22.191C14.5848 22.3413 14.7084 22.4104 14.9443 22.5664C15.1799 22.7219 15.3152 22.8013 15.5538 22.9695C15.7924 23.1372 15.9196 23.225 16.1367 23.4063C16.3537 23.5877 16.4578 23.6838 16.639 23.8764C16.8203 24.0691 16.909 24.1714 17.0429 24.3693C17.1767 24.5667 17.2304 24.6687 17.3083 24.8644C17.3862 25.0605 17.4129 25.1602 17.4325 25.3488C17.4516 25.5377 17.4516 25.6321 17.4048 25.8084C17.358 25.9852 17.3165 26.0715 17.1987 26.2311C17.0813 26.3908 17.0033 26.4719 16.8166 26.6071C16.6295 26.7418 16.5096 26.8047 16.265 26.9068C16.0205 27.0086 15.8783 27.0593 15.5929 27.1166C15.307 27.1742 15.1412 27.19 14.8361 27.1941C14.5309 27.1987 14.3719 27.1758 14.0661 27.1382C13.7607 27.1008 13.5834 27.0744 13.3082 27.0067C13.0328 26.9394 12.9062 26.8988 12.6892 26.8004C12.4723 26.7021 12.3654 26.6333 12.2231 26.515C12.0803 26.3966 12.0369 26.3295 11.9767 26.2088C11.9166 26.0882 11.9046 26.0308 11.9222 25.9117C11.9403 25.7922 11.9602 25.7405 12.0664 25.6126C12.1728 25.4842 12.2871 25.3966 12.4546 25.2712C12.6221 25.1458 12.7429 25.0848 12.9031 24.9854C13.0639 24.8857 13.1995 24.844 13.2561 24.7732C13.3131 24.7025 13.2803 24.6292 13.1873 24.631C13.0939 24.6332 12.9652 24.6937 12.7898 24.783C12.614 24.8722 12.4915 24.9409 12.3093 25.0769C12.1271 25.2124 12.0033 25.3015 11.8787 25.462C11.7539 25.623 11.7068 25.71 11.6863 25.8803C11.6658 26.0501 11.6925 26.1547 11.7755 26.3123C11.8585 26.4703 11.9322 26.5395 12.1013 26.6685C12.2703 26.7975 12.3868 26.8595 12.621 26.9573C12.8552 27.0552 12.9867 27.0916 13.2723 27.1576C13.5576 27.2232 13.7354 27.2484 14.0484 27.2859C14.3614 27.3229 14.5228 27.3462 14.8378 27.3437C15.1528 27.3408 15.3244 27.3277 15.623 27.2722C15.9211 27.2166 16.0691 27.1685 16.3293 27.0659C16.5899 26.9634 16.719 26.9034 16.925 26.7605C17.1311 26.6175 17.2241 26.5314 17.3599 26.3517C17.4958 26.1716 17.5497 26.0664 17.6041 25.8615C17.6585 25.6566 17.6558 25.5408 17.6311 25.3271C17.6068 25.1138 17.5708 25.0046 17.4815 24.7936C17.3923 24.5822 17.3305 24.4763 17.1854 24.2708C17.0407 24.0649 16.9466 23.9617 16.757 23.7642C16.5677 23.5669 16.4604 23.4699 16.2382 23.2847C16.0163 23.0996 15.8868 23.0098 15.6468 22.8381C15.4072 22.6664 15.2714 22.5844 15.0394 22.4253C14.807 22.2657 14.6856 22.1928 14.4864 22.0407C14.2875 21.8892 14.1912 21.8171 14.0441 21.6665C13.8966 21.5159 13.8316 21.4398 13.7497 21.2883C13.6674 21.1363 13.6419 21.0574 13.6334 20.908C13.6249 20.7589 13.6441 20.6858 13.7073 20.5419C13.7701 20.3983 13.8203 20.3278 13.9489 20.1892C14.077 20.0506 14.1614 19.9744 14.3489 19.8494C14.5361 19.7243 14.6585 19.661 14.8858 19.5648C15.1131 19.4686 15.2495 19.4274 15.485 19.3677C15.7209 19.3081 15.8404 19.2826 16.0641 19.2667C16.2877 19.2508 16.4074 19.2651 16.6031 19.2886C16.7989 19.3122 16.8894 19.333 17.0423 19.3847C17.1948 19.4363 17.2533 19.4883 17.3669 19.5469C17.481 19.6056 17.5233 19.6487 17.6111 19.6783C17.6985 19.7078 17.7485 19.7178 17.805 19.6956C17.8615 19.6735 17.8959 19.6301 17.8937 19.5673Z" fill="#3E450D"/>
<path d="M20.8113 20.172C20.7663 20.2237 20.7701 20.2919 20.7374 20.4446C20.7045 20.5977 20.6955 20.7057 20.6472 20.9371C20.5985 21.1682 20.5685 21.3092 20.4952 21.6007C20.4219 21.8918 20.3697 22.0631 20.2802 22.3943C20.1907 22.7255 20.1426 22.9075 20.0471 23.2571C19.9512 23.6065 19.8974 23.7897 19.8015 24.1417C19.7056 24.494 19.6574 24.6815 19.5674 25.0177C19.4775 25.3539 19.4307 25.5156 19.3522 25.823C19.2733 26.1304 19.2348 26.2897 19.1747 26.5545C19.1142 26.8196 19.0928 26.949 19.0499 27.1474C19.0075 27.3459 18.9645 27.4386 18.9617 27.5468C18.959 27.6545 19.0004 27.6706 19.0366 27.6875C19.0729 27.704 19.1245 27.6685 19.143 27.6296C19.1613 27.5902 19.1783 27.505 19.1285 27.4917C19.0787 27.4785 18.927 27.5234 18.8931 27.5635C18.8593 27.6033 18.9177 27.6607 18.9596 27.6915C19.0019 27.7224 19.0507 27.7393 19.1041 27.7179C19.1575 27.697 19.1975 27.6935 19.2266 27.5859C19.2562 27.478 19.2297 27.3793 19.2502 27.1792C19.2706 26.9792 19.2826 26.8508 19.3297 26.5859C19.3768 26.3215 19.4134 26.1632 19.486 25.856C19.5585 25.5488 19.6042 25.3865 19.6916 25.0504C19.7791 24.7142 19.8272 24.5267 19.9235 24.1752C20.0198 23.8233 20.0739 23.6406 20.1729 23.2925C20.2724 22.9441 20.3216 22.7631 20.4192 22.4336C20.5172 22.1047 20.5753 21.936 20.6621 21.6467C20.7493 21.3575 20.7902 21.2191 20.8545 20.9873C20.9188 20.7555 20.9621 20.6482 20.984 20.4878C21.0054 20.3274 20.9978 20.2494 20.9633 20.1862C20.9289 20.1231 20.8568 20.1204 20.8113 20.172Z" fill="#3E450D"/>
<path d="M17.9656 24.8019C18.0202 24.8118 18.045 24.7882 18.1278 24.749C18.2103 24.7094 18.2402 24.6678 18.3788 24.6055C18.517 24.5432 18.613 24.4878 18.8193 24.4376C19.0259 24.3874 19.1578 24.3811 19.4114 24.3538C19.6647 24.3265 19.8112 24.3154 20.0865 24.3014C20.3619 24.2873 20.5216 24.2776 20.7874 24.2834C21.0532 24.2891 21.1832 24.3064 21.416 24.3294C21.6491 24.3524 21.8406 24.4171 21.9523 24.3983C22.0641 24.3794 22.0783 24.2832 21.9747 24.235C21.8707 24.1868 21.6704 24.1831 21.4338 24.1578C21.1972 24.133 21.0624 24.1162 20.7913 24.1096C20.5203 24.1025 20.3581 24.1147 20.0788 24.1248C19.7996 24.1344 19.656 24.143 19.3951 24.1582C19.1343 24.1734 19 24.1688 18.7741 24.2007C18.5486 24.2331 18.433 24.2622 18.2669 24.3186C18.1007 24.3751 18.0249 24.4074 17.9423 24.4835C17.8601 24.5593 17.8502 24.6348 17.8548 24.6985C17.8593 24.7621 17.9111 24.7916 17.9656 24.8019Z" fill="#3E450D"/>
<path d="M24.3457 24.4864C24.3358 24.4294 24.3138 24.3901 24.2374 24.3398C24.1615 24.2891 24.0991 24.2452 23.9652 24.2331C23.8313 24.2211 23.739 24.2369 23.568 24.2791C23.3971 24.3213 23.3025 24.3581 23.1102 24.4433C22.9178 24.529 22.8105 24.5741 22.6067 24.7061C22.4029 24.8381 22.2824 24.9176 22.0907 25.1032C21.899 25.2883 21.7951 25.4096 21.6479 25.6327C21.5007 25.8562 21.4338 25.9819 21.3552 26.2193C21.2765 26.4567 21.2511 26.5875 21.2542 26.8204C21.2572 27.0536 21.2756 27.1833 21.3706 27.3848C21.4653 27.5858 21.5529 27.6825 21.7287 27.8273C21.904 27.972 22.0187 28.0312 22.2475 28.1085C22.4759 28.186 22.6128 28.2049 22.8714 28.214C23.1302 28.2237 23.2827 28.212 23.5417 28.1549C23.8007 28.0975 23.9344 28.047 24.166 27.9276C24.3975 27.8082 24.5078 27.7295 24.6992 27.5581C24.8907 27.3868 24.9832 27.2863 25.1229 27.0704C25.2625 26.8548 25.3262 26.7231 25.3978 26.48C25.4694 26.2372 25.4796 26.1018 25.4808 25.8558C25.482 25.6102 25.4623 25.4782 25.4033 25.2512C25.3443 25.0242 25.2885 24.9077 25.1853 24.7203C25.082 24.533 25.006 24.45 24.8866 24.3149C24.7671 24.1798 24.7006 24.1131 24.5888 24.0459C24.477 23.9788 24.4047 23.9824 24.3276 23.9793C24.2509 23.9767 24.23 24.0064 24.2041 24.0314C24.1776 24.0569 24.1868 24.0773 24.1968 24.1061C24.2067 24.135 24.2106 24.134 24.2544 24.1761C24.2978 24.218 24.3238 24.2538 24.4144 24.317C24.5055 24.3799 24.592 24.3891 24.7093 24.4915C24.8262 24.5939 24.8989 24.6667 25.0001 24.8285C25.1012 24.9908 25.1562 25.0972 25.2149 25.3027C25.2741 25.5079 25.2936 25.6307 25.2954 25.8562C25.2971 26.0817 25.2887 26.2061 25.2246 26.4295C25.1599 26.6533 25.1021 26.7746 24.9739 26.9744C24.8453 27.1742 24.76 27.2687 24.5827 27.4282C24.405 27.5875 24.3018 27.6611 24.0857 27.7713C23.87 27.8812 23.7449 27.9276 23.5036 27.9792C23.2623 28.0308 23.1175 28.0391 22.8789 28.0287C22.6403 28.0182 22.5147 27.997 22.3099 27.9263C22.1048 27.8555 22.0066 27.7998 21.8541 27.6748C21.7015 27.5498 21.6297 27.4721 21.5472 27.3008C21.4649 27.129 21.446 27.0223 21.4421 26.8175C21.4382 26.6126 21.4563 26.4931 21.5278 26.2763C21.5988 26.0595 21.6601 25.94 21.7987 25.7331C21.9374 25.5258 22.0371 25.4097 22.2203 25.2399C22.4039 25.0702 22.52 24.9971 22.7157 24.8839C22.9114 24.7707 23.0192 24.7328 23.1995 24.6745C23.3794 24.6161 23.4716 24.5987 23.6157 24.5923C23.7601 24.5863 23.8162 24.63 23.9204 24.6443C24.0242 24.6581 24.0627 24.6661 24.1363 24.6623C24.2095 24.6585 24.2448 24.6606 24.2867 24.6255C24.3286 24.5901 24.3555 24.5438 24.3457 24.4864Z" fill="#3E450D"/>
<path d="M29.3715 24.9073C29.3555 24.8493 29.3323 24.7813 29.2309 24.7432C29.1289 24.7053 29.0367 24.7027 28.8632 24.7168C28.6898 24.7309 28.5818 24.7475 28.3635 24.8146C28.1452 24.8821 28.0082 24.9371 27.7721 25.0536C27.5365 25.1699 27.4009 25.2389 27.1843 25.3977C26.9681 25.5562 26.8612 25.6497 26.6906 25.8471C26.5201 26.0442 26.4393 26.1604 26.3314 26.3841C26.224 26.608 26.1777 26.7358 26.1531 26.9662C26.1283 27.1969 26.1356 27.3206 26.2078 27.5359C26.2796 27.7512 26.343 27.8674 26.5136 28.0432C26.6842 28.219 26.8096 28.3026 27.061 28.4159C27.3119 28.5294 27.4679 28.5602 27.7687 28.61C28.0701 28.6593 28.2438 28.6692 28.5667 28.6642C28.8901 28.6589 29.0719 28.642 29.3848 28.5838C29.6973 28.5251 29.8498 28.4753 30.1299 28.3714C30.4096 28.2675 30.548 28.209 30.7839 28.063C31.0194 27.917 31.1223 27.8304 31.3078 27.6417C31.4937 27.453 31.5848 27.3255 31.7123 27.1201C31.8397 26.9147 31.8859 26.7877 31.9451 26.6142C32.0044 26.4407 32.0216 26.3316 32.0087 26.2523C31.9959 26.1726 31.931 26.1589 31.8803 26.2172C31.83 26.2752 31.8224 26.3821 31.756 26.5431C31.6896 26.7041 31.6624 26.8254 31.5486 27.0217C31.4348 27.2181 31.3566 27.3436 31.1869 27.5256C31.0175 27.7078 30.9233 27.7908 30.7016 27.932C30.4795 28.0731 30.3463 28.1304 30.0775 28.2319C29.8086 28.3334 29.6603 28.3831 29.3578 28.4397C29.0553 28.4962 28.8771 28.5117 28.565 28.5146C28.2525 28.5171 28.0823 28.5045 27.7959 28.4534C27.5091 28.4022 27.3626 28.3671 27.1325 28.2595C26.9029 28.1519 26.7953 28.0721 26.6467 27.9154C26.4977 27.7587 26.4491 27.6618 26.388 27.4759C26.3268 27.2901 26.3192 27.189 26.341 26.9863C26.3622 26.7839 26.3992 26.6671 26.4959 26.4625C26.5926 26.2579 26.6656 26.1462 26.8246 25.9628C26.9836 25.7798 27.0846 25.6912 27.2911 25.5458C27.4979 25.4009 27.6307 25.3356 27.8576 25.2368C28.0844 25.1384 28.2209 25.0938 28.4247 25.0533C28.6281 25.0126 28.7269 25.0319 28.8754 25.0342C29.0235 25.036 29.0785 25.0636 29.1657 25.0637C29.2534 25.0639 29.2706 25.066 29.3119 25.0346C29.3531 25.0033 29.3878 24.9658 29.3715 24.9073Z" fill="#3E450D"/>
<path d="M32.7561 21.1755C32.7247 21.2391 32.741 21.3131 32.7514 21.4708C32.7622 21.6286 32.7956 21.7239 32.8096 21.9636C32.8232 22.2036 32.828 22.3676 32.8199 22.6707C32.8121 22.9739 32.8051 23.1334 32.7701 23.4799C32.7346 23.8263 32.7049 24.0214 32.6444 24.4031C32.5834 24.7848 32.5455 24.9886 32.4669 25.3887C32.3882 25.7889 32.3337 26.0097 32.2501 26.4039C32.1669 26.7983 32.1231 27.0074 32.0501 27.3602C31.9767 27.7134 31.9356 27.8807 31.8842 28.1691C31.8324 28.4571 31.8153 28.596 31.7926 28.8019C31.7695 29.0078 31.7397 29.0842 31.7698 29.1991C31.8004 29.3136 31.8556 29.3651 31.9444 29.376C32.0332 29.3869 32.1189 29.3683 32.2133 29.2535C32.3082 29.1387 32.3295 29.0152 32.4168 28.8015C32.5046 28.5874 32.5405 28.4486 32.6514 28.1835C32.7623 27.9187 32.837 27.7557 32.9712 27.4764C33.1059 27.1971 33.1839 27.0422 33.3238 26.7864C33.4639 26.5302 33.5271 26.4014 33.6718 26.1955C33.8169 25.9901 33.9064 25.9055 34.0481 25.7586C34.1902 25.6118 34.2669 25.5536 34.3814 25.4622C34.4964 25.3705 34.5503 25.3488 34.6224 25.3007C34.6944 25.2531 34.7158 25.2428 34.7423 25.222C34.7689 25.2012 34.7674 25.1922 34.7556 25.1974C34.7435 25.2025 34.7171 25.1897 34.6818 25.2481C34.6466 25.3064 34.6364 25.363 34.5788 25.4886C34.5215 25.6146 34.4921 25.7036 34.3951 25.8772C34.2984 26.0508 34.2274 26.1531 34.0948 26.3564C33.9618 26.5601 33.8773 26.6778 33.7304 26.8943C33.584 27.1108 33.498 27.2249 33.3612 27.4385C33.2248 27.6525 33.1528 27.7609 33.0465 27.9627C32.9402 28.1641 32.8889 28.2617 32.8298 28.4465C32.7711 28.6314 32.7531 28.7253 32.752 28.887C32.7508 29.0491 32.7705 29.1203 32.8245 29.2555C32.878 29.391 32.9176 29.4613 33.0208 29.5647C33.1241 29.6682 33.201 29.7103 33.34 29.7727C33.4794 29.8351 33.561 29.849 33.7171 29.8765C33.8736 29.904 33.9515 29.9148 34.1217 29.9102C34.2919 29.9056 34.3875 29.8979 34.5685 29.8532C34.7491 29.8088 34.8431 29.7727 35.0253 29.6879C35.2076 29.6027 35.2941 29.5486 35.4798 29.4275C35.6658 29.3068 35.7657 29.2373 35.9555 29.0837C36.145 28.9297 36.2448 28.843 36.4284 28.6586C36.6124 28.4739 36.7002 28.3839 36.8751 28.1608C37.0499 27.9376 37.1357 27.8167 37.3026 27.5428C37.4691 27.2687 37.5503 27.1047 37.708 26.7902C37.8655 26.4761 37.9448 26.3085 38.0907 25.9715C38.2365 25.6345 38.3069 25.4549 38.4367 25.1056C38.5662 24.7562 38.6294 24.5637 38.7385 24.2256C38.8473 23.8871 38.8989 23.7245 38.9815 23.4148C39.0638 23.1051 39.095 22.9467 39.1505 22.6765C39.2056 22.4067 39.236 22.2734 39.2577 22.0656C39.2799 21.8575 39.304 21.7625 39.2602 21.6369C39.2163 21.5118 39.1405 21.4574 39.0383 21.4392C38.9364 21.4211 38.8463 21.436 38.7501 21.546C38.6539 21.6563 38.6361 21.7666 38.5576 21.9902C38.4791 22.2142 38.4453 22.3579 38.3575 22.6659C38.2693 22.9738 38.2203 23.1586 38.1178 23.5305C38.0152 23.9023 37.9543 24.1166 37.8453 24.5247C37.736 24.9324 37.6776 25.1563 37.5724 25.5696C37.4668 25.9829 37.4116 26.2003 37.3177 26.5911C37.2237 26.9824 37.1835 27.175 37.1022 27.5247C37.0213 27.875 36.9713 28.0504 36.9115 28.3417C36.8521 28.6326 36.8246 28.7685 36.8048 28.9796C36.785 29.191 36.7669 29.2803 36.8128 29.3982C36.8584 29.516 36.9285 29.5637 37.0337 29.5689C37.1389 29.5745 37.2183 29.5457 37.3388 29.4255C37.4593 29.3054 37.5005 29.1809 37.6362 28.9685C37.772 28.756 37.8473 28.6146 38.0177 28.363C38.1879 28.1118 38.2906 27.9622 38.4873 27.7108C38.6845 27.4595 38.7981 27.3197 39.0023 27.1068C39.2064 26.8944 39.3162 26.8039 39.509 26.647C39.7019 26.4897 39.8005 26.4184 39.9662 26.3216C40.132 26.2245 40.2181 26.1905 40.3378 26.162C40.4573 26.1339 40.491 26.1458 40.5642 26.1801C40.6374 26.214 40.6538 26.2289 40.7042 26.3328C40.7545 26.4368 40.7899 26.5147 40.8163 26.7003C40.8431 26.8859 40.8512 27.0143 40.8381 27.2613C40.8245 27.5085 40.7912 27.6591 40.75 27.9362C40.7089 28.2129 40.6773 28.3713 40.6323 28.6465C40.5869 28.9212 40.5603 29.0645 40.5234 29.3104C40.4869 29.5569 40.4617 29.6739 40.4486 29.8773C40.4352 30.0805 40.4359 30.183 40.4574 30.327C40.4793 30.4711 40.5057 30.5216 40.5567 30.5963C40.6073 30.671 40.6596 30.6867 40.7119 30.7004C40.7642 30.7137 40.8009 30.687 40.8182 30.6634C40.8355 30.6403 40.8056 30.6005 40.798 30.5829C40.7908 30.5658 40.7846 30.5954 40.7813 30.5772C40.778 30.5591 40.7922 30.5522 40.781 30.4929C40.7703 30.4332 40.7502 30.4027 40.7259 30.2808C40.7016 30.1585 40.6637 30.0709 40.6588 29.8818C40.6541 29.6923 40.6737 29.576 40.7023 29.3345C40.7309 29.0931 40.7569 28.9481 40.8018 28.6741C40.8466 28.4001 40.8788 28.2435 40.9266 27.9641C40.9745 27.6847 41.0151 27.5354 41.0409 27.2772C41.0664 27.0188 41.0741 26.8859 41.0549 26.6726C41.0355 26.4597 41.0209 26.3575 40.9441 26.211C40.8668 26.0644 40.8023 25.9955 40.6694 25.9391C40.5365 25.8832 40.4406 25.8871 40.2788 25.93C40.1173 25.9733 40.0371 26.0372 39.8616 26.1554C39.6861 26.2732 39.5954 26.3501 39.4013 26.5194C39.2073 26.6886 39.0979 26.7821 38.8907 27.0007C38.6838 27.2199 38.5689 27.3619 38.3654 27.6139C38.1619 27.8655 38.0555 28.0148 37.8732 28.2602C37.6904 28.506 37.5996 28.6441 37.4525 28.8416C37.3054 29.0392 37.2245 29.1328 37.1372 29.2471C37.0499 29.3619 37.0393 29.3953 37.0168 29.4147C36.9944 29.434 37.0299 29.4294 37.0246 29.3447C37.0193 29.2599 36.9845 29.1866 36.9903 28.9913C36.9958 28.7955 37.006 28.6551 37.0524 28.367C37.0982 28.0794 37.1461 27.9015 37.2207 27.5515C37.2957 27.2015 37.3348 27.0079 37.4266 26.6171C37.5181 26.2262 37.5732 26.0093 37.6791 25.5969C37.7854 25.1846 37.8441 24.9611 37.9577 24.5554C38.0709 24.1493 38.1335 23.9353 38.2459 23.5676C38.3578 23.1998 38.4138 23.0153 38.5185 22.7168C38.6227 22.4186 38.6747 22.2767 38.768 22.0753C38.8612 21.8738 38.9344 21.8092 38.9843 21.7101C39.0347 21.6106 39.0126 21.5822 39.0185 21.579C39.0249 21.5763 39.0074 21.6006 39.0157 21.6951C39.0239 21.79 39.064 21.862 39.0598 22.0526C39.056 22.2432 39.038 22.3828 38.9958 22.6485C38.954 22.9142 38.9251 23.0734 38.8495 23.3813C38.7736 23.6887 38.7233 23.8507 38.6175 24.1868C38.5115 24.5232 38.4488 24.7154 38.3201 25.0624C38.1912 25.4089 38.1206 25.5872 37.9741 25.9204C37.8276 26.2539 37.7465 26.42 37.5873 26.7288C37.428 27.038 37.3451 27.1992 37.1778 27.4655C37.0105 27.7319 36.9247 27.8477 36.7502 28.0609C36.5754 28.274 36.4873 28.3576 36.3043 28.5312C36.1212 28.7052 36.0218 28.7869 35.8346 28.93C35.6469 29.073 35.5476 29.1384 35.3666 29.2465C35.1861 29.3546 35.1012 29.401 34.9302 29.4713C34.7592 29.542 34.674 29.5678 34.5125 29.5986C34.3505 29.6293 34.269 29.6305 34.1222 29.6251C33.9754 29.6201 33.9083 29.6027 33.7786 29.5725C33.649 29.5423 33.5816 29.5215 33.4742 29.4736C33.3672 29.4253 33.3191 29.3993 33.243 29.3318C33.1669 29.2643 33.1405 29.2259 33.0938 29.1356C33.0472 29.0449 33.0194 29.0046 33.0091 28.8792C32.9989 28.7534 33.0003 28.6735 33.0427 28.5081C33.0852 28.3424 33.126 28.2455 33.2209 28.0515C33.3163 27.8576 33.3847 27.7481 33.5175 27.5381C33.6507 27.3286 33.7363 27.2144 33.8866 27.0023C34.0366 26.7901 34.1222 26.6734 34.2678 26.4773C34.4135 26.2807 34.4901 26.1852 34.6142 26.0203C34.7384 25.8551 34.8078 25.7906 34.8893 25.6523C34.9713 25.514 35.0181 25.4416 35.023 25.3283C35.0278 25.2151 34.9761 25.1528 34.9144 25.0869C34.8528 25.0205 34.8027 25.0042 34.7144 24.9976C34.6261 24.9914 34.5725 24.9985 34.4731 25.0546C34.3732 25.1111 34.3308 25.1645 34.2167 25.279C34.1029 25.394 34.0393 25.464 33.9027 25.6285C33.7661 25.7926 33.6766 25.8847 33.5331 26.1009C33.3896 26.3175 33.3266 26.4501 33.185 26.7106C33.0434 26.9712 32.9664 27.1249 32.8251 27.404C32.6834 27.6829 32.6036 27.8459 32.4778 28.1049C32.3519 28.3642 32.2986 28.5014 32.1959 28.6991C32.0932 28.8969 32.0161 28.9802 31.9641 29.0941C31.9126 29.208 31.9316 29.2527 31.9378 29.2688C31.9435 29.2848 31.9857 29.2654 31.994 29.1749C32.0022 29.0844 31.9726 29.0124 31.9791 28.8155C31.9856 28.6187 31.9876 28.4772 32.0261 28.1913C32.0646 27.9049 32.1036 27.7373 32.1711 27.3844C32.2386 27.032 32.2816 26.8222 32.3636 26.4277C32.4455 26.0332 32.5004 25.8124 32.5806 25.4113C32.661 25.0107 32.6998 24.8061 32.7652 24.4231C32.831 24.0402 32.8638 23.8443 32.9084 23.4956C32.953 23.1469 32.9669 22.9865 32.9892 22.679C33.0115 22.3715 33.0189 22.2049 33.0202 21.9581C33.0211 21.7117 33.0167 21.6065 32.9946 21.4456C32.9725 21.2851 32.957 21.2087 32.9093 21.1547C32.8616 21.1007 32.7876 21.1123 32.7561 21.1755Z" fill="#3E450D"/>
<path d="M44.1673 27.4018C44.1847 27.3476 44.177 27.3103 44.1456 27.264C44.1143 27.2177 44.0824 27.2028 44.0101 27.1703C43.9375 27.1378 43.8939 27.105 43.7834 27.101C43.6733 27.0971 43.5926 27.0934 43.4585 27.1509C43.3245 27.208 43.2531 27.2696 43.1137 27.3875C42.9742 27.5054 42.8951 27.5703 42.7614 27.7403C42.628 27.9104 42.5538 28.0222 42.4452 28.2375C42.3363 28.4527 42.2822 28.5817 42.2184 28.8157C42.155 29.0497 42.1293 29.1801 42.1269 29.4078C42.1244 29.636 42.1375 29.7598 42.2059 29.9548C42.2743 30.1502 42.3338 30.2422 42.4696 30.3846C42.6055 30.527 42.6985 30.5935 42.8852 30.6663C43.0719 30.7395 43.1888 30.753 43.4036 30.7499C43.618 30.7467 43.7412 30.7222 43.9582 30.6503C44.1755 30.5788 44.2939 30.5271 44.4892 30.3907C44.6841 30.2543 44.7826 30.1557 44.9335 29.9688C45.0846 29.7824 45.1504 29.6738 45.2431 29.458C45.3357 29.2426 45.3666 29.1215 45.3972 28.8909C45.4276 28.6606 45.4175 28.5243 45.3961 28.3056C45.3745 28.0865 45.341 27.979 45.2894 27.7965C45.2377 27.6143 45.2112 27.5286 45.137 27.3938C45.0632 27.2592 45.0082 27.1935 44.9196 27.1235C44.8305 27.0534 44.7717 27.0542 44.6924 27.044C44.6131 27.0338 44.5694 27.0472 44.5225 27.0721C44.4757 27.0967 44.4579 27.1307 44.4588 27.1681C44.4594 27.2055 44.5027 27.2379 44.5257 27.2584C44.5491 27.2791 44.5538 27.2635 44.5753 27.2704C44.5969 27.2769 44.6033 27.2759 44.6339 27.2914C44.664 27.3073 44.6762 27.2993 44.7276 27.3488C44.7789 27.3984 44.8236 27.4352 44.8907 27.5394C44.9578 27.6435 45.0039 27.712 45.0625 27.8701C45.1211 28.0283 45.1566 28.131 45.1841 28.3301C45.2111 28.5296 45.2233 28.6562 45.199 28.8665C45.1752 29.0765 45.1476 29.1856 45.0641 29.381C44.9802 29.5769 44.9185 29.6761 44.7808 29.8446C44.6426 30.013 44.5514 30.1032 44.3738 30.224C44.1965 30.3449 44.0879 30.3882 43.8933 30.4487C43.6987 30.5097 43.5862 30.5259 43.401 30.5272C43.2158 30.5284 43.1217 30.5146 42.9671 30.4551C42.8129 30.3956 42.7417 30.3444 42.6298 30.2299C42.5174 30.1157 42.4662 30.0473 42.4065 29.8835C42.3468 29.7193 42.3291 29.6128 42.3308 29.4101C42.3328 29.2074 42.3539 29.0847 42.4149 28.8704C42.4755 28.6556 42.5291 28.5319 42.6354 28.3377C42.7422 28.1435 42.8172 28.0398 42.9481 27.8995C43.0791 27.7593 43.1606 27.7102 43.2907 27.6357C43.4213 27.5612 43.501 27.5563 43.5994 27.5265C43.6984 27.4963 43.7318 27.4892 43.7836 27.4852C43.8355 27.4812 43.8282 27.4926 43.8586 27.5064C43.889 27.5202 43.896 27.5486 43.9363 27.554C43.9764 27.5598 44.0142 27.5648 44.0603 27.5343C44.1069 27.5038 44.1505 27.4556 44.1673 27.4018Z" fill="#3E450D"/>
<path d="M47.6418 23.6109C47.5907 23.6381 47.5691 23.6748 47.5364 23.7713C47.5033 23.8678 47.5071 23.9133 47.4772 24.0941C47.4478 24.2747 47.4383 24.4035 47.3874 24.6757C47.337 24.9475 47.2936 25.114 47.2244 25.454C47.1549 25.7935 47.1185 25.9909 47.0402 26.3739C46.9617 26.7573 46.9167 26.9738 46.832 27.3695C46.747 27.7648 46.6961 27.9741 46.6157 28.3512C46.535 28.7284 46.4965 28.9153 46.4291 29.2552C46.3616 29.5951 46.3285 29.7725 46.2788 30.0507C46.229 30.329 46.214 30.4401 46.1804 30.6464C46.1464 30.8521 46.1103 30.9334 46.1091 31.0804C46.1078 31.2274 46.1155 31.2979 46.1738 31.3813C46.2322 31.4648 46.2963 31.506 46.4004 31.4976C46.5046 31.4888 46.5695 31.4488 46.6948 31.3378C46.82 31.2272 46.8804 31.1357 47.0274 30.944C47.1744 30.7523 47.2574 30.623 47.4295 30.3788C47.6019 30.1347 47.7048 29.9869 47.8887 29.7237C48.0723 29.4605 48.1777 29.3151 48.3484 29.0636C48.5195 28.8122 48.5927 28.6741 48.7431 28.467C48.8939 28.2596 48.9672 28.1639 49.1018 28.0272C49.2367 27.891 49.3355 27.8565 49.4175 27.7841C49.4999 27.7113 49.5025 27.6652 49.5127 27.6648C49.5228 27.6644 49.4716 27.6848 49.4685 27.7825C49.4654 27.8797 49.4992 27.9696 49.4976 28.1517C49.4957 28.3338 49.486 28.4535 49.4599 28.6924C49.4338 28.9313 49.414 29.092 49.3673 29.3469C49.3205 29.6021 49.2835 29.7449 49.2263 29.9669C49.169 30.189 49.1247 30.2898 49.0806 30.4579C49.0369 30.6255 48.9908 30.6989 49.0066 30.8067C49.0218 30.9149 49.0728 30.9716 49.1579 30.9974C49.243 31.0232 49.325 31.0191 49.4318 30.9361C49.5391 30.8528 49.5667 30.7546 49.6925 30.582C49.8183 30.4095 49.8932 30.2889 50.0614 30.0726C50.2297 29.8563 50.3413 29.7238 50.5341 29.5015C50.7272 29.2792 50.8358 29.1504 51.026 28.9608C51.2162 28.7716 51.3153 28.6819 51.4856 28.5548C51.656 28.4274 51.7425 28.3834 51.8777 28.3244C52.0132 28.2658 52.074 28.2658 52.162 28.261C52.2504 28.2564 52.2667 28.2595 52.3194 28.3009C52.3725 28.3424 52.388 28.3705 52.4269 28.4679C52.4656 28.5658 52.4961 28.6304 52.5135 28.7888C52.531 28.9469 52.528 29.0563 52.5137 29.2598C52.4994 29.463 52.4833 29.5857 52.442 29.8054C52.4006 30.0254 52.3634 30.1518 52.3071 30.3581C52.2507 30.5647 52.2056 30.673 52.1599 30.8379C52.1138 31.0026 52.0684 31.079 52.0784 31.1813C52.0883 31.2836 52.1355 31.3358 52.2086 31.35C52.2814 31.3641 52.3536 31.3484 52.4438 31.2513C52.5341 31.1543 52.5428 31.0458 52.6596 30.8646C52.776 30.683 52.8568 30.5617 53.0275 30.3437C53.1986 30.1254 53.3053 29.987 53.5146 29.7737C53.7239 29.5604 53.8502 29.4458 54.0739 29.2773C54.2976 29.1088 54.4277 29.0321 54.6323 28.9309C54.8374 28.8293 54.9415 28.7983 55.0976 28.77C55.2536 28.7416 55.3159 28.7557 55.4128 28.7889C55.5095 28.8225 55.5291 28.8387 55.5811 28.9375C55.6332 29.0363 55.6519 29.1056 55.6734 29.2828C55.6944 29.4599 55.6928 29.5842 55.6877 29.8232C55.683 30.0624 55.6763 30.2122 55.6495 30.4783C55.6228 30.744 55.5907 30.8876 55.5542 31.1537C55.5179 31.4195 55.499 31.564 55.4676 31.8075C55.4365 32.0515 55.4199 32.1725 55.3973 32.3726C55.3747 32.5731 55.3583 32.6622 55.355 32.8093C55.3516 32.9568 55.3565 33.0205 55.3809 33.1092C55.4049 33.1975 55.4379 33.2264 55.4756 33.2516C55.5135 33.2763 55.5433 33.2661 55.5704 33.2337C55.5976 33.2013 55.6017 33.1742 55.6118 33.0899C55.6215 33.0056 55.6207 32.9522 55.6201 32.8116C55.6189 32.6713 55.601 32.5845 55.6074 32.388C55.6135 32.1915 55.6263 32.0707 55.6508 31.8286C55.6752 31.5868 55.693 31.4438 55.7294 31.1776C55.7662 30.9115 55.8008 30.7684 55.8344 30.4988C55.8684 30.2297 55.883 30.0803 55.8984 29.8321C55.9135 29.5837 55.9298 29.4619 55.9107 29.2574C55.8916 29.0534 55.8864 28.9506 55.8024 28.8113C55.7182 28.6716 55.6396 28.6091 55.49 28.5597C55.3409 28.5107 55.2438 28.5219 55.0556 28.5642C54.8675 28.6065 54.7663 28.6553 54.55 28.7713C54.3337 28.8878 54.2053 28.9694 53.9744 29.1459C53.7431 29.3225 53.615 29.4401 53.3951 29.6542C53.1756 29.8683 53.0649 30.0052 52.8761 30.2168C52.6875 30.4289 52.5903 30.5424 52.4513 30.7136C52.3124 30.8844 52.2356 30.9582 52.1816 31.0721C52.1275 31.1861 52.1528 31.2515 52.1814 31.2835C52.2101 31.3155 52.278 31.3082 52.3245 31.2324C52.3714 31.1567 52.3755 31.0685 52.4152 30.9044C52.4549 30.7402 52.4749 30.624 52.5237 30.4127C52.572 30.2014 52.612 30.0738 52.6577 29.8477C52.7038 29.6222 52.7266 29.4993 52.7539 29.2836C52.7807 29.0678 52.8011 28.9571 52.7936 28.7688C52.7865 28.5806 52.781 28.4824 52.7172 28.3427C52.6535 28.203 52.5899 28.1413 52.4754 28.07C52.3606 27.9986 52.2839 27.9754 52.1443 27.9851C52.0046 27.9951 51.9325 28.0361 51.7772 28.1203C51.622 28.2041 51.5433 28.262 51.3685 28.4059C51.1938 28.5494 51.0969 28.6433 50.9039 28.8395C50.7109 29.0354 50.6027 29.1647 50.4031 29.3855C50.2035 29.6062 50.088 29.7369 49.9054 29.9432C49.7228 30.1496 49.631 30.2636 49.4904 30.4169C49.3497 30.5703 49.2673 30.617 49.2016 30.7102C49.1358 30.8038 49.1526 30.8598 49.1617 30.8831C49.1704 30.9064 49.2145 30.9011 49.2452 30.8273C49.2762 30.7536 49.2801 30.677 49.3162 30.5144C49.3518 30.3521 49.3753 30.2402 49.4248 30.0144C49.4743 29.7881 49.5113 29.6428 49.5632 29.3847C49.6151 29.1265 49.6418 28.9674 49.6833 28.7234C49.7248 28.4799 49.7526 28.365 49.7709 28.1658C49.7891 27.9667 49.8175 27.8582 49.774 27.7281C49.7305 27.598 49.6554 27.547 49.5536 27.516C49.4513 27.4852 49.3839 27.4976 49.2636 27.5729C49.1431 27.6478 49.0826 27.7321 48.9513 27.892C48.8196 28.0519 48.7528 28.1545 48.6066 28.3715C48.4605 28.5885 48.3901 28.7249 48.2205 28.9771C48.0514 29.2293 47.947 29.3735 47.76 29.6324C47.573 29.8909 47.4672 30.039 47.2849 30.2715C47.1031 30.5036 47.0089 30.6247 46.8501 30.7939C46.6916 30.9636 46.5955 31.0173 46.4916 31.118C46.3877 31.2191 46.3585 31.2613 46.3309 31.2991C46.3028 31.3368 46.3468 31.3499 46.3526 31.3068C46.3581 31.2637 46.3571 31.2115 46.3589 31.0835C46.3608 30.9555 46.3491 30.8688 46.3623 30.6672C46.3751 30.4651 46.3855 30.3515 46.4242 30.0739C46.4625 29.7963 46.4928 29.6185 46.5539 29.2788C46.6155 28.9392 46.6522 28.7527 46.7308 28.3757C46.8099 27.9987 46.8608 27.7895 46.9475 27.3945C47.0341 26.9995 47.0796 26.7822 47.1645 26.4003C47.2494 26.0188 47.2888 25.8232 47.3716 25.4871C47.4541 25.1505 47.5047 24.9861 47.5777 24.7193C47.6512 24.4525 47.6862 24.3296 47.7371 24.153C47.7886 23.9762 47.8236 23.9396 47.834 23.836C47.8447 23.733 47.8289 23.6817 47.7902 23.6363C47.7519 23.5914 47.6923 23.5841 47.6418 23.6109Z" fill="#3E450D"/>
<path d="M17.8937 19.5673C17.8915 19.5044 17.8687 19.452 17.7935 19.3817C17.7187 19.3115 17.6548 19.2716 17.5189 19.216C17.3831 19.16 17.2936 19.1352 17.1141 19.1021C16.9346 19.0691 16.8352 19.0594 16.6214 19.0513C16.4076 19.0429 16.282 19.0339 16.0453 19.0602C15.8082 19.0868 15.6829 19.1165 15.4365 19.1836C15.1902 19.2502 15.0519 19.2928 14.8134 19.3939C14.5748 19.495 14.4461 19.558 14.2437 19.689C14.0409 19.8199 13.9478 19.8963 13.8006 20.0486C13.6529 20.2011 13.5857 20.2777 13.5063 20.4516C13.4267 20.6259 13.3939 20.7308 13.4028 20.9202C13.4119 21.1092 13.4518 21.2181 13.551 21.3968C13.6497 21.5758 13.7326 21.6558 13.8976 21.8143C14.0622 21.9732 14.166 22.0407 14.3756 22.191C14.5848 22.3413 14.7084 22.4104 14.9443 22.5664C15.1799 22.7219 15.3152 22.8013 15.5538 22.9695C15.7924 23.1372 15.9196 23.225 16.1367 23.4063C16.3537 23.5877 16.4578 23.6838 16.639 23.8764C16.8203 24.0691 16.909 24.1714 17.0429 24.3693C17.1767 24.5667 17.2304 24.6687 17.3083 24.8644C17.3862 25.0605 17.4129 25.1602 17.4325 25.3488C17.4516 25.5377 17.4516 25.6321 17.4048 25.8084C17.358 25.9852 17.3165 26.0715 17.1987 26.2311C17.0813 26.3908 17.0033 26.4719 16.8166 26.6071C16.6295 26.7418 16.5096 26.8047 16.265 26.9068C16.0205 27.0086 15.8783 27.0593 15.5929 27.1166C15.307 27.1742 15.1412 27.19 14.8361 27.1941C14.5309 27.1987 14.3719 27.1758 14.0661 27.1382C13.7607 27.1008 13.5834 27.0744 13.3082 27.0067C13.0328 26.9394 12.9062 26.8988 12.6892 26.8004C12.4723 26.7021 12.3654 26.6333 12.2231 26.515C12.0803 26.3966 12.0369 26.3295 11.9767 26.2088C11.9166 26.0882 11.9046 26.0308 11.9222 25.9117C11.9403 25.7922 11.9602 25.7405 12.0664 25.6126C12.1728 25.4842 12.2871 25.3966 12.4546 25.2712C12.6221 25.1458 12.7429 25.0848 12.9031 24.9854C13.0639 24.8857 13.1995 24.844 13.2561 24.7732C13.3131 24.7025 13.2803 24.6292 13.1873 24.631C13.0939 24.6332 12.9652 24.6937 12.7898 24.783C12.614 24.8722 12.4915 24.9409 12.3093 25.0769C12.1271 25.2124 12.0033 25.3015 11.8787 25.462C11.7539 25.623 11.7068 25.71 11.6863 25.8803C11.6658 26.0501 11.6925 26.1547 11.7755 26.3123C11.8585 26.4703 11.9322 26.5395 12.1013 26.6685C12.2703 26.7975 12.3868 26.8595 12.621 26.9573C12.8552 27.0552 12.9867 27.0916 13.2723 27.1576C13.5576 27.2232 13.7354 27.2484 14.0484 27.2859C14.3614 27.3229 14.5228 27.3462 14.8378 27.3437C15.1528 27.3408 15.3244 27.3277 15.623 27.2722C15.9211 27.2166 16.0691 27.1685 16.3293 27.0659C16.5899 26.9634 16.719 26.9034 16.925 26.7605C17.1311 26.6175 17.2241 26.5314 17.3599 26.3517C17.4958 26.1716 17.5497 26.0664 17.6041 25.8615C17.6585 25.6566 17.6558 25.5408 17.6311 25.3271C17.6068 25.1138 17.5708 25.0046 17.4815 24.7936C17.3923 24.5822 17.3305 24.4763 17.1854 24.2708C17.0407 24.0649 16.9466 23.9617 16.757 23.7642C16.5677 23.5669 16.4604 23.4699 16.2382 23.2847C16.0163 23.0996 15.8868 23.0098 15.6468 22.8381C15.4072 22.6664 15.2714 22.5844 15.0394 22.4253C14.807 22.2657 14.6856 22.1928 14.4864 22.0407C14.2875 21.8892 14.1912 21.8171 14.0441 21.6665C13.8966 21.5159 13.8316 21.4398 13.7497 21.2883C13.6674 21.1363 13.6419 21.0574 13.6334 20.908C13.6249 20.7589 13.6441 20.6858 13.7073 20.5419C13.7701 20.3983 13.8203 20.3278 13.9489 20.1892C14.077 20.0506 14.1614 19.9744 14.3489 19.8494C14.5361 19.7243 14.6585 19.661 14.8858 19.5648C15.1131 19.4686 15.2495 19.4274 15.485 19.3677C15.7209 19.3081 15.8404 19.2826 16.0641 19.2667C16.2877 19.2508 16.4074 19.2651 16.6031 19.2886C16.7989 19.3122 16.8894 19.333 17.0423 19.3847C17.1948 19.4363 17.2533 19.4883 17.3669 19.5469C17.481 19.6056 17.5233 19.6487 17.6111 19.6783C17.6985 19.7078 17.7485 19.7178 17.805 19.6956C17.8615 19.6735 17.8959 19.6301 17.8937 19.5673Z" stroke="#3E450D" stroke-width="0.50024"/>
<path d="M20.8113 20.172C20.7663 20.2237 20.7701 20.2919 20.7374 20.4446C20.7045 20.5977 20.6955 20.7057 20.6472 20.9371C20.5985 21.1682 20.5685 21.3092 20.4952 21.6007C20.4219 21.8918 20.3697 22.0631 20.2802 22.3943C20.1907 22.7255 20.1426 22.9075 20.0471 23.2571C19.9512 23.6065 19.8974 23.7897 19.8015 24.1417C19.7056 24.494 19.6574 24.6815 19.5674 25.0177C19.4775 25.3539 19.4307 25.5156 19.3522 25.823C19.2733 26.1304 19.2348 26.2897 19.1747 26.5545C19.1142 26.8196 19.0928 26.949 19.0499 27.1474C19.0075 27.3459 18.9645 27.4386 18.9617 27.5468C18.959 27.6545 19.0004 27.6706 19.0366 27.6875C19.0729 27.704 19.1245 27.6685 19.143 27.6296C19.1613 27.5902 19.1783 27.505 19.1285 27.4917C19.0787 27.4785 18.927 27.5234 18.8931 27.5635C18.8593 27.6033 18.9177 27.6607 18.9596 27.6915C19.0019 27.7224 19.0507 27.7393 19.1041 27.7179C19.1575 27.697 19.1975 27.6935 19.2266 27.5859C19.2562 27.478 19.2297 27.3793 19.2502 27.1792C19.2706 26.9792 19.2826 26.8508 19.3297 26.5859C19.3768 26.3215 19.4134 26.1632 19.486 25.856C19.5585 25.5488 19.6042 25.3865 19.6916 25.0504C19.7791 24.7142 19.8272 24.5267 19.9235 24.1752C20.0198 23.8233 20.0739 23.6406 20.1729 23.2925C20.2724 22.9441 20.3216 22.7631 20.4192 22.4336C20.5172 22.1047 20.5753 21.936 20.6621 21.6467C20.7493 21.3575 20.7902 21.2191 20.8545 20.9873C20.9188 20.7555 20.9621 20.6482 20.984 20.4878C21.0054 20.3274 20.9978 20.2494 20.9633 20.1862C20.9289 20.1231 20.8568 20.1204 20.8113 20.172Z" stroke="#3E450D" stroke-width="0.50024"/>
<path d="M17.9656 24.8019C18.0202 24.8118 18.045 24.7882 18.1278 24.749C18.2103 24.7094 18.2402 24.6678 18.3788 24.6055C18.517 24.5432 18.613 24.4878 18.8193 24.4376C19.0259 24.3874 19.1578 24.3811 19.4114 24.3538C19.6647 24.3265 19.8112 24.3154 20.0865 24.3014C20.3619 24.2873 20.5216 24.2776 20.7874 24.2834C21.0532 24.2891 21.1832 24.3064 21.416 24.3294C21.6491 24.3524 21.8406 24.4171 21.9523 24.3983C22.0641 24.3794 22.0783 24.2832 21.9747 24.235C21.8707 24.1868 21.6704 24.1831 21.4338 24.1578C21.1972 24.133 21.0624 24.1162 20.7913 24.1096C20.5203 24.1025 20.3581 24.1147 20.0788 24.1248C19.7996 24.1344 19.656 24.143 19.3951 24.1582C19.1343 24.1734 19 24.1688 18.7741 24.2007C18.5486 24.2331 18.433 24.2622 18.2669 24.3186C18.1007 24.3751 18.0249 24.4074 17.9423 24.4835C17.8601 24.5593 17.8502 24.6348 17.8548 24.6985C17.8593 24.7621 17.9111 24.7916 17.9656 24.8019Z" stroke="#3E450D" stroke-width="0.50024"/>
<path d="M24.3457 24.4864C24.3358 24.4294 24.3138 24.3901 24.2374 24.3398C24.1615 24.2891 24.0991 24.2452 23.9652 24.2331C23.8313 24.2211 23.739 24.2369 23.568 24.2791C23.3971 24.3213 23.3025 24.3581 23.1102 24.4433C22.9178 24.529 22.8105 24.5741 22.6067 24.7061C22.4029 24.8381 22.2824 24.9176 22.0907 25.1032C21.899 25.2883 21.7951 25.4096 21.6479 25.6327C21.5007 25.8562 21.4338 25.9819 21.3552 26.2193C21.2765 26.4567 21.2511 26.5875 21.2542 26.8204C21.2572 27.0536 21.2756 27.1833 21.3706 27.3848C21.4653 27.5858 21.5529 27.6825 21.7287 27.8273C21.904 27.972 22.0187 28.0312 22.2475 28.1085C22.4759 28.186 22.6128 28.2049 22.8714 28.214C23.1302 28.2237 23.2827 28.212 23.5417 28.1549C23.8007 28.0975 23.9344 28.047 24.166 27.9276C24.3975 27.8082 24.5078 27.7295 24.6992 27.5581C24.8907 27.3868 24.9832 27.2863 25.1229 27.0704C25.2625 26.8548 25.3262 26.7231 25.3978 26.48C25.4694 26.2372 25.4796 26.1018 25.4808 25.8558C25.482 25.6102 25.4623 25.4782 25.4033 25.2512C25.3443 25.0242 25.2885 24.9077 25.1853 24.7203C25.082 24.533 25.006 24.45 24.8866 24.3149C24.7671 24.1798 24.7006 24.1131 24.5888 24.0459C24.477 23.9788 24.4047 23.9824 24.3276 23.9793C24.2509 23.9767 24.23 24.0064 24.2041 24.0314C24.1776 24.0569 24.1868 24.0773 24.1968 24.1061C24.2067 24.135 24.2106 24.134 24.2544 24.1761C24.2978 24.218 24.3238 24.2538 24.4144 24.317C24.5055 24.3799 24.592 24.3891 24.7093 24.4915C24.8262 24.5939 24.8989 24.6667 25.0001 24.8285C25.1012 24.9908 25.1562 25.0972 25.2149 25.3027C25.2741 25.5079 25.2936 25.6307 25.2954 25.8562C25.2971 26.0817 25.2887 26.2061 25.2246 26.4295C25.1599 26.6533 25.1021 26.7746 24.9739 26.9744C24.8453 27.1742 24.76 27.2687 24.5827 27.4282C24.405 27.5875 24.3018 27.6611 24.0857 27.7713C23.87 27.8812 23.7449 27.9276 23.5036 27.9792C23.2623 28.0308 23.1175 28.0391 22.8789 28.0287C22.6403 28.0182 22.5147 27.997 22.3099 27.9263C22.1048 27.8555 22.0066 27.7998 21.8541 27.6748C21.7015 27.5498 21.6297 27.4721 21.5472 27.3008C21.4649 27.129 21.446 27.0223 21.4421 26.8175C21.4382 26.6126 21.4563 26.4931 21.5278 26.2763C21.5988 26.0595 21.6601 25.94 21.7987 25.7331C21.9374 25.5258 22.0371 25.4097 22.2203 25.2399C22.4039 25.0702 22.52 24.9971 22.7157 24.8839C22.9114 24.7707 23.0192 24.7328 23.1995 24.6745C23.3794 24.6161 23.4716 24.5987 23.6157 24.5923C23.7601 24.5863 23.8162 24.63 23.9204 24.6443C24.0242 24.6581 24.0627 24.6661 24.1363 24.6623C24.2095 24.6585 24.2448 24.6606 24.2867 24.6255C24.3286 24.5901 24.3555 24.5438 24.3457 24.4864Z" stroke="#3E450D" stroke-width="0.50024"/>
<path d="M29.3715 24.9073C29.3555 24.8493 29.3323 24.7813 29.2309 24.7432C29.1289 24.7053 29.0367 24.7027 28.8632 24.7168C28.6898 24.7309 28.5818 24.7475 28.3635 24.8146C28.1452 24.8821 28.0082 24.9371 27.7721 25.0536C27.5365 25.1699 27.4009 25.2389 27.1843 25.3977C26.9681 25.5562 26.8612 25.6497 26.6906 25.8471C26.5201 26.0442 26.4393 26.1604 26.3314 26.3841C26.224 26.608 26.1777 26.7358 26.1531 26.9662C26.1283 27.1969 26.1356 27.3206 26.2078 27.5359C26.2796 27.7512 26.343 27.8674 26.5136 28.0432C26.6842 28.219 26.8096 28.3026 27.061 28.4159C27.3119 28.5294 27.4679 28.5602 27.7687 28.61C28.0701 28.6593 28.2438 28.6692 28.5667 28.6642C28.8901 28.6589 29.0719 28.642 29.3848 28.5838C29.6973 28.5251 29.8498 28.4753 30.1299 28.3714C30.4096 28.2675 30.548 28.209 30.7839 28.063C31.0194 27.917 31.1223 27.8304 31.3078 27.6417C31.4937 27.453 31.5848 27.3255 31.7123 27.1201C31.8397 26.9147 31.8859 26.7877 31.9451 26.6142C32.0044 26.4407 32.0216 26.3316 32.0087 26.2523C31.9959 26.1726 31.931 26.1589 31.8803 26.2172C31.83 26.2752 31.8224 26.3821 31.756 26.5431C31.6896 26.7041 31.6624 26.8254 31.5486 27.0217C31.4348 27.2181 31.3566 27.3436 31.1869 27.5256C31.0175 27.7078 30.9233 27.7908 30.7016 27.932C30.4795 28.0731 30.3463 28.1304 30.0775 28.2319C29.8086 28.3334 29.6603 28.3831 29.3578 28.4397C29.0553 28.4962 28.8771 28.5117 28.565 28.5146C28.2525 28.5171 28.0823 28.5045 27.7959 28.4534C27.5091 28.4022 27.3626 28.3671 27.1325 28.2595C26.9029 28.1519 26.7953 28.0721 26.6467 27.9154C26.4977 27.7587 26.4491 27.6618 26.388 27.4759C26.3268 27.2901 26.3192 27.189 26.341 26.9863C26.3622 26.7839 26.3992 26.6671 26.4959 26.4625C26.5926 26.2579 26.6656 26.1462 26.8246 25.9628C26.9836 25.7798 27.0846 25.6912 27.2911 25.5458C27.4979 25.4009 27.6307 25.3356 27.8576 25.2368C28.0844 25.1384 28.2209 25.0938 28.4247 25.0533C28.6281 25.0126 28.7269 25.0319 28.8754 25.0342C29.0235 25.036 29.0785 25.0636 29.1657 25.0637C29.2534 25.0639 29.2706 25.066 29.3119 25.0346C29.3531 25.0033 29.3878 24.9658 29.3715 24.9073Z" stroke="#3E450D" stroke-width="0.50024"/>
<path d="M32.7561 21.1755C32.7247 21.2391 32.741 21.3131 32.7514 21.4708C32.7622 21.6286 32.7956 21.7239 32.8096 21.9636C32.8232 22.2036 32.828 22.3676 32.8199 22.6707C32.8121 22.9739 32.8051 23.1334 32.7701 23.4799C32.7346 23.8263 32.7049 24.0214 32.6444 24.4031C32.5834 24.7848 32.5455 24.9886 32.4669 25.3887C32.3882 25.7889 32.3337 26.0097 32.2501 26.4039C32.1669 26.7983 32.1231 27.0074 32.0501 27.3602C31.9767 27.7134 31.9356 27.8807 31.8842 28.1691C31.8324 28.4571 31.8153 28.596 31.7926 28.8019C31.7695 29.0078 31.7397 29.0842 31.7698 29.1991C31.8004 29.3136 31.8556 29.3651 31.9444 29.376C32.0332 29.3869 32.1189 29.3683 32.2133 29.2535C32.3082 29.1387 32.3295 29.0152 32.4168 28.8015C32.5046 28.5874 32.5405 28.4486 32.6514 28.1835C32.7623 27.9187 32.837 27.7557 32.9712 27.4764C33.1059 27.1971 33.1839 27.0422 33.3238 26.7864C33.4639 26.5302 33.5271 26.4014 33.6718 26.1955C33.8169 25.9901 33.9064 25.9055 34.0481 25.7586C34.1902 25.6118 34.2669 25.5536 34.3814 25.4622C34.4964 25.3705 34.5503 25.3488 34.6224 25.3007C34.6944 25.2531 34.7158 25.2428 34.7423 25.222C34.7689 25.2012 34.7674 25.1922 34.7556 25.1974C34.7435 25.2025 34.7171 25.1897 34.6818 25.2481C34.6466 25.3064 34.6364 25.363 34.5788 25.4886C34.5215 25.6146 34.4921 25.7036 34.3951 25.8772C34.2984 26.0508 34.2274 26.1531 34.0948 26.3564C33.9618 26.5601 33.8773 26.6778 33.7304 26.8943C33.584 27.1108 33.498 27.2249 33.3612 27.4385C33.2248 27.6525 33.1528 27.7609 33.0465 27.9627C32.9402 28.1641 32.8889 28.2617 32.8298 28.4465C32.7711 28.6314 32.7531 28.7253 32.752 28.887C32.7508 29.0491 32.7705 29.1203 32.8245 29.2555C32.878 29.391 32.9176 29.4613 33.0208 29.5647C33.1241 29.6682 33.201 29.7103 33.34 29.7727C33.4794 29.8351 33.561 29.849 33.7171 29.8765C33.8736 29.904 33.9515 29.9148 34.1217 29.9102C34.2919 29.9056 34.3875 29.8979 34.5685 29.8532C34.7491 29.8088 34.8431 29.7727 35.0253 29.6879C35.2076 29.6027 35.2941 29.5486 35.4798 29.4275C35.6658 29.3068 35.7657 29.2373 35.9555 29.0837C36.145 28.9297 36.2448 28.843 36.4284 28.6586C36.6124 28.4739 36.7002 28.3839 36.8751 28.1608C37.0499 27.9376 37.1357 27.8167 37.3026 27.5428C37.4691 27.2687 37.5503 27.1047 37.708 26.7902C37.8655 26.4761 37.9448 26.3085 38.0907 25.9715C38.2365 25.6345 38.3069 25.4549 38.4367 25.1056C38.5662 24.7562 38.6294 24.5637 38.7385 24.2256C38.8473 23.8871 38.8989 23.7245 38.9815 23.4148C39.0638 23.1051 39.095 22.9467 39.1505 22.6765C39.2056 22.4067 39.236 22.2734 39.2577 22.0656C39.2799 21.8575 39.304 21.7625 39.2602 21.6369C39.2163 21.5118 39.1405 21.4574 39.0383 21.4392C38.9364 21.4211 38.8463 21.436 38.7501 21.546C38.6539 21.6563 38.6361 21.7666 38.5576 21.9902C38.4791 22.2142 38.4453 22.3579 38.3575 22.6659C38.2693 22.9738 38.2203 23.1586 38.1178 23.5305C38.0152 23.9023 37.9543 24.1166 37.8453 24.5247C37.736 24.9324 37.6776 25.1563 37.5724 25.5696C37.4668 25.9829 37.4116 26.2003 37.3177 26.5911C37.2237 26.9824 37.1835 27.175 37.1022 27.5247C37.0213 27.875 36.9713 28.0504 36.9115 28.3417C36.8521 28.6326 36.8246 28.7685 36.8048 28.9796C36.785 29.191 36.7669 29.2803 36.8128 29.3982C36.8584 29.516 36.9285 29.5637 37.0337 29.5689C37.1389 29.5745 37.2183 29.5457 37.3388 29.4255C37.4593 29.3054 37.5005 29.1809 37.6362 28.9685C37.772 28.756 37.8473 28.6146 38.0177 28.363C38.1879 28.1118 38.2906 27.9622 38.4873 27.7108C38.6845 27.4595 38.7981 27.3197 39.0023 27.1068C39.2064 26.8944 39.3162 26.8039 39.509 26.647C39.7019 26.4897 39.8005 26.4184 39.9662 26.3216C40.132 26.2245 40.2181 26.1905 40.3378 26.162C40.4573 26.1339 40.491 26.1458 40.5642 26.1801C40.6374 26.214 40.6538 26.2289 40.7042 26.3328C40.7545 26.4368 40.7899 26.5147 40.8163 26.7003C40.8431 26.8859 40.8512 27.0143 40.8381 27.2613C40.8245 27.5085 40.7912 27.6591 40.75 27.9362C40.7089 28.2129 40.6773 28.3713 40.6323 28.6465C40.5869 28.9212 40.5603 29.0645 40.5234 29.3104C40.4869 29.5569 40.4617 29.6739 40.4486 29.8773C40.4352 30.0805 40.4359 30.183 40.4574 30.327C40.4793 30.4711 40.5057 30.5216 40.5567 30.5963C40.6073 30.671 40.6596 30.6867 40.7119 30.7004C40.7642 30.7137 40.8009 30.687 40.8182 30.6634C40.8355 30.6403 40.8056 30.6005 40.798 30.5829C40.7908 30.5658 40.7846 30.5954 40.7813 30.5772C40.778 30.5591 40.7922 30.5522 40.781 30.4929C40.7703 30.4332 40.7502 30.4027 40.7259 30.2808C40.7016 30.1585 40.6637 30.0709 40.6588 29.8818C40.6541 29.6923 40.6737 29.576 40.7023 29.3345C40.7309 29.0931 40.7569 28.9481 40.8018 28.6741C40.8466 28.4001 40.8788 28.2435 40.9266 27.9641C40.9745 27.6847 41.0151 27.5354 41.0409 27.2772C41.0664 27.0188 41.0741 26.8859 41.0549 26.6726C41.0355 26.4597 41.0209 26.3575 40.9441 26.211C40.8668 26.0644 40.8023 25.9955 40.6694 25.9391C40.5365 25.8832 40.4406 25.8871 40.2788 25.93C40.1173 25.9733 40.0371 26.0372 39.8616 26.1554C39.6861 26.2732 39.5954 26.3501 39.4013 26.5194C39.2073 26.6886 39.0979 26.7821 38.8907 27.0007C38.6838 27.2199 38.5689 27.3619 38.3654 27.6139C38.1619 27.8655 38.0555 28.0148 37.8732 28.2602C37.6904 28.506 37.5996 28.6441 37.4525 28.8416C37.3054 29.0392 37.2245 29.1328 37.1372 29.2471C37.0499 29.3619 37.0393 29.3953 37.0168 29.4147C36.9944 29.434 37.0299 29.4294 37.0246 29.3447C37.0193 29.2599 36.9845 29.1866 36.9903 28.9913C36.9958 28.7955 37.006 28.6551 37.0524 28.367C37.0982 28.0794 37.1461 27.9015 37.2207 27.5515C37.2957 27.2015 37.3348 27.0079 37.4266 26.6171C37.5181 26.2262 37.5732 26.0093 37.6791 25.5969C37.7854 25.1846 37.8441 24.9611 37.9577 24.5554C38.0709 24.1493 38.1335 23.9353 38.2459 23.5676C38.3578 23.1998 38.4138 23.0153 38.5185 22.7168C38.6227 22.4186 38.6747 22.2767 38.768 22.0753C38.8612 21.8738 38.9344 21.8092 38.9843 21.7101C39.0347 21.6106 39.0126 21.5822 39.0185 21.579C39.0249 21.5763 39.0074 21.6006 39.0157 21.6951C39.0239 21.79 39.064 21.862 39.0598 22.0526C39.056 22.2432 39.038 22.3828 38.9958 22.6485C38.954 22.9142 38.9251 23.0734 38.8495 23.3813C38.7736 23.6887 38.7233 23.8507 38.6175 24.1868C38.5115 24.5232 38.4488 24.7154 38.3201 25.0624C38.1912 25.4089 38.1206 25.5872 37.9741 25.9204C37.8276 26.2539 37.7465 26.42 37.5873 26.7288C37.428 27.038 37.3451 27.1992 37.1778 27.4655C37.0105 27.7319 36.9247 27.8477 36.7502 28.0609C36.5754 28.274 36.4873 28.3576 36.3043 28.5312C36.1212 28.7052 36.0218 28.7869 35.8346 28.93C35.6469 29.073 35.5476 29.1384 35.3666 29.2465C35.1861 29.3546 35.1012 29.401 34.9302 29.4713C34.7592 29.542 34.674 29.5678 34.5125 29.5986C34.3505 29.6293 34.269 29.6305 34.1222 29.6251C33.9754 29.6201 33.9083 29.6027 33.7786 29.5725C33.649 29.5423 33.5816 29.5215 33.4742 29.4736C33.3672 29.4253 33.3191 29.3993 33.243 29.3318C33.1669 29.2643 33.1405 29.2259 33.0938 29.1356C33.0472 29.0449 33.0194 29.0046 33.0091 28.8792C32.9989 28.7534 33.0003 28.6735 33.0427 28.5081C33.0852 28.3424 33.126 28.2455 33.2209 28.0515C33.3163 27.8576 33.3847 27.7481 33.5175 27.5381C33.6507 27.3286 33.7363 27.2144 33.8866 27.0023C34.0366 26.7901 34.1222 26.6734 34.2678 26.4773C34.4135 26.2807 34.4901 26.1852 34.6142 26.0203C34.7384 25.8551 34.8078 25.7906 34.8893 25.6523C34.9713 25.514 35.0181 25.4416 35.023 25.3283C35.0278 25.2151 34.9761 25.1528 34.9144 25.0869C34.8528 25.0205 34.8027 25.0042 34.7144 24.9976C34.6261 24.9914 34.5725 24.9985 34.4731 25.0546C34.3732 25.1111 34.3308 25.1645 34.2167 25.279C34.1029 25.394 34.0393 25.464 33.9027 25.6285C33.7661 25.7926 33.6766 25.8847 33.5331 26.1009C33.3896 26.3175 33.3266 26.4501 33.185 26.7106C33.0434 26.9712 32.9664 27.1249 32.8251 27.404C32.6834 27.6829 32.6036 27.8459 32.4778 28.1049C32.3519 28.3642 32.2986 28.5014 32.1959 28.6991C32.0932 28.8969 32.0161 28.9802 31.9641 29.0941C31.9126 29.208 31.9316 29.2527 31.9378 29.2688C31.9435 29.2848 31.9857 29.2654 31.994 29.1749C32.0022 29.0844 31.9726 29.0124 31.9791 28.8155C31.9856 28.6187 31.9876 28.4772 32.0261 28.1913C32.0646 27.9049 32.1036 27.7373 32.1711 27.3844C32.2386 27.032 32.2816 26.8222 32.3636 26.4277C32.4455 26.0332 32.5004 25.8124 32.5806 25.4113C32.661 25.0107 32.6998 24.8061 32.7652 24.4231C32.831 24.0402 32.8638 23.8443 32.9084 23.4956C32.953 23.1469 32.9669 22.9865 32.9892 22.679C33.0115 22.3715 33.0189 22.2049 33.0202 21.9581C33.0211 21.7117 33.0167 21.6065 32.9946 21.4456C32.9725 21.2851 32.957 21.2087 32.9093 21.1547C32.8616 21.1007 32.7876 21.1123 32.7561 21.1755Z" stroke="#3E450D" stroke-width="0.50024"/>
<path d="M44.1673 27.4018C44.1847 27.3476 44.177 27.3103 44.1456 27.264C44.1143 27.2177 44.0824 27.2028 44.0101 27.1703C43.9375 27.1378 43.8939 27.105 43.7834 27.101C43.6733 27.0971 43.5926 27.0934 43.4585 27.1509C43.3245 27.208 43.2531 27.2696 43.1137 27.3875C42.9742 27.5054 42.8951 27.5703 42.7614 27.7403C42.628 27.9104 42.5538 28.0222 42.4452 28.2375C42.3363 28.4527 42.2822 28.5817 42.2184 28.8157C42.155 29.0497 42.1293 29.1801 42.1269 29.4078C42.1244 29.636 42.1375 29.7598 42.2059 29.9548C42.2743 30.1502 42.3338 30.2422 42.4696 30.3846C42.6055 30.527 42.6985 30.5935 42.8852 30.6663C43.0719 30.7395 43.1888 30.753 43.4036 30.7499C43.618 30.7467 43.7412 30.7222 43.9582 30.6503C44.1755 30.5788 44.2939 30.5271 44.4892 30.3907C44.6841 30.2543 44.7826 30.1557 44.9335 29.9688C45.0846 29.7824 45.1504 29.6738 45.2431 29.458C45.3357 29.2426 45.3666 29.1215 45.3972 28.8909C45.4276 28.6606 45.4175 28.5243 45.3961 28.3056C45.3745 28.0865 45.341 27.979 45.2894 27.7965C45.2377 27.6143 45.2112 27.5286 45.137 27.3938C45.0632 27.2592 45.0082 27.1935 44.9196 27.1235C44.8305 27.0534 44.7717 27.0542 44.6924 27.044C44.6131 27.0338 44.5694 27.0472 44.5225 27.0721C44.4757 27.0967 44.4579 27.1307 44.4588 27.1681C44.4594 27.2055 44.5027 27.2379 44.5257 27.2584C44.5491 27.2791 44.5538 27.2635 44.5753 27.2704C44.5969 27.2769 44.6033 27.2759 44.6339 27.2914C44.664 27.3073 44.6762 27.2993 44.7276 27.3488C44.7789 27.3984 44.8236 27.4352 44.8907 27.5394C44.9578 27.6435 45.0039 27.712 45.0625 27.8701C45.1211 28.0283 45.1566 28.131 45.1841 28.3301C45.2111 28.5296 45.2233 28.6562 45.199 28.8665C45.1752 29.0765 45.1476 29.1856 45.0641 29.381C44.9802 29.5769 44.9185 29.6761 44.7808 29.8446C44.6426 30.013 44.5514 30.1032 44.3738 30.224C44.1965 30.3449 44.0879 30.3882 43.8933 30.4487C43.6987 30.5097 43.5862 30.5259 43.401 30.5272C43.2158 30.5284 43.1217 30.5146 42.9671 30.4551C42.8129 30.3956 42.7417 30.3444 42.6298 30.2299C42.5174 30.1157 42.4662 30.0473 42.4065 29.8835C42.3468 29.7193 42.3291 29.6128 42.3308 29.4101C42.3328 29.2074 42.3539 29.0847 42.4149 28.8704C42.4755 28.6556 42.5291 28.5319 42.6354 28.3377C42.7422 28.1435 42.8172 28.0398 42.9481 27.8995C43.0791 27.7593 43.1606 27.7102 43.2907 27.6357C43.4213 27.5612 43.501 27.5563 43.5994 27.5265C43.6984 27.4963 43.7318 27.4892 43.7836 27.4852C43.8355 27.4812 43.8282 27.4926 43.8586 27.5064C43.889 27.5202 43.896 27.5486 43.9363 27.554C43.9764 27.5598 44.0142 27.5648 44.0603 27.5343C44.1069 27.5038 44.1505 27.4556 44.1673 27.4018Z" stroke="#3E450D" stroke-width="0.50024"/>
<path d="M47.6418 23.6109C47.5907 23.6381 47.5691 23.6748 47.5364 23.7713C47.5033 23.8678 47.5071 23.9133 47.4772 24.0941C47.4478 24.2747 47.4383 24.4035 47.3874 24.6757C47.337 24.9475 47.2936 25.114 47.2244 25.454C47.1549 25.7935 47.1185 25.9909 47.0402 26.3739C46.9617 26.7573 46.9167 26.9738 46.832 27.3695C46.747 27.7648 46.6961 27.9741 46.6157 28.3512C46.535 28.7284 46.4965 28.9153 46.4291 29.2552C46.3616 29.5951 46.3285 29.7725 46.2788 30.0507C46.229 30.329 46.214 30.4401 46.1804 30.6464C46.1464 30.8521 46.1103 30.9334 46.1091 31.0804C46.1078 31.2274 46.1155 31.2979 46.1738 31.3813C46.2322 31.4648 46.2963 31.506 46.4004 31.4976C46.5046 31.4888 46.5695 31.4488 46.6948 31.3378C46.82 31.2272 46.8804 31.1357 47.0274 30.944C47.1744 30.7523 47.2574 30.623 47.4295 30.3788C47.6019 30.1347 47.7048 29.9869 47.8887 29.7237C48.0723 29.4605 48.1777 29.3151 48.3484 29.0636C48.5195 28.8122 48.5927 28.6741 48.7431 28.467C48.8939 28.2596 48.9672 28.1639 49.1018 28.0272C49.2367 27.891 49.3355 27.8565 49.4175 27.7841C49.4999 27.7113 49.5025 27.6652 49.5127 27.6648C49.5228 27.6644 49.4716 27.6848 49.4685 27.7825C49.4654 27.8797 49.4992 27.9696 49.4976 28.1517C49.4957 28.3338 49.486 28.4535 49.4599 28.6924C49.4338 28.9313 49.414 29.092 49.3673 29.3469C49.3205 29.6021 49.2835 29.7449 49.2263 29.9669C49.169 30.189 49.1247 30.2898 49.0806 30.4579C49.0369 30.6255 48.9908 30.6989 49.0066 30.8067C49.0218 30.9149 49.0728 30.9716 49.1579 30.9974C49.243 31.0232 49.325 31.0191 49.4318 30.9361C49.5391 30.8528 49.5667 30.7546 49.6925 30.582C49.8183 30.4095 49.8932 30.2889 50.0614 30.0726C50.2297 29.8563 50.3413 29.7238 50.5341 29.5015C50.7272 29.2792 50.8358 29.1504 51.026 28.9608C51.2162 28.7716 51.3153 28.6819 51.4856 28.5548C51.656 28.4274 51.7425 28.3834 51.8777 28.3244C52.0132 28.2658 52.074 28.2658 52.162 28.261C52.2504 28.2564 52.2667 28.2595 52.3194 28.3009C52.3725 28.3424 52.388 28.3705 52.4269 28.4679C52.4656 28.5658 52.4961 28.6304 52.5135 28.7888C52.531 28.9469 52.528 29.0563 52.5137 29.2598C52.4994 29.463 52.4833 29.5857 52.442 29.8054C52.4006 30.0254 52.3634 30.1518 52.3071 30.3581C52.2507 30.5647 52.2056 30.673 52.1599 30.8379C52.1138 31.0026 52.0684 31.079 52.0784 31.1813C52.0883 31.2836 52.1355 31.3358 52.2086 31.35C52.2814 31.3641 52.3536 31.3484 52.4438 31.2513C52.5341 31.1543 52.5428 31.0458 52.6596 30.8646C52.776 30.683 52.8568 30.5617 53.0275 30.3437C53.1986 30.1254 53.3053 29.987 53.5146 29.7737C53.7239 29.5604 53.8502 29.4458 54.0739 29.2773C54.2976 29.1088 54.4277 29.0321 54.6323 28.9309C54.8374 28.8293 54.9415 28.7983 55.0976 28.77C55.2536 28.7416 55.3159 28.7557 55.4128 28.7889C55.5095 28.8225 55.5291 28.8387 55.5811 28.9375C55.6332 29.0363 55.6519 29.1056 55.6734 29.2828C55.6944 29.4599 55.6928 29.5842 55.6877 29.8232C55.683 30.0624 55.6763 30.2122 55.6495 30.4783C55.6228 30.744 55.5907 30.8876 55.5542 31.1537C55.5179 31.4195 55.499 31.564 55.4676 31.8075C55.4365 32.0515 55.4199 32.1725 55.3973 32.3726C55.3747 32.5731 55.3583 32.6622 55.355 32.8093C55.3516 32.9568 55.3565 33.0205 55.3809 33.1092C55.4049 33.1975 55.4379 33.2264 55.4756 33.2516C55.5135 33.2763 55.5433 33.2661 55.5704 33.2337C55.5976 33.2013 55.6017 33.1742 55.6118 33.0899C55.6215 33.0056 55.6207 32.9522 55.6201 32.8116C55.6189 32.6713 55.601 32.5845 55.6074 32.388C55.6135 32.1915 55.6263 32.0707 55.6508 31.8286C55.6752 31.5868 55.693 31.4438 55.7294 31.1776C55.7662 30.9115 55.8008 30.7684 55.8344 30.4988C55.8684 30.2297 55.883 30.0803 55.8984 29.8321C55.9135 29.5837 55.9298 29.4619 55.9107 29.2574C55.8916 29.0534 55.8864 28.9506 55.8024 28.8113C55.7182 28.6716 55.6396 28.6091 55.49 28.5597C55.3409 28.5107 55.2438 28.5219 55.0556 28.5642C54.8675 28.6065 54.7663 28.6553 54.55 28.7713C54.3337 28.8878 54.2053 28.9694 53.9744 29.1459C53.7431 29.3225 53.615 29.4401 53.3951 29.6542C53.1756 29.8683 53.0649 30.0052 52.8761 30.2168C52.6875 30.4289 52.5903 30.5424 52.4513 30.7136C52.3124 30.8844 52.2356 30.9582 52.1816 31.0721C52.1275 31.1861 52.1528 31.2515 52.1814 31.2835C52.2101 31.3155 52.278 31.3082 52.3245 31.2324C52.3714 31.1567 52.3755 31.0685 52.4152 30.9044C52.4549 30.7402 52.4749 30.624 52.5237 30.4127C52.572 30.2014 52.612 30.0738 52.6577 29.8477C52.7038 29.6222 52.7266 29.4993 52.7539 29.2836C52.7807 29.0678 52.8011 28.9571 52.7936 28.7688C52.7865 28.5806 52.781 28.4824 52.7172 28.3427C52.6535 28.203 52.5899 28.1413 52.4754 28.07C52.3606 27.9986 52.2839 27.9754 52.1443 27.9851C52.0046 27.9951 51.9325 28.0361 51.7772 28.1203C51.622 28.2041 51.5433 28.262 51.3685 28.4059C51.1938 28.5494 51.0969 28.6433 50.9039 28.8395C50.7109 29.0354 50.6027 29.1647 50.4031 29.3855C50.2035 29.6062 50.088 29.7369 49.9054 29.9432C49.7228 30.1496 49.631 30.2636 49.4904 30.4169C49.3497 30.5703 49.2673 30.617 49.2016 30.7102C49.1358 30.8038 49.1526 30.8598 49.1617 30.8831C49.1704 30.9064 49.2145 30.9011 49.2452 30.8273C49.2762 30.7536 49.2801 30.677 49.3162 30.5144C49.3518 30.3521 49.3753 30.2402 49.4248 30.0144C49.4743 29.7881 49.5113 29.6428 49.5632 29.3847C49.6151 29.1265 49.6418 28.9674 49.6833 28.7234C49.7248 28.4799 49.7526 28.365 49.7709 28.1658C49.7891 27.9667 49.8175 27.8582 49.774 27.7281C49.7305 27.598 49.6554 27.547 49.5536 27.516C49.4513 27.4852 49.3839 27.4976 49.2636 27.5729C49.1431 27.6478 49.0826 27.7321 48.9513 27.892C48.8196 28.0519 48.7528 28.1545 48.6066 28.3715C48.4605 28.5885 48.3901 28.7249 48.2205 28.9771C48.0514 29.2293 47.947 29.3735 47.76 29.6324C47.573 29.8909 47.4672 30.039 47.2849 30.2715C47.1031 30.5036 47.0089 30.6247 46.8501 30.7939C46.6916 30.9636 46.5955 31.0173 46.4916 31.118C46.3877 31.2191 46.3585 31.2613 46.3309 31.2991C46.3028 31.3368 46.3468 31.3499 46.3526 31.3068C46.3581 31.2637 46.3571 31.2115 46.3589 31.0835C46.3608 30.9555 46.3491 30.8688 46.3623 30.6672C46.3751 30.4651 46.3855 30.3515 46.4242 30.0739C46.4625 29.7963 46.4928 29.6185 46.5539 29.2788C46.6155 28.9392 46.6522 28.7527 46.7308 28.3757C46.8099 27.9987 46.8608 27.7895 46.9475 27.3945C47.0341 26.9995 47.0796 26.7822 47.1645 26.4003C47.2494 26.0188 47.2888 25.8232 47.3716 25.4871C47.4541 25.1505 47.5047 24.9861 47.5777 24.7193C47.6512 24.4525 47.6862 24.3296 47.7371 24.153C47.7886 23.9762 47.8236 23.9396 47.834 23.836C47.8447 23.733 47.8289 23.6817 47.7902 23.6363C47.7519 23.5914 47.6923 23.5841 47.6418 23.6109Z" stroke="#3E450D" stroke-width="0.50024"/>
<defs>
<linearGradient id="paint0_linear_1915_9049" x1="25.6343" y1="16.4933" x2="23.6331" y2="32.2616" gradientUnits="userSpaceOnUse">
<stop offset="0.873325" stop-color="#E3F460"/>
<stop offset="1" stop-color="#DBEB60"/>
</linearGradient>
</defs>
</svg>
